<?xml version="1.0" encoding="utf-8"?>
<!-- Generator: Adobe Illustrator 16.0.0, SVG Export Plug-In . SVG Version: 6.00 Build 0)  -->
<!DOCTYPE svg PUBLIC "-//W3C//DTD SVG 1.1//EN" "http://www.w3.org/Graphics/SVG/1.1/DTD/svg11.dtd">
<svg version="1.1" xmlns="http://www.w3.org/2000/svg" xmlns:xlink="http://www.w3.org/1999/xlink" x="0px" y="0px"
	 width="198.43px" height="198.43px" viewBox="0 0 198.43 198.43" enable-background="new 0 0 198.43 198.43" xml:space="preserve">
<g id="Слой_1">
</g>
<g id="Слой_2">
	<g id="layer102">
		<path fill="#F8A80B" d="M64.759,195.628c-0.088-0.311-0.134-7.02-0.088-14.84l0.133-14.307l-17.284-0.044
			c-9.507,0-17.461-0.135-17.727-0.313c-0.267-0.133-0.311-1.244-0.134-2.754c0.178-1.378,0.312-5.243,0.266-8.576
			c0-3.376,0.178-6.486,0.4-6.931c0.4-0.756,1.2-0.844,8.353-0.934c8.398-0.089,9.42-0.31,10.886-2.311
			c1.599-2.132,1.733-6.309,1.599-48.074c-0.133-46.342,0.178-42.831-3.998-44.075c-1.688-0.489-4.399-0.667-10.176-0.667
			c-5.064,0-7.998-0.178-8.174-0.489c-0.355-0.577-0.355-17.639,0-18.217c0.177-0.222,7.508-0.398,18.127-0.398h17.861V18.17V3.597
			h9.109h9.108V18.17V32.7h5.997h5.999V18.17V3.597l8.619-0.134c6.044-0.089,8.798,0.044,9.198,0.4
			c0.532,0.445,0.623,3.065,0.623,14.794l-0.046,14.263l2.8,0.311c2.843,0.311,11.151,1.955,12.351,2.443
			c0.356,0.134,0.979,0.311,1.333,0.355c1.111,0.178,4.889,1.556,8.221,2.978c5.688,2.488,11.951,7.287,15.062,11.596
			c5.242,7.199,6.266,18.44,2.488,27.414c-2.134,5.066-6.397,10.397-10.619,13.197l-2.354,1.599l3.199,1.244
			c1.731,0.667,3.555,1.555,3.954,1.911c0.443,0.4,0.978,0.711,1.199,0.711c0.756,0,5.645,3.82,7.775,6.042
			c3.909,4.178,7.065,10.397,7.731,15.329c0.312,2.221,0.312,10.975,0,13.063c-0.578,3.82-1.244,6.708-1.645,7.241
			c-0.267,0.268-0.354,0.534-0.178,0.534c0.534,0-1.909,5.908-3.554,8.575c-6.266,10.219-16.04,15.906-31.501,18.305
			c-2.223,0.355-7.199,0.622-12.309,0.622l-3.908,0.046l-0.091,14.794l-0.132,14.752h-9.109h-9.108v-14.752v-14.75l-5.91,0.088
			l-5.91,0.088l-0.088,14.664l-0.088,14.662l-9.02,0.133C66.893,196.205,64.937,196.116,64.759,195.628z M115.9,143.821
			c7.108-1.955,12.528-6.754,14.483-12.885c1.066-3.334,1.244-9.554,0.355-12.485c-1.644-5.465-9.907-10.042-20.171-11.107
			c-2.222-0.223-9.242-0.444-15.64-0.444H83.243v19.149v19.149l14.573-0.222C110.968,144.798,112.656,144.709,115.9,143.821z
			 M110.522,87.26c1.645-0.488,5.288-2.576,6.932-3.998c1.155-1.021,3.021-4.043,4.043-6.576c0.757-1.911,0.978-3.466,1.021-7.109
			c0.046-4.398-0.044-4.799-1.243-7.021c-2.267-4.088-6.131-6.62-12.707-8.309c-2.223-0.578-5.51-0.799-14.218-0.977l-11.329-0.223
			l0.132,17.373l0.089,17.373h12.751C104.48,87.793,109.279,87.616,110.522,87.26z"/>
	</g>
</g>
</svg>
