<?xml version="1.0" encoding="utf-8"?>
<!-- Generator: Adobe Illustrator 16.0.0, SVG Export Plug-In . SVG Version: 6.00 Build 0)  -->
<!DOCTYPE svg PUBLIC "-//W3C//DTD SVG 1.1//EN" "http://www.w3.org/Graphics/SVG/1.1/DTD/svg11.dtd">
<svg version="1.1" xmlns="http://www.w3.org/2000/svg" xmlns:xlink="http://www.w3.org/1999/xlink" x="0px" y="0px"
	 width="198.43px" height="198.43px" viewBox="0 0 198.43 198.43" enable-background="new 0 0 198.43 198.43" xml:space="preserve">
<g id="Слой_1">
</g>
<g id="Слой_2">
	<path fill-rule="evenodd" clip-rule="evenodd" d="M90.692,195.719c0-6.15,0-11.461,0-16.969c-5.272-1.033-10.391-1.658-15.272-3.09
		c-5.722-1.676-11.259-4.002-16.835-6.15c-2.767-1.066-3.94-3.041-3.825-6.213c0.244-6.76,0.075-13.535,0.075-21.682
		c11.029,8.869,21.63,16.031,35.818,16.234c0-11.43,0.014-22.393-0.006-33.357c-0.01-5.664,1.755-12.346-0.659-16.693
		c-2.231-4.018-9.011-5.461-13.712-8.168C64.171,92.658,54.37,83.71,51.827,69.148c-4.294-24.593,9.94-44.373,34.598-48.354
		c1.144-0.185,2.295-0.32,4.033-0.562c0-5.587,0-11.164,0-17.517c4.676,0,8.782-0.206,12.837,0.156
		c0.922,0.082,2.307,2.094,2.383,3.286c0.283,4.474,0.113,8.977,0.113,12.69c8.467,2.758,16.467,5.323,24.438,7.973
		c5.698,1.894,8.569,5.351,7.752,11.9c-0.669,5.361-0.136,10.872-0.136,17.267c-5.526-4.04-9.97-8.025-15.069-10.809
		c-4.985-2.721-10.64-4.215-16.979-6.619c0,4.616,0,7.746,0,10.875c0,10.999,0.174,22.003-0.094,32.995
		c-0.094,3.85,1.023,5.779,4.598,7.557c7.119,3.539,14.144,7.455,20.643,12.02c25.478,17.895,20.776,60.205-10.42,71.604
		c-4.674,1.707-9.519,2.947-14.729,4.539c0,4.408-0.096,9.051,0.037,13.686c0.076,2.643-0.594,4.074-3.594,3.926
		C98.619,195.582,94.983,195.719,90.692,195.719z M106.031,111.848c0,15.496,0,30.617,0,45.736
		c10.021-0.07,17.891-6.855,19.625-16.719C128.02,127.42,121.143,117.107,106.031,111.848z M90.398,82.439
		c0-14.278,0-28.19,0-42.099c-10.283-0.025-16.864,5.09-18.375,14.086C69.911,67.002,76.788,77.691,90.398,82.439z"/>
</g>
</svg>
