<svg width="42" height="42" viewBox="0 0 42 42" fill="none" xmlns="http://www.w3.org/2000/svg">
<path d="M40.4289 11.3692C40.4289 16.7991 36.0271 21.2008 30.5972 21.2008C25.1674 21.2008 20.7656 16.7991 20.7656 11.3692C20.7656 5.93936 25.1674 1.5376 30.5972 1.5376C36.0271 1.5376 40.4289 5.93936 40.4289 11.3692Z" stroke="#463192" stroke-width="1.5"/>
<path d="M21.2345 30.5982C21.2345 36.0281 16.8328 40.4298 11.4029 40.4298C5.97306 40.4298 1.57129 36.0281 1.57129 30.5982C1.57129 25.1684 5.97306 20.7666 11.4029 20.7666C16.8328 20.7666 21.2345 25.1684 21.2345 30.5982Z" stroke="#463192" stroke-width="1.5"/>
<path d="M31.2926 5.99402V6.09327L31.3893 6.11576C32.8093 6.44619 33.8537 7.63907 33.8537 9.04459C33.8537 9.42862 33.5424 9.73991 33.1584 9.73991C32.7744 9.73991 32.4631 9.42862 32.4631 9.04459C32.4631 8.41355 32.0526 7.87542 31.4701 7.60532L31.2925 7.52297V7.71872V10.6428V10.7421L31.3892 10.7646C32.8092 11.095 33.8536 12.2878 33.8536 13.6934C33.8536 15.099 32.8092 16.2918 31.3892 16.6221L31.2925 16.6446V16.7439V17.0736C31.2925 17.4576 30.9813 17.7689 30.5972 17.7689C30.2132 17.7689 29.9019 17.4576 29.9019 17.0736V16.7439V16.6446L29.8052 16.6221C28.3852 16.2918 27.3408 15.0989 27.3408 13.6934C27.3408 13.3094 27.6521 12.9981 28.0361 12.9981C28.4202 12.9981 28.7314 13.3094 28.7314 13.6934C28.7314 14.3244 29.142 14.8625 29.7244 15.1326L29.902 15.2149V15.0192V12.0952V11.9959L29.8053 11.9734C28.3853 11.643 27.3409 10.4503 27.3409 9.04459C27.3409 7.6389 28.3854 6.44611 29.8053 6.11576L29.902 6.09327V5.99402V5.75342C29.902 5.36939 30.2133 5.05811 30.5973 5.05811C30.9813 5.05811 31.2926 5.36939 31.2926 5.75342V5.99402ZM29.9021 7.71872V7.523L29.7245 7.60532C29.142 7.87534 28.7315 8.41356 28.7315 9.04459C28.7315 9.67571 29.142 10.2138 29.7245 10.4839L29.9021 10.5663V10.3705V7.71872ZM31.2925 15.019V15.2147L31.4701 15.1324C32.0526 14.8625 32.4631 14.3243 32.4631 13.6932C32.4631 13.0622 32.0526 12.5241 31.4701 12.2539L31.2925 12.1715V12.3673V15.019Z" fill="#463192" stroke="#463192" stroke-width="0.25"/>
<path d="M9.22743 35.6826V35.5575L9.10242 35.5576L8.03955 35.5576C7.65553 35.5576 7.34424 35.2464 7.34424 34.8623C7.34424 34.4783 7.65553 34.167 8.03955 34.167H8.20017H8.32517V34.042V27.1516V27.0266H8.20017H8.03955C7.65553 27.0266 7.34424 26.7153 7.34424 26.3313C7.34424 25.9473 7.65553 25.636 8.03955 25.636H9.10243H9.22743V25.511V24.9128C9.22743 24.5288 9.53872 24.2175 9.92274 24.2175C10.3068 24.2175 10.6181 24.5288 10.6181 24.9128V25.511V25.636H10.7431H11.3173H11.4423V25.511V24.9128C11.4423 24.5288 11.7536 24.2175 12.1376 24.2175C12.5216 24.2175 12.8329 24.5288 12.8329 24.9128V25.7053V25.7914L12.9132 25.8221C13.9768 26.2291 14.734 27.26 14.734 28.4641C14.734 29.2662 14.3977 29.991 13.8588 30.5065L13.7644 30.5968L13.8588 30.6871C14.3977 31.2026 14.734 31.9274 14.734 32.7295C14.734 33.9337 13.9769 34.9645 12.9132 35.3715L12.8329 35.4022V35.4882V36.2423C12.8329 36.6263 12.5216 36.9376 12.1376 36.9376C11.7536 36.9376 11.4423 36.6263 11.4423 36.2423V35.6826V35.5576H11.3173H10.7431H10.6181V35.6826V36.2423C10.6181 36.6263 10.3068 36.9376 9.92274 36.9376C9.53872 36.9376 9.22743 36.6263 9.22743 36.2423V35.6826ZM9.71571 34.0419V34.1669H9.84071H11.9058C12.6985 34.1669 13.3433 33.5222 13.3433 32.7295C13.3433 31.9368 12.6986 31.2921 11.9058 31.2921H9.84071H9.71571V31.4171V34.0419ZM9.71571 29.7765V29.9015H9.84071H11.9058C12.6987 29.9015 13.3433 29.2566 13.3433 28.464C13.3433 27.6713 12.6986 27.0266 11.9058 27.0266H9.84071H9.71571V27.1516V29.7765Z" fill="#463192" stroke="#463192" stroke-width="0.25"/>
<path d="M4.69691 16.3035C4.85711 16.4637 5.06703 16.5437 5.27695 16.5437C5.48687 16.5437 5.69687 16.4637 5.85699 16.3035L7.16317 14.9973C7.48351 14.6769 7.48351 14.1575 7.16317 13.8371C6.8645 13.5384 6.3929 13.5185 6.07085 13.7768V6.07031H15.2237C15.6768 6.07031 16.044 5.70306 16.044 5.25C16.044 4.79694 15.6768 4.42969 15.2237 4.42969H5.2507C4.79764 4.42969 4.43039 4.79694 4.43039 5.25V13.738C4.1112 13.5215 3.67348 13.5543 3.39064 13.837C3.07031 14.1574 3.07031 14.6768 3.39064 14.9972L4.69691 16.3035Z" fill="#463192"/>
<path d="M37.3033 25.6956C36.9829 25.3752 36.4635 25.3752 36.1432 25.6956L34.837 27.0018C34.5167 27.3221 34.5167 27.8415 34.837 28.1618C35.1357 28.4605 35.6073 28.4804 35.9293 28.2221V35.9286H26.7764C26.3233 35.9286 25.9561 36.2958 25.9561 36.7489C25.9561 37.2019 26.3233 37.5692 26.7764 37.5692H36.7496C37.2026 37.5692 37.5699 37.2019 37.5699 36.7489V28.2609C37.7083 28.3548 37.8688 28.4022 38.0296 28.4022C38.2395 28.4022 38.4495 28.3221 38.6096 28.1619C38.9299 27.8416 38.9299 27.3222 38.6096 27.0018L37.3033 25.6956Z" fill="#463192"/>
</svg>
