<svg width="41" height="41" viewBox="0 0 41 41" fill="none" xmlns="http://www.w3.org/2000/svg">
<g clip-path="url(#clip0)">
<path d="M32.5622 20.4997C32.5622 27.1616 27.1617 32.5621 20.4999 32.5621C13.838 32.5621 8.4375 27.1616 8.4375 20.4997C8.4375 13.8379 13.838 8.43738 20.4999 8.43738C27.1617 8.43738 32.5622 13.8379 32.5622 20.4997Z" stroke="#463192" stroke-width="1.5"/>
<path d="M18.8505 25.5104V25.3854L18.7255 25.3854L17.7516 25.3855C17.424 25.3855 17.125 25.065 17.125 24.625C17.125 24.185 17.424 23.8646 17.7516 23.8646H17.8988H18.0238V23.7396V16.302V16.177H17.8988H17.7516C17.424 16.177 17.125 15.8566 17.125 15.4166C17.125 14.9766 17.424 14.6561 17.7516 14.6561H18.7255H18.8505V14.5311V13.8855C18.8505 13.4455 19.1495 13.125 19.4771 13.125C19.8048 13.125 20.1037 13.4455 20.1037 13.8855V14.5311V14.6561H20.2287H20.7549H20.8799V14.5311V13.8855C20.8799 13.4455 21.1788 13.125 21.5065 13.125C21.8342 13.125 22.1331 13.4455 22.1331 13.8855V14.7409V14.8217L22.2067 14.8548C23.1728 15.2903 23.875 16.4028 23.875 17.7187C23.875 18.5938 23.5635 19.3809 23.0693 19.9378L22.9956 20.0208L23.0693 20.1037C23.5635 20.6606 23.875 21.4478 23.875 22.3229C23.875 23.6389 23.1729 24.7512 22.2067 25.1867L22.1331 25.2199V25.3006V26.1145C22.1331 26.5545 21.8342 26.875 21.5065 26.875C21.1788 26.875 20.8799 26.5545 20.8799 26.1145V25.5104V25.3854H20.7549H20.2287H20.1037V25.5104V26.1145C20.1037 26.5545 19.8048 26.875 19.4771 26.875C19.1495 26.875 18.8505 26.5545 18.8505 26.1145V25.5104ZM19.277 23.7395V23.8645H19.402H21.2942C22.0446 23.8645 22.6217 23.1531 22.6217 22.3229C22.6217 21.4927 22.0448 20.7812 21.2942 20.7812H19.402H19.277V20.9062V23.7395ZM19.277 19.1353V19.2603H19.402H21.2942C22.0448 19.2603 22.6217 18.5487 22.6217 17.7186C22.6217 16.8885 22.0447 16.1769 21.2942 16.1769H19.402H19.277V16.3019V19.1353Z" fill="#463192" stroke="#463192" stroke-width="0.25"/>
<path d="M40.6182 24.1465L38.0446 22.5678V18.4322L40.6183 16.8534C40.9539 16.6476 41.0901 16.2281 40.9394 15.8643L38.2306 9.32544C38.0799 8.96164 37.6871 8.7616 37.3042 8.85321L34.3669 9.55702L31.4434 6.6336L32.1472 3.69625C32.239 3.3134 32.0388 2.92053 31.675 2.76991L25.1361 0.0611766C24.7723 -0.0896909 24.3529 0.0465223 24.147 0.382291L22.5684 2.95593H18.4326L16.8539 0.382291C16.648 0.0466023 16.2286 -0.089771 15.8648 0.0611766L9.3259 2.76999C8.9621 2.92069 8.7619 3.31348 8.85367 3.69633L9.55748 6.63368L6.63406 9.5571L3.69671 8.85329C3.31394 8.76184 2.921 8.96172 2.77029 9.32552L0.0615608 15.8644C-0.0891465 16.2282 0.0469865 16.6476 0.382675 16.8535L2.95639 18.4323V22.568L0.382755 24.1465C0.0470666 24.3524 -0.0890665 24.7718 0.0616408 25.1356L2.77045 31.6746C2.92116 32.0384 3.31402 32.2385 3.69687 32.1468L6.63422 31.443L9.55756 34.3663L8.85367 37.3038C8.7619 37.6866 8.9621 38.0795 9.3259 38.2301L15.8648 40.9389C16.2286 41.0899 16.648 40.9536 16.8539 40.6178L18.4326 38.0441H22.5684L24.1471 40.6178C24.2965 40.8615 24.5585 40.9999 24.83 40.9999C24.9325 40.9999 25.0365 40.9802 25.1361 40.9388L31.6751 38.23C32.0389 38.0793 32.2391 37.6865 32.1473 37.3037L31.4434 34.3662L34.3668 31.4429L37.3041 32.1467C37.6869 32.2383 38.0798 32.0383 38.2305 31.6745L40.9394 25.1355C41.0901 24.7718 40.9539 24.3525 40.6182 24.1465ZM37.0125 30.4301L34.3041 29.7811C34.0333 29.7161 33.7482 29.7967 33.5513 29.9936L29.9939 33.5508C29.797 33.7477 29.7165 34.0329 29.7814 34.3036L30.4304 37.0121L25.1546 39.1977L23.6991 36.8246C23.5535 36.5872 23.295 36.4426 23.0165 36.4426H17.9843C17.7058 36.4426 17.4473 36.5873 17.3017 36.8246L15.8461 39.1977L10.5703 37.0121L11.2193 34.3036C11.2843 34.0328 11.2038 33.7477 11.0068 33.5508L7.4495 29.9936C7.25259 29.7966 6.96743 29.716 6.69669 29.7811L3.98836 30.4301L1.80278 25.1543L4.17574 23.6987C4.41317 23.5531 4.5578 23.2945 4.5578 23.0161V17.9839C4.5578 17.7054 4.41309 17.4469 4.17574 17.3013L1.8027 15.8457L3.98828 10.5699L6.69669 11.2189C6.96735 11.2838 7.25259 11.2034 7.4495 11.0064L11.0068 7.44912C11.2037 7.25221 11.2842 6.96705 11.2193 6.6963L10.5703 3.9879L15.8461 1.80232L17.3017 4.17528C17.4473 4.41271 17.7058 4.55733 17.9843 4.55733H23.0166C23.2951 4.55733 23.5536 4.41263 23.6991 4.17528L25.1547 1.80232L30.4305 3.9879L29.7816 6.6963C29.7166 6.96713 29.7971 7.25221 29.994 7.44912L33.5513 11.0064C33.7482 11.2034 34.0332 11.284 34.3041 11.2189L37.0126 10.5699L39.1981 15.8457L36.8251 17.3013C36.5877 17.4469 36.443 17.7055 36.443 17.9839V23.0161C36.443 23.2946 36.5877 23.5531 36.8251 23.6987L39.1981 25.1543L37.0125 30.4301Z" fill="#463192"/>
</g>
<defs>
<clipPath id="clip0">
<rect width="41" height="41" fill="white"/>
</clipPath>
</defs>
</svg>
