<?xml version="1.0" encoding="utf-8"?>
<!-- Generator: Adobe Illustrator 16.0.0, SVG Export Plug-In . SVG Version: 6.00 Build 0)  -->
<!DOCTYPE svg PUBLIC "-//W3C//DTD SVG 1.1//EN" "http://www.w3.org/Graphics/SVG/1.1/DTD/svg11.dtd">
<svg version="1.1" xmlns="http://www.w3.org/2000/svg" xmlns:xlink="http://www.w3.org/1999/xlink" x="0px" y="0px"
	 width="198.43px" height="198.43px" viewBox="0 0 198.43 198.43" enable-background="new 0 0 198.43 198.43" xml:space="preserve">
<g id="Слой_1">
</g>
<g id="Слой_2">
	<g>
		<g>
			<path d="M187.246,82.839h-2.838v-8.525V44.007c0-9.924-8.072-17.995-17.994-17.995H88.379L35.735,10.97
				c-0.015-0.004-0.031-0.006-0.046-0.01c-0.016-0.005-0.029-0.01-0.046-0.014c-0.032-0.008-0.063-0.012-0.094-0.018
				c-0.049-0.01-0.098-0.022-0.147-0.03c-0.044-0.006-0.088-0.012-0.132-0.017c-0.052-0.007-0.103-0.012-0.154-0.015
				c-0.042-0.002-0.083-0.002-0.125-0.003c-0.053-0.001-0.105-0.001-0.159,0c-0.039,0.002-0.078,0.006-0.116,0.009
				c-0.055,0.006-0.108,0.01-0.162,0.018c-0.037,0.004-0.073,0.012-0.109,0.019c-0.055,0.009-0.109,0.021-0.164,0.033
				c-0.033,0.008-0.066,0.018-0.099,0.027c-0.056,0.017-0.11,0.033-0.165,0.052c-0.031,0.01-0.061,0.022-0.091,0.034
				c-0.056,0.022-0.11,0.044-0.164,0.069c-0.029,0.013-0.056,0.027-0.084,0.042c-0.053,0.027-0.106,0.053-0.156,0.084
				c-0.028,0.016-0.054,0.032-0.081,0.049c-0.051,0.031-0.1,0.063-0.149,0.1c-0.025,0.018-0.05,0.038-0.075,0.057
				c-0.047,0.036-0.093,0.072-0.138,0.112c-0.025,0.022-0.049,0.044-0.072,0.068c-0.042,0.04-0.083,0.079-0.123,0.12
				c-0.025,0.027-0.047,0.053-0.071,0.081c-0.036,0.042-0.071,0.083-0.106,0.126c-0.024,0.032-0.046,0.064-0.069,0.096
				c-0.03,0.042-0.06,0.084-0.087,0.128c-0.022,0.038-0.044,0.076-0.066,0.114c-0.024,0.041-0.048,0.085-0.07,0.127
				c-0.021,0.043-0.041,0.087-0.059,0.13c-0.02,0.043-0.038,0.086-0.055,0.13c-0.018,0.046-0.032,0.094-0.048,0.142
				c-0.01,0.03-0.021,0.059-0.031,0.09c-0.005,0.016-0.007,0.03-0.01,0.046c-0.004,0.015-0.011,0.03-0.015,0.046l-3.249,12.999
				h-9.148C9.9,26.011,1.84,34.05,1.807,43.945c0,0.021-0.002,0.041-0.002,0.061v98.499c0,1.569,1.277,2.843,2.841,2.843
				c1.568,0,2.842-1.273,2.842-2.843V57.112c3.221,3.028,7.554,4.891,12.313,4.891h146.613c0.003,0,0.005,0,0.01,0
				c6.784,0.004,12.301,5.524,12.301,12.311v19.892h-31.258c-0.003,0-0.003,0-0.005,0c-0.082,0-0.166,0.005-0.245,0.013
				c-0.092,0.006-0.182,0.019-0.268,0.037c-0.013,0-0.027,0.001-0.04,0.004c-0.073,0.015-0.146,0.034-0.219,0.055
				c-0.019,0.004-0.033,0.007-0.051,0.014c-0.063,0.019-0.124,0.042-0.188,0.065c-0.024,0.01-0.048,0.018-0.07,0.027
				c-0.053,0.021-0.104,0.047-0.154,0.07c-0.032,0.018-0.067,0.031-0.1,0.05c-0.039,0.02-0.076,0.044-0.115,0.065
				c-0.042,0.025-0.084,0.051-0.123,0.076c-0.03,0.019-0.053,0.04-0.083,0.06c-0.046,0.036-0.097,0.069-0.142,0.108
				c-0.021,0.017-0.038,0.035-0.058,0.053c-0.05,0.041-0.101,0.085-0.147,0.131c-0.029,0.027-0.054,0.06-0.079,0.088
				c-0.036,0.04-0.073,0.079-0.11,0.121c-0.059,0.071-0.111,0.146-0.163,0.223c-0.002,0.001-0.002,0.002-0.002,0.003l-15.154,22.733
				c-0.105,0.158-0.194,0.324-0.266,0.499c-0.026,0.067-0.047,0.132-0.071,0.198c-0.006,0.021-0.013,0.042-0.02,0.062
				c-0.023,0.066-0.039,0.139-0.053,0.209c-0.005,0.019-0.01,0.038-0.012,0.057c-0.016,0.063-0.021,0.128-0.032,0.192
				c-0.003,0.026-0.007,0.053-0.01,0.081c-0.006,0.053-0.009,0.105-0.009,0.158c-0.002,0.039-0.006,0.08-0.006,0.12
				c0,0.039,0.004,0.079,0.006,0.115c0,0.058,0.003,0.11,0.009,0.164c0.003,0.023,0.007,0.05,0.01,0.076
				c0.012,0.066,0.017,0.132,0.032,0.194c0.002,0.021,0.007,0.038,0.012,0.056c0.014,0.072,0.032,0.141,0.053,0.214
				c0.007,0.02,0.014,0.039,0.022,0.059c0.021,0.067,0.042,0.132,0.068,0.197c0.071,0.175,0.16,0.341,0.268,0.503l15.152,22.726
				c0,0,0,0.002,0.002,0.004c0.062,0.09,0.126,0.179,0.198,0.258c0.023,0.028,0.047,0.056,0.071,0.079
				c0.049,0.053,0.098,0.105,0.149,0.153c0.031,0.029,0.063,0.058,0.094,0.086c0.056,0.046,0.11,0.089,0.168,0.133
				c0.027,0.019,0.054,0.042,0.083,0.06c0.083,0.058,0.171,0.111,0.263,0.158c0.023,0.013,0.047,0.023,0.071,0.034
				c0.071,0.037,0.145,0.069,0.221,0.1c0.032,0.014,0.061,0.021,0.092,0.034c0.072,0.025,0.145,0.048,0.219,0.067
				c0.031,0.009,0.06,0.018,0.092,0.024c0.079,0.017,0.155,0.033,0.233,0.043c0.03,0.004,0.06,0.01,0.088,0.014
				c0.098,0.01,0.196,0.018,0.297,0.018c0.009,0,0.017,0.002,0.023,0.002c0.004,0,0.006,0,0.008,0h31.248v19.892
				c0,6.789-5.522,12.313-12.311,12.313H19.802c-6.788,0-12.312-5.523-12.312-12.313c0-0.017-0.002-0.028-0.002-0.045v-11.323
				c0-1.566-1.272-2.843-2.842-2.843c-1.563,0-2.841,1.276-2.841,2.843v11.368c0,0.029,0.005,0.056,0.006,0.087
				c0.047,9.881,8.099,17.908,17.991,17.908h146.612c9.922,0,17.994-8.072,17.996-17.991c0-0.002,0-0.002,0-0.002V145.35h2.839
				c4.698,0,8.521-3.824,8.521-8.523V91.362C195.771,86.663,191.947,82.839,187.246,82.839z M36.999,17.241l50.135,14.325
				c0.002,0.001,0.004,0.003,0.007,0.003l33.603,9.6H31.019L36.999,17.241z M178.725,61.208c-3.224-3.028-7.549-4.89-12.311-4.89
				c-0.008,0-0.009,0.001-0.016,0.001H19.801c-6.789,0-12.313-5.524-12.313-12.313c0-6.789,5.524-12.312,12.313-12.312h7.728
				l-2.368,9.473h-5.359c-1.568,0-2.841,1.272-2.841,2.841c0,1.57,1.273,2.842,2.841,2.842h7.568c0.003,0,0.008,0,0.012,0
				c0.003,0,0.006,0,0.008,0h113.631c0.002,0,0.005,0,0.01,0c0.002,0,0.004,0,0.009,0h21.581c1.57,0,2.841-1.272,2.841-2.842
				c0-1.569-1.271-2.841-2.841-2.841h-21.193l-33.158-9.473h58.142c6.791,0,12.313,5.523,12.313,12.312V61.208z M190.088,136.824
				L190.088,136.824c0,1.567-1.273,2.84-2.842,2.84h-38.259l-13.261-19.887l13.261-19.89h38.259c0.042,0,0.079-0.005,0.118-0.006
				c0.956-0.013,1.871-0.184,2.724-0.485V136.824z M187.246,94.201c-0.019,0-0.037,0.004-0.059,0.004h-2.779v-5.683h2.838
				c1.568,0,2.842,1.274,2.842,2.84C190.088,92.926,188.814,94.201,187.246,94.201z"/>
		</g>
	</g>
	<g>
		<g>
			<path d="M157.125,110.014c-6.013,0-10.901,4.891-10.901,10.9c0,6.012,4.889,10.901,10.901,10.901
				c6.009,0,10.898-4.89,10.898-10.901C168.023,114.904,163.134,110.014,157.125,110.014z M157.125,125.87
				c-2.734,0-4.955-2.223-4.955-4.956c0-2.731,2.221-4.956,4.955-4.956c2.73,0,4.952,2.225,4.952,4.956
				C162.077,123.647,159.855,125.87,157.125,125.87z"/>
		</g>
	</g>
</g>
</svg>
