<?xml version="1.0" encoding="utf-8"?>
<!-- Generator: Adobe Illustrator 16.0.0, SVG Export Plug-In . SVG Version: 6.00 Build 0)  -->
<!DOCTYPE svg PUBLIC "-//W3C//DTD SVG 1.1//EN" "http://www.w3.org/Graphics/SVG/1.1/DTD/svg11.dtd">
<svg version="1.1" id="Слой_1" xmlns="http://www.w3.org/2000/svg" xmlns:xlink="http://www.w3.org/1999/xlink" x="0px" y="0px"
	 width="198.43px" height="198.43px" viewBox="0 0 198.43 198.43" enable-background="new 0 0 198.43 198.43" xml:space="preserve">
<g>
	<g>
		<path d="M124.922,1.195c-19.105,0-34.647,15.542-34.647,34.646c0,1.614,1.308,2.921,2.922,2.921c1.614,0,2.921-1.307,2.921-2.921
			c0-15.882,12.921-28.803,28.804-28.803c15.881,0,28.804,12.92,28.804,28.803c0,15.882-12.923,28.803-28.804,28.803
			c-1.144,0-2.294-0.066-3.419-0.199c-1.6-0.188-3.054,0.956-3.243,2.557c-0.189,1.603,0.957,3.054,2.559,3.244
			c1.351,0.16,2.732,0.241,4.103,0.241c19.104,0,34.646-15.542,34.646-34.646S144.025,1.195,124.922,1.195z"/>
	</g>
</g>
<g>
	<g>
		<path d="M67.41,45.084c-0.83-1.383-2.623-1.832-4.009-1.003c-10.395,6.233-16.853,17.626-16.853,29.733
			c0,7.465,2.338,14.575,6.761,20.561c0.573,0.775,1.457,1.185,2.352,1.185c0.604,0,1.211-0.185,1.734-0.571
			c1.297-0.958,1.572-2.788,0.613-4.085c-3.675-4.974-5.617-10.883-5.617-17.089c0-10.218,5.239-19.46,14.015-24.723
			C67.791,48.262,68.239,46.467,67.41,45.084z"/>
	</g>
</g>
<g>
	<g>
		<path d="M81.196,39.169c-2.446,0-4.89,0.255-7.262,0.762c-1.578,0.337-2.584,1.889-2.248,3.467
			c0.337,1.577,1.89,2.583,3.468,2.247c1.972-0.421,4.004-0.634,6.042-0.634c15.881,0,28.805,12.922,28.805,28.805
			c0,6.207-1.944,12.115-5.619,17.089c-0.957,1.297-0.684,3.126,0.614,4.085c0.521,0.386,1.13,0.573,1.733,0.573
			c0.896,0,1.779-0.411,2.353-1.187c4.423-5.985,6.76-13.095,6.76-20.561C115.842,54.711,100.301,39.169,81.196,39.169z"/>
	</g>
</g>
<g>
	<g>
		<path d="M156.693,74.202h-35.281c-1.614,0-2.922,1.309-2.922,2.921c0,1.614,1.308,2.922,2.922,2.922h35.281
			c1.126,0,2.045,0.918,2.045,2.046v3.734h-39.146c-1.612,0-2.921,1.308-2.921,2.921s1.309,2.922,2.921,2.922h39.146v1.972
			c0,1.613,1.307,2.921,2.922,2.921c1.614,0,2.921-1.308,2.921-2.921V82.092C164.581,77.741,161.043,74.202,156.693,74.202z"/>
	</g>
</g>
<g>
	<g>
		<path d="M161.66,125.41c1.614,0,2.921-1.31,2.921-2.922v-14.585c0-5.537-4.505-10.041-10.043-10.041H46.832
			c-4.901,0-8.891-3.981-8.907-8.88v-0.03c0-0.003,0-0.005,0-0.008c0.004-3.492,2.063-6.677,5.248-8.116
			c1.471-0.663,2.125-2.394,1.461-3.864c-0.665-1.47-2.394-2.125-3.865-1.46c-5.277,2.383-8.687,7.662-8.687,13.45
			c0,0.011,0.001,0.02,0.001,0.03v93.5c0,8.135,6.615,14.752,14.749,14.752h107.707c5.538,0,10.043-4.506,10.043-10.044v-19.129
			c0-1.612-1.308-2.921-2.921-2.921c-1.615,0-2.922,1.309-2.922,2.921v19.129c0,2.317-1.885,4.2-4.2,4.2H46.831
			c-4.911,0-8.907-3.996-8.907-8.908v-81.782c2.477,1.883,5.563,3.002,8.907,3.002h107.707c2.316,0,4.2,1.885,4.2,4.2v14.585
			C158.738,124.101,160.045,125.41,161.66,125.41z"/>
	</g>
</g>
<g>
	<g>
		<path d="M162.021,127.739H141.2c-9.669,0-17.535,7.867-17.535,17.536c0,9.668,7.866,17.536,17.535,17.536h5.293
			c1.613,0,2.922-1.309,2.922-2.922s-1.309-2.922-2.922-2.922H141.2c-6.448,0-11.693-5.244-11.693-11.692
			s5.245-11.694,11.693-11.694h20.82c1.235,0,2.239,1.005,2.239,2.24v18.908c0,1.235-1.005,2.238-2.239,2.238h-5.791
			c-1.611,0-2.921,1.309-2.921,2.922s1.31,2.922,2.921,2.922h5.791c4.456,0,8.082-3.626,8.082-8.082v-18.908
			C170.103,131.364,166.477,127.739,162.021,127.739z"/>
	</g>
</g>
<g>
	<g>
		<path d="M140.875,136.509c-4.834,0-8.767,3.933-8.767,8.767c0,4.835,3.933,8.768,8.767,8.768c4.835,0,8.768-3.933,8.768-8.768
			C149.643,140.441,145.709,136.509,140.875,136.509z M140.874,148.199c-1.611,0-2.923-1.312-2.923-2.924
			c0-1.614,1.312-2.924,2.923-2.924c1.613,0,2.926,1.312,2.926,2.924S142.487,148.199,140.874,148.199z"/>
	</g>
</g>
<g>
	<g>
		<path d="M61.557,15.973c-1.614,0-2.921,1.308-2.921,2.921v14.801c0,1.614,1.308,2.922,2.921,2.922
			c1.614,0,2.921-1.308,2.921-2.922V18.894C64.479,17.281,63.171,15.973,61.557,15.973z"/>
	</g>
</g>
<g>
	<g>
		<path d="M76.162,10.13c-1.614,0-2.922,1.308-2.922,2.922v14.801c0,1.614,1.308,2.922,2.922,2.922c1.613,0,2.921-1.308,2.921-2.922
			V13.052C79.083,11.438,77.775,10.13,76.162,10.13z"/>
	</g>
</g>
<text transform="matrix(1 0 0 1 64.4785 92.4492)" font-family="'MyriadPro-Bold'" font-size="59.0602">£</text>
<text transform="matrix(1 0 0 1 106.8115 53.4492)" font-family="'MyriadPro-Bold'" font-size="59.0602">£</text>
</svg>
