<?xml version="1.0" standalone="no"?>
<!DOCTYPE svg PUBLIC "-//W3C//DTD SVG 20010904//EN"
 "http://www.w3.org/TR/2001/REC-SVG-20010904/DTD/svg10.dtd">
<svg version="1.0" xmlns="http://www.w3.org/2000/svg"
 width="512.000000pt" height="512.000000pt" viewBox="0 0 512.000000 512.000000"
 preserveAspectRatio="xMidYMid meet">
<metadata>
Created by potrace 1.11, written by Peter Selinger 2001-2013
</metadata>
<g transform="translate(0.000000,512.000000) scale(0.100000,-0.100000)"
fill="#000000" stroke="none">
<path d="M4975 5106 c-11 -7 -36 -23 -55 -34 -98 -55 -368 -217 -392 -233 -14
-11 -29 -19 -32 -19 -3 0 -47 -25 -98 -56 -51 -31 -106 -65 -123 -74 -34 -19
-373 -221 -480 -285 -38 -23 -191 -114 -340 -202 -148 -88 -405 -241 -570
-339 -165 -98 -309 -184 -320 -190 -11 -5 -177 -104 -370 -219 -373 -222 -491
-292 -515 -305 -8 -5 -96 -57 -195 -116 -99 -59 -183 -109 -187 -111 -8 -4
-17 5 -85 83 -28 32 -64 73 -80 90 -33 36 -123 138 -153 174 -12 14 -36 41
-53 60 -18 19 -66 73 -107 120 -41 47 -79 90 -85 96 -10 11 -96 108 -132 150
-17 20 -95 107 -208 234 -98 109 -170 192 -177 204 -15 22 -8 -10 22 -104 17
-52 30 -101 30 -108 0 -7 4 -20 9 -30 6 -9 47 -141 91 -292 71 -237 99 -331
150 -495 32 -104 182 -602 184 -610 1 -5 15 -50 30 -100 15 -49 30 -96 31
-105 2 -8 13 -42 23 -75 25 -76 75 -237 78 -251 1 -6 16 -58 34 -115 17 -57
47 -156 66 -219 54 -177 55 -179 63 -184 3 -3 36 23 72 57 36 34 115 107 174
162 110 101 208 192 320 297 33 31 70 65 81 75 19 16 206 189 274 253 33 31
233 217 269 249 14 13 80 74 146 135 137 128 206 191 255 236 19 18 64 60 100
94 36 33 108 99 159 146 51 47 111 103 135 125 23 22 84 78 135 125 51 47 110
101 130 120 20 19 86 80 145 135 60 55 125 116 146 135 20 19 86 80 145 135
147 135 158 146 276 255 56 52 111 103 123 113 19 17 157 145 285 265 25 24
86 81 135 125 49 45 109 100 132 122 23 22 84 78 135 125 167 154 204 190 199
190 -3 0 -14 -6 -25 -14z"/>
<path d="M4105 3841 c-3 -6 -10 -9 -14 -6 -5 2 -57 -43 -117 -101 -152 -148
-545 -530 -690 -671 -196 -191 -631 -614 -734 -713 -52 -51 -219 -213 -370
-360 -151 -147 -312 -303 -356 -346 -45 -44 -195 -190 -335 -326 -140 -136
-310 -301 -379 -368 -500 -484 -920 -896 -882 -865 15 12 22 14 22 5 0 -7 14
-2 34 14 19 14 37 26 41 26 3 0 36 19 73 43 63 41 152 97 226 142 18 11 79 49
135 85 57 36 140 88 184 116 100 61 312 194 387 242 83 52 126 80 168 106 20
12 69 43 107 68 39 24 85 53 102 64 18 10 101 62 183 114 83 52 159 99 170
105 11 5 20 13 20 17 0 5 5 8 11 8 5 0 44 23 86 50 42 27 77 50 79 50 3 0 43
25 89 55 47 30 90 55 95 55 6 0 10 4 10 8 0 5 15 16 32 26 43 22 59 32 146 89
40 26 75 47 78 47 3 0 10 5 17 10 11 10 265 170 329 209 15 9 128 79 250 156
122 77 227 142 232 144 6 2 13 7 16 11 3 3 23 17 45 30 55 32 224 139 257 161
15 11 30 19 33 19 6 0 39 -34 165 -171 99 -107 187 -202 255 -274 22 -23 78
-84 125 -135 47 -51 99 -107 115 -125 42 -44 143 -152 260 -279 178 -192 197
-211 190 -191 -4 11 -8 25 -9 30 -3 16 -56 178 -66 200 -4 11 -31 94 -60 185
-29 91 -60 188 -70 215 -19 50 -64 186 -65 195 0 3 -70 214 -154 470 -85 256
-221 667 -302 914 -82 247 -150 451 -153 453 -2 2 -7 -1 -11 -6z"/>
</g>
</svg>
