<?xml version="1.0" encoding="utf-8"?>
<!-- Generator: Adobe Illustrator 16.0.0, SVG Export Plug-In . SVG Version: 6.00 Build 0)  -->
<!DOCTYPE svg PUBLIC "-//W3C//DTD SVG 1.1//EN" "http://www.w3.org/Graphics/SVG/1.1/DTD/svg11.dtd">
<svg version="1.1" id="Слой_1" xmlns="http://www.w3.org/2000/svg" xmlns:xlink="http://www.w3.org/1999/xlink" x="0px" y="0px"
	 width="198.43px" height="198.43px" viewBox="0 0 198.43 198.43" enable-background="new 0 0 198.43 198.43" xml:space="preserve">
<g>
	<g>
		<path d="M124.922,1.195c-19.105,0-34.647,15.542-34.647,34.646c0,1.614,1.308,2.921,2.922,2.921c1.614,0,2.921-1.307,2.921-2.921
			c0-15.882,12.921-28.803,28.804-28.803c15.881,0,28.804,12.92,28.804,28.803c0,15.882-12.923,28.803-28.804,28.803
			c-1.144,0-2.294-0.066-3.419-0.199c-1.6-0.188-3.054,0.956-3.243,2.557c-0.189,1.603,0.957,3.054,2.559,3.244
			c1.351,0.16,2.732,0.241,4.103,0.241c19.104,0,34.646-15.542,34.646-34.646S144.025,1.195,124.922,1.195z"/>
	</g>
</g>
<g>
	<g>
		<path d="M67.41,45.084c-0.83-1.383-2.623-1.832-4.009-1.003c-10.395,6.233-16.853,17.626-16.853,29.733
			c0,7.465,2.338,14.575,6.761,20.561c0.573,0.775,1.457,1.185,2.352,1.185c0.604,0,1.211-0.185,1.734-0.571
			c1.297-0.958,1.572-2.788,0.613-4.085c-3.675-4.974-5.617-10.883-5.617-17.089c0-10.218,5.239-19.46,14.015-24.723
			C67.791,48.262,68.239,46.467,67.41,45.084z"/>
	</g>
</g>
<g>
	<g>
		<path d="M81.196,39.169c-2.446,0-4.89,0.255-7.262,0.762c-1.578,0.337-2.584,1.889-2.248,3.467
			c0.337,1.577,1.89,2.583,3.468,2.247c1.972-0.421,4.004-0.634,6.042-0.634c15.881,0,28.805,12.922,28.805,28.805
			c0,6.207-1.944,12.115-5.619,17.089c-0.957,1.297-0.684,3.126,0.614,4.085c0.521,0.386,1.13,0.573,1.733,0.573
			c0.896,0,1.779-0.411,2.353-1.187c4.423-5.985,6.76-13.095,6.76-20.561C115.842,54.711,100.301,39.169,81.196,39.169z"/>
	</g>
</g>
<g>
	<g>
		<path d="M156.693,74.202h-35.281c-1.614,0-2.922,1.309-2.922,2.921c0,1.614,1.308,2.922,2.922,2.922h35.281
			c1.126,0,2.045,0.918,2.045,2.046v3.734h-39.146c-1.612,0-2.921,1.308-2.921,2.921s1.309,2.922,2.921,2.922h39.146v1.972
			c0,1.613,1.307,2.921,2.922,2.921c1.614,0,2.921-1.308,2.921-2.921V82.092C164.581,77.741,161.043,74.202,156.693,74.202z"/>
	</g>
</g>
<g>
	<g>
		<path d="M161.66,125.41c1.614,0,2.921-1.31,2.921-2.922v-14.585c0-5.537-4.505-10.041-10.043-10.041H46.832
			c-4.901,0-8.891-3.981-8.907-8.88v-0.03c0-0.003,0-0.005,0-0.008c0.004-3.492,2.063-6.677,5.248-8.116
			c1.471-0.663,2.125-2.394,1.461-3.864c-0.665-1.47-2.394-2.125-3.865-1.46c-5.277,2.383-8.687,7.662-8.687,13.45
			c0,0.011,0.001,0.02,0.001,0.03v93.5c0,8.135,6.615,14.752,14.749,14.752h107.707c5.538,0,10.043-4.506,10.043-10.044v-19.129
			c0-1.612-1.308-2.921-2.921-2.921c-1.615,0-2.922,1.309-2.922,2.921v19.129c0,2.317-1.885,4.2-4.2,4.2H46.831
			c-4.911,0-8.907-3.996-8.907-8.908v-81.782c2.477,1.883,5.563,3.002,8.907,3.002h107.707c2.316,0,4.2,1.885,4.2,4.2v14.585
			C158.738,124.101,160.045,125.41,161.66,125.41z"/>
	</g>
</g>
<g>
	<g>
		<path d="M162.021,127.739H141.2c-9.669,0-17.535,7.867-17.535,17.536c0,9.668,7.866,17.536,17.535,17.536h5.293
			c1.613,0,2.922-1.309,2.922-2.922s-1.309-2.922-2.922-2.922H141.2c-6.448,0-11.693-5.244-11.693-11.692
			s5.245-11.694,11.693-11.694h20.82c1.235,0,2.239,1.005,2.239,2.24v18.908c0,1.235-1.005,2.238-2.239,2.238h-5.791
			c-1.611,0-2.921,1.309-2.921,2.922s1.31,2.922,2.921,2.922h5.791c4.456,0,8.082-3.626,8.082-8.082v-18.908
			C170.103,131.364,166.477,127.739,162.021,127.739z"/>
	</g>
</g>
<g>
	<g>
		<path d="M140.875,136.509c-4.834,0-8.767,3.933-8.767,8.767c0,4.835,3.933,8.768,8.767,8.768c4.835,0,8.768-3.933,8.768-8.768
			C149.643,140.441,145.709,136.509,140.875,136.509z M140.874,148.199c-1.611,0-2.923-1.312-2.923-2.924
			c0-1.614,1.312-2.924,2.923-2.924c1.613,0,2.926,1.312,2.926,2.924S142.487,148.199,140.874,148.199z"/>
	</g>
</g>
<g>
	<g>
		<path d="M61.557,15.973c-1.614,0-2.921,1.308-2.921,2.921v14.801c0,1.614,1.308,2.922,2.921,2.922
			c1.614,0,2.921-1.308,2.921-2.922V18.894C64.479,17.281,63.171,15.973,61.557,15.973z"/>
	</g>
</g>
<g>
	<g>
		<path d="M76.162,10.13c-1.614,0-2.922,1.308-2.922,2.922v14.801c0,1.614,1.308,2.922,2.922,2.922c1.613,0,2.921-1.308,2.921-2.922
			V13.052C79.083,11.438,77.775,10.13,76.162,10.13z"/>
	</g>
</g>
<g>
	<g id="XMLID_13_">
		<g id="XMLID_14_">
			<path id="XMLID_18_" d="M86.161,75.695l6.599,4.947l1.639-2.186c0.917-1.222,0.669-2.956-0.554-3.873l-4.386-3.288l8.234-10.984
				c0.917-1.222,0.669-2.956-0.554-3.873L94.954,54.8l-9.894,13.198C83.238,70.428,83.731,73.874,86.161,75.695L86.161,75.695z"/>
			<path id="XMLID_17_" d="M85.061,67.998c-1.822,2.43-1.329,5.875,1.101,7.697l0,0l6.599,4.947l-2.2-1.649l0,0
				c-2.429-1.821-2.922-5.267-1.101-7.697l0,0l8.234-10.984c0.917-1.222,0.669-2.956-0.554-3.872L94.954,54.8L85.061,67.998z"/>
			<path id="XMLID_16_" d="M93.987,60.947l-6.597,8.798l0,0c-1.82,2.429-1.328,5.875,1.102,7.697l0,0l1.166,0.874l3.102,2.326
				l-2.2-1.649l0,0c-2.429-1.821-2.922-5.267-1.101-7.697l0,0l8.234-10.984c0.917-1.222,0.669-2.956-0.554-3.872L94.954,54.8
				l-0.387,0.516C95.398,57.096,95.248,59.265,93.987,60.947z"/>
			<path id="XMLID_15_" d="M89.459,71.295L89.459,71.295c-1.821,2.43-1.328,5.876,1.101,7.697l0,0l2.2,1.649l1.64-2.186
				c0.916-1.222,0.668-2.956-0.555-3.873L89.459,71.295z"/>
		</g>
	</g>
</g>
<g>
	<g id="XMLID_19_">
		<g id="XMLID_20_">
			<path id="XMLID_24_" d="M78.303,78.24l-4.934,6.608l2.188,1.635c1.225,0.913,2.958,0.662,3.872-0.563l3.278-4.392l11.001,8.212
				c1.225,0.914,2.958,0.662,3.871-0.562l1.635-2.189l-13.218-9.867C83.564,75.307,80.119,75.807,78.303,78.24L78.303,78.24z"/>
			<path id="XMLID_23_" d="M85.997,77.124c-2.433-1.816-5.878-1.316-7.694,1.117l0,0l-4.934,6.608l1.645-2.203l0,0
				c1.816-2.434,5.262-2.934,7.694-1.117l0,0l11.001,8.212c1.225,0.914,2.958,0.662,3.871-0.562l1.635-2.189L85.997,77.124z"/>
			<path id="XMLID_22_" d="M93.066,86.037l-8.813-6.579l0,0c-2.433-1.816-5.878-1.316-7.694,1.117l0,0l-0.872,1.167l-2.318,3.106
				l1.645-2.203l0,0c1.816-2.434,5.262-2.934,7.694-1.117l0,0l11.001,8.212c1.225,0.914,2.958,0.662,3.871-0.562l1.635-2.189
				l-0.517-0.386C96.92,87.44,94.751,87.293,93.066,86.037z"/>
			<path id="XMLID_21_" d="M82.708,81.529L82.708,81.529c-2.433-1.817-5.878-1.316-7.694,1.117l0,0l-1.645,2.203l2.188,1.635
				c1.225,0.913,2.958,0.662,3.872-0.563L82.708,81.529z"/>
		</g>
	</g>
</g>
<g>
	<g id="XMLID_25_">
		<g id="XMLID_26_">
			<path id="XMLID_30_" d="M84.11,67.365l4.776-6.723l-2.228-1.583c-1.245-0.885-2.972-0.593-3.856,0.653l-3.175,4.468
				l-11.191-7.951c-1.245-0.885-2.972-0.593-3.856,0.653l-1.583,2.227l13.446,9.553C78.919,70.421,82.352,69.84,84.11,67.365
				L84.11,67.365z"/>
			<path id="XMLID_29_" d="M76.443,68.663c2.476,1.759,5.908,1.178,7.667-1.298l0,0l4.776-6.723l-1.592,2.241l0,0
				c-1.759,2.476-5.191,3.057-7.666,1.298l0,0l-11.192-7.951c-1.245-0.885-2.972-0.593-3.856,0.653l-1.583,2.227L76.443,68.663z"/>
			<path id="XMLID_28_" d="M69.167,59.919l8.964,6.369l0,0c2.476,1.759,5.908,1.178,7.667-1.297l0,0l0.844-1.188l2.245-3.16
				l-1.592,2.241l0,0c-1.759,2.475-5.191,3.056-7.667,1.297l0,0l-11.191-7.951c-1.245-0.885-2.972-0.593-3.856,0.653l-1.583,2.227
				l0.526,0.374C65.281,58.606,67.453,58.701,69.167,59.919z"/>
			<path id="XMLID_27_" d="M79.628,64.181L79.628,64.181c2.476,1.759,5.908,1.178,7.667-1.298l0,0l1.592-2.241l-2.228-1.583
				c-1.245-0.885-2.972-0.593-3.856,0.653L79.628,64.181z"/>
		</g>
	</g>
</g>
<g>
	<g id="XMLID_7_">
		<g id="XMLID_8_">
			<path id="XMLID_12_" d="M75.396,69.966l-6.719-4.783l-1.585,2.226c-0.886,1.245-0.595,2.971,0.649,3.857l4.465,3.179
				l-7.961,11.183c-0.887,1.245-0.596,2.972,0.648,3.857l2.227,1.585l9.565-13.437C78.447,75.16,77.87,71.727,75.396,69.966
				L75.396,69.966z"/>
			<path id="XMLID_11_" d="M76.687,77.634c1.761-2.474,1.184-5.907-1.29-7.668l0,0l-6.719-4.783l2.239,1.594l0,0
				c2.474,1.761,3.052,5.194,1.29,7.668l0,0l-7.961,11.183c-0.887,1.245-0.596,2.972,0.648,3.857l2.227,1.585L76.687,77.634z"/>
			<path id="XMLID_10_" d="M67.936,84.902l6.378-8.958l0,0c1.761-2.474,1.183-5.907-1.291-7.667l0,0l-1.187-0.845l-3.158-2.248
				l2.239,1.595l0,0c2.474,1.761,3.052,5.193,1.29,7.667l0,0l-7.961,11.183c-0.887,1.245-0.596,2.972,0.648,3.857l2.227,1.585
				l0.374-0.525C66.619,88.787,66.717,86.615,67.936,84.902z"/>
			<path id="XMLID_9_" d="M72.207,74.445L72.207,74.445c1.762-2.474,1.184-5.907-1.29-7.667l0,0l-2.239-1.595l-1.585,2.226
				c-0.886,1.245-0.595,2.971,0.649,3.857L72.207,74.445z"/>
		</g>
	</g>
</g>
<g>
	<g id="XMLID_43_">
		<g id="XMLID_44_">
			<path id="XMLID_48_" d="M131.051,38.602l6.6,4.947l1.639-2.187c0.916-1.222,0.668-2.956-0.555-3.872l-4.385-3.289l8.234-10.984
				c0.916-1.222,0.668-2.956-0.555-3.873l-2.186-1.639l-9.893,13.198C128.129,33.334,128.621,36.779,131.051,38.602L131.051,38.602z
				"/>
			<path id="XMLID_47_" d="M129.951,30.904c-1.822,2.43-1.33,5.875,1.1,7.697l0,0l6.6,4.947l-2.201-1.65l0,0
				c-2.428-1.82-2.922-5.267-1.1-7.697l0,0l8.234-10.984c0.916-1.222,0.668-2.956-0.555-3.872l-2.186-1.639L129.951,30.904z"/>
			<path id="XMLID_46_" d="M138.877,23.854l-6.596,8.798l0,0c-1.82,2.429-1.328,5.875,1.102,7.697l0,0l1.166,0.874l3.102,2.326
				l-2.201-1.65l0,0c-2.428-1.82-2.922-5.267-1.1-7.697l0,0l8.234-10.984c0.916-1.222,0.668-2.956-0.555-3.872l-2.186-1.639
				l-0.387,0.516C140.289,20.002,140.139,22.171,138.877,23.854z"/>
			<path id="XMLID_45_" d="M134.35,34.202L134.35,34.202c-1.822,2.429-1.328,5.876,1.1,7.697l0,0l2.201,1.65l1.639-2.187
				c0.916-1.222,0.668-2.956-0.555-3.872L134.35,34.202z"/>
		</g>
	</g>
</g>
<g>
	<g id="XMLID_37_">
		<g id="XMLID_38_">
			<path id="XMLID_42_" d="M123.193,41.146l-4.934,6.608l2.188,1.636c1.225,0.912,2.959,0.662,3.873-0.563l3.277-4.393l11.002,8.213
				c1.225,0.914,2.957,0.662,3.871-0.563l1.635-2.189l-13.219-9.867C128.455,38.213,125.01,38.713,123.193,41.146L123.193,41.146z"
				/>
			<path id="XMLID_41_" d="M130.887,40.029c-2.432-1.816-5.877-1.316-7.693,1.117l0,0l-4.934,6.608l1.645-2.202l0,0
				c1.816-2.434,5.262-2.934,7.693-1.117l0,0l11.002,8.213c1.225,0.914,2.957,0.662,3.871-0.563l1.635-2.189L130.887,40.029z"/>
			<path id="XMLID_40_" d="M137.957,48.943l-8.813-6.579l0,0c-2.434-1.816-5.879-1.316-7.695,1.117l0,0l-0.871,1.167l-2.318,3.106
				l1.645-2.202l0,0c1.816-2.434,5.262-2.934,7.693-1.117l0,0l11.002,8.213c1.225,0.914,2.957,0.662,3.871-0.563l1.635-2.189
				l-0.518-0.385C141.811,50.346,139.641,50.199,137.957,48.943z"/>
			<path id="XMLID_39_" d="M127.598,44.436L127.598,44.436c-2.432-1.816-5.877-1.316-7.693,1.117l0,0l-1.645,2.202l2.188,1.636
				c1.225,0.912,2.959,0.662,3.873-0.563L127.598,44.436z"/>
		</g>
	</g>
</g>
<g>
	<g id="XMLID_31_">
		<g id="XMLID_32_">
			<path id="XMLID_36_" d="M129,30.271l4.777-6.723l-2.229-1.583c-1.244-0.885-2.971-0.593-3.855,0.653l-3.176,4.468l-11.191-7.951
				c-1.244-0.885-2.971-0.593-3.855,0.653l-1.584,2.227l13.447,9.553C123.809,33.328,127.242,32.747,129,30.271L129,30.271z"/>
			<path id="XMLID_35_" d="M121.334,31.569c2.475,1.759,5.908,1.178,7.666-1.298l0,0l4.777-6.723l-1.592,2.241l0,0
				c-1.76,2.476-5.191,3.057-7.666,1.298l0,0l-11.193-7.951c-1.244-0.885-2.971-0.593-3.855,0.653l-1.584,2.227L121.334,31.569z"/>
			<path id="XMLID_34_" d="M114.057,22.825l8.965,6.369l0,0c2.475,1.759,5.908,1.178,7.666-1.297l0,0l0.844-1.188l2.246-3.16
				l-1.592,2.241l0,0c-1.76,2.475-5.191,3.056-7.668,1.297l0,0l-11.191-7.951c-1.244-0.885-2.971-0.593-3.855,0.653l-1.584,2.227
				l0.527,0.374C110.172,21.512,112.344,21.607,114.057,22.825z"/>
			<path id="XMLID_33_" d="M124.518,27.087L124.518,27.087c2.477,1.759,5.908,1.178,7.668-1.298l0,0l1.592-2.241l-2.229-1.583
				c-1.244-0.885-2.971-0.593-3.855,0.653L124.518,27.087z"/>
		</g>
	</g>
</g>
<g>
	<g id="XMLID_1_">
		<g id="XMLID_2_">
			<path id="XMLID_6_" d="M120.287,32.872l-6.719-4.783l-1.586,2.226c-0.885,1.245-0.594,2.971,0.65,3.857l4.465,3.179
				l-7.961,11.184c-0.887,1.244-0.596,2.971,0.648,3.857l2.227,1.584l9.564-13.437C123.338,38.066,122.76,34.633,120.287,32.872
				L120.287,32.872z"/>
			<path id="XMLID_5_" d="M121.576,40.54c1.762-2.474,1.184-5.907-1.289-7.668l0,0l-6.719-4.783l2.238,1.594l0,0
				c2.475,1.761,3.053,5.194,1.291,7.668l0,0l-7.961,11.184c-0.887,1.244-0.596,2.971,0.648,3.857l2.227,1.584L121.576,40.54z"/>
			<path id="XMLID_4_" d="M112.826,47.809l6.377-8.959l0,0c1.762-2.473,1.184-5.906-1.291-7.667l0,0l-1.186-0.845l-3.158-2.248
				l2.238,1.595l0,0c2.475,1.761,3.053,5.193,1.291,7.667l0,0l-7.961,11.184c-0.887,1.244-0.596,2.971,0.648,3.857l2.227,1.584
				l0.373-0.525C111.51,51.693,111.607,49.521,112.826,47.809z"/>
			<path id="XMLID_3_" d="M117.098,37.352L117.098,37.352c1.762-2.474,1.184-5.907-1.291-7.667l0,0l-2.238-1.595l-1.586,2.226
				c-0.885,1.245-0.594,2.971,0.65,3.857L117.098,37.352z"/>
		</g>
	</g>
</g>
</svg>
