<?xml version="1.0" encoding="utf-8"?>
<!-- Generator: Adobe Illustrator 16.0.0, SVG Export Plug-In . SVG Version: 6.00 Build 0)  -->
<!DOCTYPE svg PUBLIC "-//W3C//DTD SVG 1.1//EN" "http://www.w3.org/Graphics/SVG/1.1/DTD/svg11.dtd">
<svg version="1.1" xmlns="http://www.w3.org/2000/svg" xmlns:xlink="http://www.w3.org/1999/xlink" x="0px" y="0px"
	 width="198.43px" height="198.43px" viewBox="0 0 198.43 198.43" enable-background="new 0 0 198.43 198.43" xml:space="preserve">
<g id="Слой_1">
</g>
<g id="Слой_2">
	<g>
		<g id="XMLID_13_">
			<g id="XMLID_14_">
				<path id="XMLID_18_" d="M126.426,114.602l35.559,26.659l8.832-11.779c4.938-6.588,3.602-15.93-2.985-20.867l-23.633-17.717
					l44.373-59.192c4.939-6.586,3.603-15.929-2.983-20.867l-11.78-8.831l-53.315,71.114
					C110.676,86.217,113.335,104.787,126.426,114.602L126.426,114.602z"/>
				<path id="XMLID_17_" d="M120.492,73.122c-9.814,13.095-7.157,31.665,5.934,41.479l0,0l35.559,26.659l-11.854-8.887l0,0
					c-13.092-9.816-15.75-28.387-5.933-41.477l0,0l44.373-59.19c4.939-6.588,3.603-15.93-2.983-20.868l-11.78-8.831L120.492,73.122z
					"/>
				<path id="XMLID_16_" d="M168.599,35.134l-35.544,47.41l0,0c-9.815,13.09-7.158,31.664,5.934,41.478l0,0l6.282,4.71
					l16.714,12.529l-11.854-8.887l0,0c-13.092-9.816-15.75-28.387-5.933-41.477l0,0l44.373-59.19
					c4.939-6.588,3.603-15.93-2.983-20.868l-11.78-8.831l-2.084,2.781C176.206,14.382,175.393,26.068,168.599,35.134z"/>
				<path id="XMLID_15_" d="M144.198,90.897L144.198,90.897c-9.814,13.09-7.158,31.661,5.933,41.477l0,0l11.854,8.887l8.831-11.779
					c4.939-6.588,3.602-15.93-2.985-20.867L144.198,90.897z"/>
			</g>
		</g>
	</g>
	<g>
		<g id="XMLID_19_">
			<g id="XMLID_20_">
				<path id="XMLID_24_" d="M84.079,128.315l-26.586,35.616l11.796,8.807c6.597,4.928,15.937,3.569,20.863-3.026l17.67-23.67
					l59.279,44.256c6.598,4.923,15.938,3.568,20.861-3.03l8.807-11.795l-71.225-53.172
					C112.432,112.509,93.866,115.207,84.079,128.315L84.079,128.315z"/>
				<path id="XMLID_23_" d="M125.544,122.301c-13.112-9.792-31.678-7.094-41.465,6.015l0,0l-26.586,35.616l8.861-11.872l0,0
					c9.79-13.114,28.354-15.807,41.468-6.018l0,0l59.279,44.256c6.598,4.923,15.938,3.568,20.861-3.03l8.807-11.795L125.544,122.301
					z"/>
				<path id="XMLID_22_" d="M163.635,170.327l-47.483-35.442l0,0c-13.111-9.792-31.677-7.097-41.466,6.014l0,0l-4.696,6.293
					l-12.496,16.74l8.861-11.872l0,0c9.79-13.114,28.354-15.807,41.468-6.018l0,0l59.279,44.256
					c6.598,4.923,15.938,3.568,20.861-3.03l8.807-11.795l-2.785-2.081C184.402,177.896,172.711,177.105,163.635,170.327z"/>
				<path id="XMLID_21_" d="M107.821,146.042L107.821,146.042c-13.113-9.789-31.678-7.092-41.468,6.018l0,0l-8.861,11.872
					l11.796,8.807c6.597,4.928,15.937,3.569,20.863-3.026L107.821,146.042z"/>
			</g>
		</g>
	</g>
	<g>
		<g id="XMLID_25_">
			<g id="XMLID_26_">
				<path id="XMLID_30_" d="M115.373,69.714l25.74-36.227l-12-8.528c-6.71-4.769-16.017-3.194-20.785,3.517L91.223,52.555
					L30.914,9.709c-6.711-4.768-16.016-3.192-20.784,3.518L1.604,25.229L74.062,76.71C87.402,86.187,105.897,83.056,115.373,69.714
					L115.373,69.714z"/>
				<path id="XMLID_29_" d="M74.062,76.71c13.34,9.477,31.835,6.346,41.311-6.996l0,0l25.74-36.227l-8.579,12.076l0,0
					c-9.475,13.339-27.973,16.47-41.312,6.992l0,0L30.914,9.709c-6.711-4.768-16.016-3.192-20.784,3.518L1.604,25.229L74.062,76.71z
					"/>
				<path id="XMLID_28_" d="M34.85,29.592l48.305,34.32l0,0c13.34,9.475,31.837,6.344,41.313-6.995l0,0l4.547-6.4l12.099-17.029
					l-8.579,12.078l0,0c-9.477,13.337-27.973,16.468-41.312,6.991l0,0L30.914,9.709c-6.711-4.768-16.016-3.192-20.784,3.518
					L1.604,25.229l2.833,2.012C13.912,22.514,25.615,23.03,34.85,29.592z"/>
				<path id="XMLID_27_" d="M91.223,52.555L91.223,52.555c13.339,9.478,31.835,6.347,41.312-6.992l0,0l8.579-12.076l-12-8.528
					c-6.71-4.769-16.017-3.194-20.785,3.517L91.223,52.555z"/>
			</g>
		</g>
	</g>
	<g>
		<g id="XMLID_7_">
			<g id="XMLID_8_">
				<path id="XMLID_12_" d="M68.417,83.732L32.213,57.958l-8.539,11.991c-4.775,6.708-3.208,16.014,3.499,20.786l24.061,17.133
					L8.332,168.135c-4.776,6.703-3.208,16.015,3.497,20.786l11.996,8.538l51.547-72.411C84.861,111.722,81.749,93.219,68.417,83.732
					L68.417,83.732z"/>
				<path id="XMLID_11_" d="M75.371,125.048c9.49-13.326,6.378-31.829-6.954-41.316l0,0L32.213,57.958l12.069,8.593l0,0
					c13.33,9.487,16.442,27.988,6.952,41.317l0,0L8.332,168.135c-4.776,6.703-3.208,16.015,3.497,20.786l11.996,8.538
					L75.371,125.048z"/>
				<path id="XMLID_10_" d="M28.215,164.217l34.365-48.272l0,0c9.491-13.33,6.377-31.832-6.954-41.318l0,0l-6.394-4.55
					l-17.02-12.118l12.069,8.593l0,0c13.33,9.487,16.442,27.988,6.952,41.317l0,0L8.332,168.135
					c-4.776,6.703-3.208,16.015,3.497,20.786l11.996,8.538l2.016-2.83C21.12,185.149,21.646,173.445,28.215,164.217z"/>
				<path id="XMLID_9_" d="M51.234,107.868L51.234,107.868c9.491-13.329,6.376-31.831-6.952-41.317l0,0l-12.069-8.593l-8.539,11.991
					c-4.775,6.708-3.208,16.014,3.499,20.79L51.234,107.868z"/>
			</g>
		</g>
	</g>
</g>
</svg>
