<?xml version="1.0" encoding="UTF-8"?>
<svg version="1.1" xmlns="http://www.w3.org/2000/svg" xmlns:xlink="http://www.w3.org/1999/xlink">
<defs>
<clipPath id="clip0"><path fill="#fff" d="M0 0h41v41H0z"/></clipPath>
<clipPath id="clip0"><path fill="#fff" d="M0 0h41v41H0z"/></clipPath>
</defs>
<symbol id="i-email-letter" xmlns="http://www.w3.org/2000/svg" viewBox="0 0 511.991 511.991"><path d="M511.991 196.243c0-.179-.094-.333-.102-.503a8.146 8.146 0 0 0-.35-1.741 8.824 8.824 0 0 0-.486-1.476 8.236 8.236 0 0 0-.853-1.28 8.38 8.38 0 0 0-1.161-1.348c-.137-.12-.196-.282-.341-.393l-82.039-63.735V59.71c0-14.138-11.462-25.6-25.6-25.6h-92.476L271.556 5.361a25.319 25.319 0 0 0-31.121 0L203.401 34.11h-92.476c-14.138 0-25.6 11.461-25.6 25.6v66.057L3.294 189.502c-.145.111-.205.273-.341.393a8.38 8.38 0 0 0-1.161 1.348c-.324.399-.61.828-.853 1.28-.207.476-.37.97-.486 1.476a8.087 8.087 0 0 0-.35 1.707c0 .171-.102.324-.102.503v290.167a25.294 25.294 0 0 0 1.425 8.064 8.456 8.456 0 0 0 9.387 12.8 25.415 25.415 0 0 0 14.78 4.736h460.8a25.427 25.427 0 0 0 14.822-4.804 8.378 8.378 0 0 0 2.244.367 8.456 8.456 0 0 0 7.117-13.098 25.318 25.318 0 0 0 1.417-8.064V196.243zM250.871 18.827a8.182 8.182 0 0 1 10.18 0l19.686 15.283h-49.493l19.627-15.283zM27.708 494.91l223.164-173.346a8.209 8.209 0 0 1 10.172 0L484.275 494.91H27.708zm467.217-13.329L271.539 308.09a25.309 25.309 0 0 0-31.095 0L17.058 481.581V209.239l139.836 108.587a8.536 8.536 0 0 0 11.977-1.515 8.536 8.536 0 0 0-1.515-11.977L25.293 194.016l60.032-46.643v65.937a8.533 8.533 0 0 0 17.066 0V59.71a8.533 8.533 0 0 1 8.533-8.533h290.133a8.533 8.533 0 0 1 8.533 8.533v153.6a8.533 8.533 0 0 0 17.066 0v-65.937l60.032 46.643-142.317 110.515a8.536 8.536 0 0 0 10.471 13.483L494.925 209.24v272.341z" data-original="#000000" class="active-path" data-old_color="#552A2A" fill="#463192"/><path d="M170.658 110.91h170.667c4.713 0 8.533-3.82 8.533-8.533s-3.82-8.533-8.533-8.533H170.658c-4.713 0-8.533 3.82-8.533 8.533s3.82 8.533 8.533 8.533zM349.858 153.577a8.533 8.533 0 0 0-8.533-8.533H170.658a8.533 8.533 0 0 0 0 17.066h170.667a8.533 8.533 0 0 0 8.533-8.533zM349.858 204.777a8.533 8.533 0 0 0-8.533-8.533h-76.8c-4.713 0-8.533 3.82-8.533 8.533s3.82 8.533 8.533 8.533h76.8a8.533 8.533 0 0 0 8.533-8.533z" data-original="#000000" class="active-path" data-old_color="#552A2A" fill="#463192"/></symbol>
<symbol id="i-exchange" viewBox="0 0 42 42" fill="none" xmlns="http://www.w3.org/2000/svg"><path d="M40.429 11.37c0 5.43-4.402 9.83-9.832 9.83-5.43 0-9.831-4.4-9.831-9.83s4.401-9.832 9.831-9.832 9.832 4.401 9.832 9.831zM21.235 30.598c0 5.43-4.402 9.832-9.832 9.832-5.43 0-9.832-4.402-9.832-9.832 0-5.43 4.402-9.831 9.832-9.831 5.43 0 9.832 4.401 9.832 9.831z" stroke="#463192" stroke-width="1.5"/><path d="M31.293 5.994v.1l.096.022c1.42.33 2.465 1.523 2.465 2.929a.695.695 0 1 1-1.39 0c0-.631-.411-1.17-.994-1.44l-.177-.082v3.22l.096.022c1.42.33 2.465 1.523 2.465 2.928 0 1.406-1.045 2.599-2.465 2.93l-.096.022V17.074a.695.695 0 1 1-1.391 0V16.644l-.097-.022c-1.42-.33-2.464-1.523-2.464-2.929a.695.695 0 0 1 1.39 0c0 .631.411 1.17.993 1.44l.178.082v-3.22l-.097-.022c-1.42-.33-2.464-1.523-2.464-2.928 0-1.406 1.044-2.599 2.464-2.93l.097-.022V5.754a.695.695 0 1 1 1.39 0v.24zm-1.39 1.725v-.196l-.178.082c-.583.27-.994.809-.994 1.44 0 .63.411 1.169.993 1.439l.178.082V7.72zm1.39 7.3v.196l.177-.083c.583-.27.993-.808.993-1.439 0-.63-.41-1.169-.993-1.44l-.177-.082V15.02zM9.227 35.683v-.126H8.04a.695.695 0 1 1 0-1.39H8.325v-7.14H8.04a.695.695 0 1 1 0-1.391h1.187v-.723a.695.695 0 0 1 1.391 0v.723h.824v-.723a.695.695 0 0 1 1.39 0v.878l.081.031a2.833 2.833 0 0 1 1.821 2.642 2.82 2.82 0 0 1-.875 2.043l-.095.09.095.09a2.82 2.82 0 0 1 .875 2.043 2.832 2.832 0 0 1-1.82 2.642l-.081.03v.84a.695.695 0 0 1-1.39 0v-.684h-.825v.685a.695.695 0 0 1-1.39 0v-.56zm.489-1.641v.125h2.19a1.439 1.439 0 0 0 0-2.875h-2.19v2.75zm0-4.266v.125h2.19c.793 0 1.437-.644 1.437-1.437s-.644-1.437-1.437-1.437h-2.19v2.749z" fill="#463192" stroke="#463192" stroke-width=".25"/><path d="M4.697 16.303a.818.818 0 0 0 1.16 0l1.306-1.306a.82.82 0 0 0-1.092-1.22V6.07h9.153a.82.82 0 1 0 0-1.64H5.25a.82.82 0 0 0-.82.82v8.488a.82.82 0 0 0-1.04 1.26l1.306 1.306zM37.303 25.696a.82.82 0 0 0-1.16 0l-1.306 1.306a.82.82 0 0 0 1.092 1.22v7.707h-9.153a.82.82 0 1 0 0 1.64h9.974a.82.82 0 0 0 .82-.82V28.26a.818.818 0 0 0 1.04-.1.82.82 0 0 0 0-1.16l-1.307-1.305z" fill="#463192"/></symbol>
<symbol id="i-exchange-hover" viewBox="0 0 42 42" fill="none" xmlns="http://www.w3.org/2000/svg"><path d="M30.598 21.95c5.844 0 10.581-4.737 10.581-10.58C41.18 5.524 36.442.786 30.597.786c-5.844 0-10.581 4.738-10.581 10.582s4.737 10.582 10.582 10.582z" fill="#463192"/><path d="M30.597 19.403a8.034 8.034 0 1 0 0-16.068 8.034 8.034 0 0 0 0 16.068zM11.403 41.18c5.844 0 10.581-4.738 10.581-10.582s-4.737-10.581-10.581-10.581C5.559 20.017.82 24.754.82 30.598c0 5.844 4.738 10.582 10.582 10.582z" fill="#463192"/><path d="M11.403 38.632a8.034 8.034 0 1 0 0-16.068 8.034 8.034 0 0 0 0 16.068z" fill="#463192"/><path d="M31.293 5.994v.1l.096.022c1.42.33 2.465 1.523 2.465 2.929a.695.695 0 1 1-1.39 0c0-.631-.411-1.17-.994-1.44l-.177-.082v3.22l.096.022c1.42.33 2.465 1.523 2.465 2.928 0 1.406-1.045 2.599-2.465 2.93l-.096.022V17.074a.695.695 0 1 1-1.391 0V16.644l-.097-.022c-1.42-.33-2.464-1.523-2.464-2.929a.695.695 0 0 1 1.39 0c0 .631.411 1.17.993 1.44l.178.082v-3.22l-.097-.022c-1.42-.33-2.464-1.523-2.464-2.928 0-1.406 1.044-2.599 2.464-2.93l.097-.022V5.754a.695.695 0 1 1 1.39 0v.24zm-1.39 1.725v-.196l-.178.082c-.583.27-.994.809-.994 1.44 0 .63.411 1.169.993 1.439l.178.082V7.72zm1.39 7.3v.196l.177-.083c.583-.27.993-.808.993-1.439 0-.63-.41-1.169-.993-1.44l-.177-.082V15.02zM9.227 35.683v-.125H8.04a.695.695 0 1 1 0-1.39H8.325v-7.141H8.04a.695.695 0 1 1 0-1.39h1.187v-.724a.695.695 0 0 1 1.391 0v.723h.824v-.723a.695.695 0 0 1 1.39 0v.878l.081.031a2.833 2.833 0 0 1 1.821 2.642c0 .802-.336 1.527-.875 2.043l-.095.09.095.09c.539.516.875 1.24.875 2.043a2.832 2.832 0 0 1-1.82 2.642l-.081.03v.84a.695.695 0 0 1-1.39 0v-.684h-.825v.685a.695.695 0 0 1-1.39 0v-.56zm.489-1.641v.125h2.19c.792 0 1.437-.645 1.437-1.437 0-.793-.644-1.438-1.437-1.438h-2.19v2.75zm0-4.266v.125h2.19c.793 0 1.437-.644 1.437-1.437s-.644-1.437-1.437-1.437h-2.19v2.749z" fill="#fff" stroke="#463192" stroke-width=".25"/><path d="M4.697 16.303a.818.818 0 0 0 1.16 0l1.306-1.306a.82.82 0 0 0-1.092-1.22V6.07h9.152a.82.82 0 0 0 0-1.64H5.25a.82.82 0 0 0-.82.82v8.488a.82.82 0 0 0-1.04 1.26l1.307 1.306zM37.303 25.696a.82.82 0 0 0-1.16 0l-1.306 1.306a.82.82 0 0 0 1.092 1.22v7.707h-9.153a.82.82 0 0 0 0 1.64h9.973a.82.82 0 0 0 .82-.82V28.26a.82.82 0 0 0 1.04-1.26l-1.306-1.305z" fill="#463192"/></symbol>
<symbol id="i-faq" viewBox="0 0 41 41" fill="none" xmlns="http://www.w3.org/2000/svg"><path d="M40.25 20.5c0 10.908-8.842 19.75-19.75 19.75S.75 31.408.75 20.5 9.592.75 20.5.75 40.25 9.592 40.25 20.5z" stroke="#463192" stroke-width="1.5"/><path d="M20.5 29.611v1.139M15.944 15.102c0-2.702 2.075-4.89 4.62-4.851 2.42.036 4.457 2.205 4.491 4.783.023 1.74-.815 3.274-2.089 4.15-1.585 1.088-2.466 3.032-2.466 5.04v1.97" stroke="#463192" stroke-width="2" stroke-miterlimit="10" stroke-linecap="round"/></symbol>
<symbol id="i-faq-hover" viewBox="0 0 41 41" fill="none" xmlns="http://www.w3.org/2000/svg"><path d="M40.25 20.5c0 10.908-8.842 19.75-19.75 19.75S.75 31.408.75 20.5 9.592.75 20.5.75 40.25 9.592 40.25 20.5z" fill="#463192" stroke="#463192" stroke-width="1.5"/><path d="M20.5 29.611v1.139M15.944 15.102c0-2.702 2.075-4.89 4.62-4.851 2.42.036 4.457 2.205 4.491 4.783.023 1.74-.815 3.274-2.089 4.15-1.585 1.088-2.466 3.032-2.466 5.04v1.97" stroke="#fff" stroke-width="2" stroke-miterlimit="10" stroke-linecap="round"/></symbol>
<symbol id="i-history" viewBox="0 0 41 41" fill="none" xmlns="http://www.w3.org/2000/svg"><path d="M38.038 32.512h2.161V2.403c0-.884-.717-1.601-1.601-1.601H2.402c-.884 0-1.601.717-1.601 1.601v30.109h37.237z" fill="#F1F2F2"/><path d="M4.645 5.726a1.281 1.281 0 1 0 0-2.562 1.281 1.281 0 0 0 0 2.562zM9.77 5.726a1.281 1.281 0 1 0 0-2.562 1.281 1.281 0 0 0 0 2.562zM14.894 5.726a1.281 1.281 0 1 0 0-2.562 1.281 1.281 0 0 0 0 2.562z" fill="#463192"/><path d="M35.126 30.589a8.86 8.86 0 1 1-17.719 0 8.86 8.86 0 0 1 17.719 0z" stroke="#463192" stroke-width="1.5"/><path d="M24.604 34.83v-.125h-.96c-.278 0-.519-.247-.519-.571 0-.325.241-.57.52-.57h.25V27.468h-.251c-.278 0-.519-.246-.519-.57 0-.325.241-.571.52-.571h.959v-.632c0-.325.241-.571.52-.571.277 0 .518.246.518.57v.633H26.343v-.632c0-.325.242-.571.52-.571s.519.246.519.57v.756l.077.032c.823.34 1.416 1.206 1.416 2.224a2.47 2.47 0 0 1-.682 1.722l-.085.087.085.087a2.47 2.47 0 0 1 .682 1.722c0 1.019-.593 1.884-1.416 2.224l-.077.032v.724c0 .324-.241.57-.52.57-.277 0-.518-.246-.518-.57v-.6H25.641v.599c0 .325-.24.571-.519.571-.278 0-.519-.246-.519-.57v-.475zm.33-1.392v.125h1.747c.646 0 1.155-.564 1.155-1.238s-.509-1.238-1.155-1.238h-1.747v2.351zm0-3.617v.125h1.747c.646 0 1.155-.565 1.155-1.239 0-.673-.509-1.238-1.155-1.238h-1.747v2.352z" fill="#463192" stroke="#463192" stroke-width=".25"/><path d="M38.598.003H2.402A2.405 2.405 0 0 0 0 2.405v30.108a.8.8 0 0 0 .8.801h12.391a.8.8 0 0 0 0-1.601H1.601V8.97H29.79a.8.8 0 1 0 0-1.601H1.601V2.405c0-.442.36-.8.801-.8h36.196c.441 0 .8.358.8.8V7.37h-2.722a.8.8 0 0 0 0 1.601h2.722v22.742h-.56a.8.8 0 1 0 0 1.601h1.361a.8.8 0 0 0 .801-.8V2.404A2.405 2.405 0 0 0 38.598.004z" fill="#463192"/><path d="M24.088 17.137a.8.8 0 0 0 .8.8h10.987a.8.8 0 1 0 0-1.6H24.89a.8.8 0 0 0-.801.8zM17.929 21.622a.8.8 0 0 0-.8-.801H5.125a.8.8 0 1 0 0 1.601h12.002a.8.8 0 0 0 .8-.8zM5.126 25.305a.8.8 0 1 0 0 1.602h4.831a.8.8 0 0 0 0-1.602H5.126zM28.314 12.653a.8.8 0 0 0 .8.8h6.753a.8.8 0 1 0 0-1.6h-6.752a.8.8 0 0 0-.801.8zM25.225 11.852h-8.568a.8.8 0 0 0 0 1.602h8.568a.8.8 0 1 0 0-1.602zM5.133 13.454h8.058a.8.8 0 1 0 0-1.602H5.133a.8.8 0 1 0 0 1.602zM5.126 17.938h16.13a.8.8 0 0 0 0-1.602H5.127a.8.8 0 1 0 0 1.602z" fill="#463192"/></symbol>
<symbol id="i-history-hover" viewBox="0 0 41 41" fill="none" xmlns="http://www.w3.org/2000/svg"><path d="M37.86 9H40V1.404C40 1.181 39.29 1 38.415 1H2.585C1.71 1 1 1.18 1 1.404V9h36.86z" fill="#463192"/><path d="M4.645 5.726a1.281 1.281 0 1 0 0-2.562 1.281 1.281 0 0 0 0 2.562zM9.77 5.726a1.281 1.281 0 1 0 0-2.562 1.281 1.281 0 0 0 0 2.562zM14.894 5.726a1.281 1.281 0 1 0 0-2.562 1.281 1.281 0 0 0 0 2.562z" fill="#fff"/><path d="M35.126 30.59a8.86 8.86 0 1 1-17.719-.001 8.86 8.86 0 0 1 17.719 0z" fill="#463192" stroke="#463192" stroke-width="1.5"/><path d="M24.604 34.83v-.125h-.96c-.278 0-.519-.247-.519-.571 0-.325.241-.57.52-.57h.25V27.468h-.251c-.278 0-.519-.246-.519-.57 0-.325.241-.571.52-.571h.959v-.632c0-.325.241-.571.52-.571.277 0 .518.246.518.57v.633H26.343v-.632c0-.325.242-.571.52-.571s.519.246.519.57v.756l.077.032c.823.34 1.416 1.206 1.416 2.224a2.47 2.47 0 0 1-.682 1.722l-.085.087.085.087a2.47 2.47 0 0 1 .682 1.722c0 1.019-.593 1.884-1.416 2.224l-.077.032v.724c0 .324-.241.57-.52.57-.277 0-.518-.246-.518-.57v-.6H25.641v.599c0 .325-.24.571-.519.571-.278 0-.519-.246-.519-.57v-.475zm.33-1.392v.125h1.747c.646 0 1.155-.564 1.155-1.238s-.509-1.238-1.155-1.238h-1.747v2.351zm0-3.617v.125h1.747c.646 0 1.155-.565 1.155-1.239 0-.673-.509-1.238-1.155-1.238h-1.747v2.352z" fill="#fff" stroke="#463192" stroke-width=".25"/><path d="M38.598.003H2.402A2.405 2.405 0 0 0 0 2.405v30.109a.8.8 0 0 0 .8.8h12.391a.8.8 0 0 0 0-1.601H1.601V8.97H29.79a.8.8 0 1 0 0-1.601H1.601V2.405c0-.442.36-.8.801-.8h36.196c.441 0 .8.358.8.8V7.37h-2.722a.8.8 0 0 0 0 1.601h2.722v22.742h-.56a.8.8 0 1 0 0 1.601h1.361a.8.8 0 0 0 .801-.8V2.405A2.405 2.405 0 0 0 38.598.003z" fill="#463192"/><path d="M24.088 17.137a.8.8 0 0 0 .8.801h10.987a.8.8 0 1 0 0-1.602H24.89a.8.8 0 0 0-.801.801zM17.929 21.622a.8.8 0 0 0-.8-.801H5.125a.8.8 0 1 0 0 1.601h12.002a.8.8 0 0 0 .8-.8zM5.126 25.305a.8.8 0 1 0 0 1.602h4.831a.8.8 0 0 0 0-1.602H5.126zM28.314 12.653a.8.8 0 0 0 .8.8h6.753a.8.8 0 1 0 0-1.6h-6.752a.8.8 0 0 0-.801.8zM25.225 11.852h-8.568a.8.8 0 0 0 0 1.602h8.568a.8.8 0 1 0 0-1.602zM5.133 13.454h8.058a.8.8 0 1 0 0-1.602H5.133a.8.8 0 1 0 0 1.602zM5.126 17.938h16.13a.8.8 0 0 0 0-1.602H5.127a.8.8 0 1 0 0 1.602z" fill="#463192"/></symbol>
<symbol id="i-man-user" viewBox="0 0 12 14" fill="none" xmlns="http://www.w3.org/2000/svg"><path d="M6 6.847c1.557 0 2.819-1.533 2.819-3.424C8.819 1.533 8.404 0 6 0S3.181 1.533 3.181 3.423c0 1.891 1.262 3.424 2.819 3.424zM.676 12.074c0-.115 0-.032 0 0zM11.323 12.164c.002-.031 0-.219 0 0zM11.317 11.936c-.052-3.294-.482-4.232-3.774-4.826 0 0-.463.59-1.543.59-1.08 0-1.544-.59-1.544-.59C1.201 7.697.744 8.622.684 11.829c-.005.262-.007.275-.008.245v.346S1.46 14 6 14s5.323-1.58 5.323-1.58v-.256a2.13 2.13 0 0 1-.006-.228z" fill="#fff"/></symbol>
<symbol id="i-myorders" viewBox="0 0 41 37" fill="none" xmlns="http://www.w3.org/2000/svg"><path d="M16.016 4.645H11.53v2.242h4.485V4.645zM29.469 4.645h-4.485v2.242h4.485V4.645z" fill="#fff"/><path d="M29.36 21.941a8.86 8.86 0 1 1-17.72 0 8.86 8.86 0 0 1 17.72 0z" stroke="#463192" stroke-width="1.5"/><path d="M18.85 26.723v-.125H17.753a.63.63 0 0 1-.627-.634.63.63 0 0 1 .627-.634h.272v-6.625h-.272a.63.63 0 0 1-.627-.634.63.63 0 0 1 .627-.634h1.099v-.678a.63.63 0 0 1 .626-.634.63.63 0 0 1 .627.634v.678h.776v-.678a.63.63 0 0 1 .627-.634.63.63 0 0 1 .626.634v.819l.08.03a2.61 2.61 0 0 1 1.662 2.437c0 .74-.307 1.408-.8 1.883l-.092.09.093.09c.492.475.799 1.143.799 1.883a2.61 2.61 0 0 1-1.662 2.436l-.08.03V27.242a.63.63 0 0 1-.627.634.63.63 0 0 1-.626-.634v-.643h-.776v.643a.63.63 0 0 1-.627.634.63.63 0 0 1-.627-.634v-.518zm.427-1.518v.125h2.017c.733 0 1.328-.601 1.328-1.339 0-.737-.595-1.34-1.328-1.34h-2.017v2.554zm0-3.946v.125h2.017c.733 0 1.328-.602 1.328-1.34 0-.737-.595-1.339-1.328-1.339h-2.017v2.554z" fill="#463192" stroke="#463192" stroke-width=".25"/><path d="M40.2 6.086h-9.93V4.645a.8.8 0 0 0-.801-.801h-1.442V2.402A2.405 2.405 0 0 0 25.625 0h-10.25a2.405 2.405 0 0 0-2.402 2.402v1.442H11.53a.8.8 0 0 0-.8.8v1.442H.8a.8.8 0 0 0-.801.8v28.028c0 .971.79 1.762 1.762 1.762h37.476c.972 0 1.762-.79 1.762-1.762V6.887a.8.8 0 0 0-.8-.801zm-11.532 0h-2.883v-.64h2.883v.64zM14.574 2.402c0-.441.36-.8.801-.8h10.25c.442 0 .8.359.8.8v1.442h-1.44a.8.8 0 0 0-.801.8v1.442h-7.368V4.645a.8.8 0 0 0-.8-.801h-1.442V2.402zm-2.242 3.043h2.883v.64h-2.883v-.64zm26.906 29.63H1.762a.16.16 0 0 1-.16-.16v-2.563h4.416a.8.8 0 0 0 0-1.602H1.602V17.753a5.207 5.207 0 0 0 3.623 1.466h2.703a.8.8 0 0 0 0-1.602H5.225a3.628 3.628 0 0 1-3.623-3.624V7.687h37.796v6.306a3.628 3.628 0 0 1-3.623 3.624H32.03a.8.8 0 0 0 0 1.602h3.744c1.406 0 2.683-.56 3.623-1.466V30.75h-3.523a.8.8 0 0 0 0 1.602h3.523v2.562a.16.16 0 0 1-.16.16z" fill="#463192"/></symbol>
<symbol id="i-myorders-hover" viewBox="0 0 41 37" fill="none" xmlns="http://www.w3.org/2000/svg"><path d="M16.016 4.645H11.53v2.242h4.485V4.645zM29.469 4.645h-4.485v2.242h4.485V4.645z" fill="#fff"/><path fill="#463192" d="M1 19h39v17H1zM37 19h3v-2l-3 2zM4 19H1v-2l3 2z"/><path d="M29.36 21.941a8.86 8.86 0 1 1-17.72 0 8.86 8.86 0 0 1 17.72 0z" fill="#fff" stroke="#463192" stroke-width="1.5"/><path d="M18.85 26.723v-.125H17.753a.63.63 0 0 1-.627-.634.63.63 0 0 1 .627-.634h.272v-6.625h-.272a.63.63 0 0 1-.627-.634.63.63 0 0 1 .627-.634h1.099v-.678a.63.63 0 0 1 .626-.634.63.63 0 0 1 .627.634v.678h.776v-.678a.63.63 0 0 1 .627-.634.63.63 0 0 1 .626.634v.819l.08.03a2.61 2.61 0 0 1 1.662 2.437c0 .74-.307 1.408-.8 1.883l-.092.09.093.09c.492.475.799 1.143.799 1.883a2.61 2.61 0 0 1-1.662 2.436l-.08.03V27.242a.63.63 0 0 1-.627.634.63.63 0 0 1-.626-.634v-.643h-.776v.643a.63.63 0 0 1-.627.634.63.63 0 0 1-.627-.634v-.518zm.427-1.518v.125h2.017c.733 0 1.328-.601 1.328-1.339 0-.737-.595-1.34-1.328-1.34h-2.017v2.554zm0-3.946v.125h2.017c.733 0 1.328-.602 1.328-1.34 0-.737-.595-1.339-1.328-1.339h-2.017v2.554z" fill="#463192" stroke="#463192" stroke-width=".25"/><path d="M40.2 6.086h-9.93V4.645a.8.8 0 0 0-.801-.801h-1.442V2.402A2.405 2.405 0 0 0 25.625 0h-10.25a2.405 2.405 0 0 0-2.402 2.402v1.442H11.53a.8.8 0 0 0-.8.8v1.442H.8a.8.8 0 0 0-.801.8v28.028c0 .971.79 1.762 1.762 1.762h37.476c.972 0 1.762-.79 1.762-1.762V6.887a.8.8 0 0 0-.8-.801zm-11.532 0h-2.883v-.64h2.883v.64zM14.574 2.402c0-.441.36-.8.801-.8h10.25c.442 0 .8.359.8.8v1.442h-1.44a.8.8 0 0 0-.801.8v1.442h-7.368V4.645a.8.8 0 0 0-.8-.801h-1.442V2.402zm-2.242 3.043h2.883v.64h-2.883v-.64zm26.906 29.63H1.762a.16.16 0 0 1-.16-.16v-2.563h4.416a.8.8 0 0 0 0-1.602H1.602V17.753a5.207 5.207 0 0 0 3.623 1.466h7.338c.442 0-.563-.277-.563-.719.5-.5.563-.883.121-.883H5.225a3.628 3.628 0 0 1-3.623-3.624V7.687h37.796v6.306a3.628 3.628 0 0 1-3.623 3.624h-7.03c-.443 0-.745.44-.745.883 0 .442 1.058.719 1.5.719h6.275c1.406 0 2.683-.56 3.623-1.466V30.75h-3.523a.8.8 0 0 0 0 1.602h3.523v2.562a.16.16 0 0 1-.16.16z" fill="#463192"/></symbol>
<symbol id="i-no-orders" xmlns="http://www.w3.org/2000/svg" viewBox="0 0 600 600" fill="#463192"><path d="M570 260H370c-16.569 0-30 13.431-30 30v280c0 16.568 13.431 30 30 30h200c16.568 0 30-13.432 30-30V290c0-16.569-13.431-30-30-30zM460 580h-90c-5.523 0-10-4.478-10-10v-70h100v80zm0-100H360v-80h100v80zm120 90c0 5.522-4.478 10-10 10h-90v-80h100v70zm0-90H480v-80h100v80zm0-100H360v-90c0-5.522 4.477-10 10-10h200c5.522 0 10 4.478 10 10v90z"/><path d="M550 300H390c-5.523 0-10 4.478-10 10v40c0 5.522 4.477 10 10 10h160c5.522 0 10-4.478 10-10v-40c0-5.522-4.477-10-10-10zm-10 40H400v-20h140v20zM420 430v-20h-20v20h-20v20h20v20h20v-20h20v-20zM500 430h60v20h-60zM438.28 527.07l-14.14-14.14L410 527.07l-14.14-14.14-14.14 14.14 14.14 14.14-14.14 14.14 14.14 14.14L410 555.35l14.14 14.14 14.14-14.14-14.14-14.14zM500 530h60v20h-60zM520 555h20v10h-20zM520 515h20v10h-20z"/><path d="M400 0H110v.09a9.928 9.928 0 0 0-7.07 2.84l-100 100A9.9 9.9 0 0 0 .09 110H0v470c0 11.046 8.953 20 20 20h300v-20h-60v-30h20c5.522 0 10-4.478 10-10v-50c0-5.522-4.478-10-10-10h-20v-30h20c5.522 0 10-4.478 10-10v-50c0-5.522-4.478-10-10-10h-.26A99.807 99.807 0 0 0 320 300c.107-55.229-44.578-100.086-99.806-100.194S120.108 244.384 120 299.611A99.997 99.997 0 0 0 160.26 380H80c-5.522 0-10 4.478-10 10v40H50c-5.522 0-10 4.478-10 10v50c0 5.522 4.478 10 10 10h20v30H50c-5.522 0-10 4.478-10 10v40H20V120h80c11.046 0 20-8.954 20-20V20h280v220h20V20c0-11.046-8.954-20-20-20zM270 500v30H90v-30h180zM140 300c0-44.183 35.817-80 80-80s80 35.817 80 80-35.817 80-80 80c-44.163-.05-79.95-35.838-80-80zM90 400h180v30H90v-30zm-30 80v-30h180v30H60zm0 70h180v30H60v-30zm40-450H34.14L100 34.14V100zM560 50h-20c0-5.522-4.478-10-10-10h-10V10c0-5.522-4.478-10-10-10h-40c-5.523 0-10 4.478-10 10v30h-10c-5.523 0-10 4.478-10 10v190h20V60h60v180h20V70h20v130h20V70c0-11.046-8.954-20-20-20zm-60-10h-20V20h20v20z"/><path d="M150 80h170v20H150zM40 140h340v20H40zM40 180h120v20H40zM290 180h90v20h-90z"/></symbol>
<symbol id="i-support" viewBox="0 0 41 41" fill="none" xmlns="http://www.w3.org/2000/svg"><g clip-path="url(#clip0)"><path d="M32.562 20.5c0 6.662-5.4 12.062-12.062 12.062-6.662 0-12.063-5.4-12.063-12.062 0-6.662 5.401-12.063 12.063-12.063 6.662 0 12.062 5.4 12.062 12.063z" stroke="#463192" stroke-width="1.5"/><path d="M18.85 25.51v-.125H17.753c-.328 0-.627-.32-.627-.76s.299-.76.627-.76h.272v-7.688h-.272c-.328 0-.627-.32-.627-.76s.299-.76.627-.76h1.099v-.772c0-.44.299-.76.626-.76.328 0 .627.32.627.76v.771h.776v-.771c0-.44.299-.76.627-.76.327 0 .626.32.626.76V14.822l.074.034c.966.435 1.668 1.548 1.668 2.864 0 .875-.311 1.662-.806 2.219l-.073.083.073.083c.495.557.806 1.344.806 2.219 0 1.316-.702 2.428-1.668 2.864l-.074.033V26.114c0 .44-.299.761-.627.761-.327 0-.626-.32-.626-.76v-.73h-.776v.729c0 .44-.3.761-.627.761-.328 0-.627-.32-.627-.76v-.605zm.427-1.77v.125h2.017c.75 0 1.328-.712 1.328-1.542 0-.83-.577-1.542-1.328-1.542h-2.017v2.959zm0-4.605v.125h2.017c.75 0 1.328-.711 1.328-1.541s-.577-1.542-1.328-1.542h-2.017v2.958z" fill="#463192" stroke="#463192" stroke-width=".25"/><path d="M40.618 24.146l-2.573-1.578v-4.136l2.573-1.579a.8.8 0 0 0 .321-.989l-2.708-6.539a.8.8 0 0 0-.927-.472l-2.937.704-2.924-2.923.704-2.938a.8.8 0 0 0-.472-.926L25.136.06a.8.8 0 0 0-.989.321l-1.579 2.574h-4.135L16.853.382a.8.8 0 0 0-.988-.32L9.325 2.77a.8.8 0 0 0-.471.926l.703 2.938-2.923 2.923-2.937-.704a.801.801 0 0 0-.927.473L.062 15.864a.8.8 0 0 0 .32.99l2.574 1.578v4.136L.383 24.146a.8.8 0 0 0-.321.99l2.708 6.539a.8.8 0 0 0 .927.472l2.937-.704 2.924 2.923-.704 2.938a.8.8 0 0 0 .472.926l6.539 2.709a.8.8 0 0 0 .989-.321l1.579-2.574h4.135l1.58 2.574a.8.8 0 0 0 .988.32l6.54-2.708a.8.8 0 0 0 .471-.926l-.704-2.938 2.924-2.923 2.937.704a.8.8 0 0 0 .926-.473l2.71-6.538a.8.8 0 0 0-.322-.99zm-3.605 6.284l-2.709-.649a.8.8 0 0 0-.753.213l-3.557 3.557a.8.8 0 0 0-.213.753l.65 2.708-5.276 2.186-1.456-2.373a.8.8 0 0 0-.683-.382h-5.032a.8.8 0 0 0-.682.382l-1.456 2.373-5.276-2.186.65-2.708a.8.8 0 0 0-.213-.753l-3.558-3.557a.8.8 0 0 0-.752-.213l-2.709.65-2.185-5.277L4.176 23.7a.8.8 0 0 0 .382-.683v-5.032a.8.8 0 0 0-.382-.683l-2.373-1.455 2.185-5.276 2.709.649a.8.8 0 0 0 .752-.213l3.558-3.557a.8.8 0 0 0 .212-.753l-.649-2.708 5.276-2.186 1.456 2.373a.8.8 0 0 0 .682.382h5.033a.8.8 0 0 0 .682-.382l1.456-2.373 5.275 2.186-.648 2.708a.8.8 0 0 0 .212.753l3.557 3.557a.8.8 0 0 0 .753.213l2.709-.65 2.185 5.277-2.373 1.455a.8.8 0 0 0-.382.683v5.032a.8.8 0 0 0 .382.683l2.373 1.455-2.185 5.276z" fill="#463192"/></g></symbol>
<symbol id="i-support-hover" viewBox="0 0 41 41" fill="none" xmlns="http://www.w3.org/2000/svg"><g clip-path="url(#clip0)"><path d="M32.562 20.5c0 6.662-5.4 12.062-12.062 12.062-6.662 0-12.063-5.4-12.063-12.062 0-6.662 5.401-12.063 12.063-12.063 6.662 0 12.062 5.4 12.062 12.063z" fill="#463192" stroke="#463192" stroke-width="1.5"/><path d="M18.726 25.51v.604c0 .49.336.886.751.886s.752-.396.752-.886v-.604h.526v.604c0 .49.336.886.752.886.415 0 .751-.396.751-.886v-.813C23.275 24.842 24 23.68 24 22.323c0-.904-.322-1.722-.837-2.302.515-.58.837-1.398.837-2.302 0-1.358-.725-2.52-1.742-2.978v-.855c0-.49-.336-.886-.752-.886-.415 0-.751.396-.751.886v.645h-.526v-.646c0-.489-.337-.885-.752-.885s-.752.396-.752.886v.645h-.973c-.415 0-.752.396-.752.886 0 .489.337.885.752.885h.147v7.438h-.147c-.415 0-.752.396-.752.885 0 .49.337.886.752.886h.974zm3.77-3.187c0 .781-.539 1.416-1.202 1.416h-1.892v-2.833h1.892c.663 0 1.203.636 1.203 1.417zm-1.202-3.188h-1.892v-2.833h1.892c.663 0 1.203.636 1.203 1.417 0 .78-.54 1.416-1.203 1.416z" fill="#fff"/><path d="M40.618 24.146l-2.573-1.578v-4.136l2.573-1.579a.8.8 0 0 0 .321-.989l-2.708-6.539a.8.8 0 0 0-.927-.472l-2.937.704-2.924-2.923.704-2.938a.8.8 0 0 0-.472-.926L25.136.06a.8.8 0 0 0-.989.321l-1.579 2.574h-4.135L16.853.382a.8.8 0 0 0-.988-.32L9.325 2.77a.8.8 0 0 0-.471.926l.703 2.938-2.923 2.923-2.937-.704a.801.801 0 0 0-.927.473L.062 15.864a.8.8 0 0 0 .32.99l2.574 1.578v4.136L.383 24.146a.8.8 0 0 0-.321.99l2.708 6.539a.8.8 0 0 0 .927.472l2.937-.704 2.924 2.923-.704 2.938a.8.8 0 0 0 .472.926l6.539 2.709a.8.8 0 0 0 .989-.321l1.579-2.574h4.135l1.58 2.574a.8.8 0 0 0 .988.32l6.54-2.708a.8.8 0 0 0 .471-.926l-.704-2.938 2.924-2.923 2.937.704a.8.8 0 0 0 .926-.473l2.71-6.538a.8.8 0 0 0-.322-.99zm-3.605 6.284l-2.709-.649a.8.8 0 0 0-.753.213l-3.557 3.557a.8.8 0 0 0-.213.753l.65 2.708-5.276 2.186-1.456-2.373a.8.8 0 0 0-.683-.382h-5.032a.8.8 0 0 0-.682.382l-1.456 2.373-5.276-2.186.65-2.708a.8.8 0 0 0-.213-.753l-3.558-3.557a.8.8 0 0 0-.752-.213l-2.709.65-2.185-5.277L4.176 23.7a.8.8 0 0 0 .382-.683v-5.032a.8.8 0 0 0-.382-.683l-2.373-1.455 2.185-5.276 2.709.649a.8.8 0 0 0 .752-.213l3.558-3.557a.8.8 0 0 0 .212-.753l-.649-2.708 5.276-2.186 1.456 2.373a.8.8 0 0 0 .682.382h5.033a.8.8 0 0 0 .682-.382l1.456-2.373 5.275 2.186-.648 2.708a.8.8 0 0 0 .212.753l3.557 3.557a.8.8 0 0 0 .753.213l2.709-.65 2.185 5.277-2.373 1.455a.8.8 0 0 0-.382.683v5.032a.8.8 0 0 0 .382.683l2.373 1.455-2.185 5.276z" fill="#463192"/></g></symbol>
<symbol id="i-wallet-small" viewBox="0 0 18 16" fill="none" xmlns="http://www.w3.org/2000/svg"><path d="M15.813 0H1.71C.768 0 .001.767 0 1.71v12.255c0 .943.768 1.71 1.711 1.71h12.253c.944 0 1.712-.767 1.712-1.71v-.138h.137c.943 0 1.711-.768 1.711-1.711V1.71C17.524.768 16.756 0 15.813 0zM1.71.685h14.102c.566 0 1.027.46 1.027 1.026V6.23a.343.343 0 0 1-.343.343h-.821V4.449c0-.943-.768-1.71-1.712-1.71H1.711a1.028 1.028 0 0 1 0-2.054zm13.28 13.28c0 .566-.46 1.026-1.027 1.026H1.711c-.566 0-1.026-.46-1.026-1.027V3.08a1.705 1.705 0 0 0 1.026.344h12.253c.567 0 1.027.46 1.027 1.026v2.123h-3.953c-.189 0 .342.153.342.342 0 .189-.53.342-.342.342h5.46c.12 0 .234-.02.341-.059V9.79a.343.343 0 0 1-.342.342h-5.955a1.44 1.44 0 0 1-1.438-1.437 1.44 1.44 0 0 1 1.438-1.438h.496a.342.342 0 0 0 0-.684h-.496c-1.17 0-2.122.951-2.122 2.122 0 1.17.952 2.122 2.122 2.122h4.45v3.148zm.822-.822h-.137v-2.327h.821c.12 0 .235-.021.343-.06v1.36c0 .566-.461 1.027-1.027 1.027z" fill="#fff"/></symbol>
<symbol id="i-wallet-small-invert" viewBox="0 0 24 22" fill="none" xmlns="http://www.w3.org/2000/svg"><path d="M21 9.176V6.094c0-1.036-.84-1.875-1.875-1.875H2.344A1.875 1.875 0 0 1 .469 2.344v16.781c0 1.035.84 1.875 1.875 1.875h16.781C20.16 21 21 20.16 21 19.125V9.176z" fill="#463192"/><path d="M5.982 8.819v.098l.095.023c1.034.251 1.798 1.159 1.798 2.232 0 .286-.22.508-.481.508a.495.495 0 0 1-.482-.508c0-.497-.31-.922-.751-1.135l-.18-.087V12.504l.096.023c1.034.251 1.798 1.159 1.798 2.232 0 1.073-.764 1.981-1.798 2.232l-.096.023v.353c0 .286-.22.508-.481.508a.495.495 0 0 1-.482-.508v-.353l-.095-.023c-1.034-.25-1.798-1.159-1.798-2.232 0-.286.22-.508.481-.508s.482.223.482.508c0 .497.31.922.751 1.136l.18.086V13.428l-.096-.024c-1.034-.25-1.798-1.158-1.798-2.232 0-1.073.764-1.98 1.798-2.232l.096-.023V8.633c0-.286.22-.508.481-.508s.482.222.482.508v.186zm-.963 1.33v-.2l-.18.088c-.44.213-.751.638-.751 1.135s.31.922.751 1.136l.18.087v-2.246zm.962 5.633v.2l.18-.088c.441-.213.751-.638.751-1.135s-.31-.922-.751-1.136l-.18-.086V15.781z" fill="#fff" stroke="#463192" stroke-width=".25"/><path d="M23.531 7.36V8.53c0 .518-.42.938-.937.938h-8.157a2.437 2.437 0 1 0 0 4.875h8.157c.517 0 .937-.42.937-.938V7.36z" fill="#fff"/><path d="M21.656 0H2.344A2.346 2.346 0 0 0 0 2.342v16.783a2.346 2.346 0 0 0 2.344 2.344h16.781a2.347 2.347 0 0 0 2.344-2.344v-.188h.187A2.346 2.346 0 0 0 24 16.593V2.343A2.346 2.346 0 0 0 21.656 0zM2.344.938h19.312c.776 0 1.407.63 1.407 1.406V8.53a.47.47 0 0 1-.47.469H21.47V6.094a2.346 2.346 0 0 0-2.344-2.344H2.344c-.776 0-1.406-.63-1.406-1.406 0-.776.63-1.406 1.406-1.406zM20.53 19.125c0 .775-.63 1.406-1.406 1.406H2.344c-.776 0-1.406-.63-1.406-1.406V4.217a2.335 2.335 0 0 0 1.406.47h16.781c.775 0 1.406.631 1.406 1.407V9h-1.125a.469.469 0 0 0 0 .938h3.188a1.4 1.4 0 0 0 .468-.081v3.549a.47.47 0 0 1-.468.469H14.438a1.97 1.97 0 0 1-1.97-1.969 1.97 1.97 0 0 1 1.97-1.969h.68a.469.469 0 0 0 0-.937h-.68a2.91 2.91 0 0 0-2.907 2.906 2.91 2.91 0 0 0 2.906 2.906h6.094v4.313zm1.125-1.126h-.187v-3.186h1.125a1.4 1.4 0 0 0 .468-.081v1.861c0 .776-.63 1.406-1.406 1.406z" fill="#463192"/><path d="M14.414 10.503c-.775 0-1.406.63-1.406 1.406 0 .776.63 1.406 1.406 1.406.776 0 1.406-.63 1.406-1.406 0-.775-.63-1.406-1.406-1.406zm0 1.875a.47.47 0 1 1 .001-.939.47.47 0 0 1 0 .939z" fill="#463192"/></symbol>
<symbol id="i-wallets" viewBox="0 0 41 37" fill="none" xmlns="http://www.w3.org/2000/svg"><path d="M8.465 28.191v.734a1.074 1.074 0 1 0 2.148 0v-.734h.751v.734a1.074 1.074 0 1 0 2.148 0v-.989A3.876 3.876 0 0 0 16 24.322c0-1.099-.46-2.09-1.196-2.796A3.861 3.861 0 0 0 16 18.73a3.876 3.876 0 0 0-2.488-3.616v-1.039a1.074 1.074 0 1 0-2.148 0v.784h-.752v-.784a1.074 1.074 0 1 0-2.147 0v.784H7.074a1.074 1.074 0 0 0 0 2.15h.21v9.032h-.21a1.074 1.074 0 0 0 0 2.15h1.391zm5.387-3.87c0 .948-.77 1.72-1.718 1.72H9.431V22.6h2.704a1.72 1.72 0 0 1 1.717 1.72zm-1.718-3.871H9.431v-3.44h2.704a1.721 1.721 0 0 1 0 3.44z" fill="#463192"/><path d="M40.2 12.734v2.002c0 .885-.718 1.602-1.602 1.602H24.664a4.164 4.164 0 1 0 0 8.328h13.934c.884 0 1.601-.717 1.601-1.602v-10.33z" fill="#fff"/><path d="M36.996.162H4.004A4.008 4.008 0 0 0 0 4.164v28.67a4.008 4.008 0 0 0 4.004 4.004h28.668a4.009 4.009 0 0 0 4.004-4.004v-.321h.32A4.009 4.009 0 0 0 41 28.509V4.166A4.008 4.008 0 0 0 36.996.162zM4.004 1.764h32.992a2.405 2.405 0 0 1 2.402 2.402v10.57c0 .442-.359.801-.8.801h-1.922v-4.965a4.008 4.008 0 0 0-4.004-4.004H4.004a2.405 2.405 0 0 1-2.402-2.402 2.405 2.405 0 0 1 2.402-2.402zm31.07 31.07a2.405 2.405 0 0 1-2.402 2.402H4.004a2.405 2.405 0 0 1-2.402-2.402V7.367a3.988 3.988 0 0 0 2.402.803h28.668a2.405 2.405 0 0 1 2.402 2.402v4.965h-9.249c-.442 0 .801.359.801.8 0 .443-1.243.802-.8.802h12.772c.28 0 .55-.05.8-.138v6.063c0 .442-.359.801-.8.801H24.664a3.367 3.367 0 0 1-3.363-3.363 3.367 3.367 0 0 1 3.363-3.363h1.161a.8.8 0 0 0 0-1.602h-1.16a4.97 4.97 0 0 0-4.966 4.965 4.97 4.97 0 0 0 4.965 4.965h10.41v7.367zm1.922-1.923h-.32v-5.444h1.922c.28 0 .55-.05.8-.138v3.18a2.405 2.405 0 0 1-2.402 2.402z" fill="#463192"/><path d="M24.624 18.105a2.405 2.405 0 0 0-2.402 2.402 2.405 2.405 0 0 0 2.402 2.402 2.405 2.405 0 0 0 2.402-2.402 2.405 2.405 0 0 0-2.402-2.402zm0 3.203a.802.802 0 0 1 0-1.602.802.802 0 0 1 0 1.602z" fill="#463192"/></symbol>
<symbol id="i-wallets-hover" viewBox="0 0 41 37" fill="none" xmlns="http://www.w3.org/2000/svg"><path d="M40.2 12.734v2.002c0 .885-.718 1.602-1.602 1.602H24.664a4.164 4.164 0 1 0 0 8.328h13.934c.884 0 1.601-.717 1.601-1.602v-10.33z" fill="#fff"/><path d="M1 7l34.5 1v27c0 .783-34 .5-34 .5L1 7z" fill="#463192"/><path d="M21.5 17c1 0 14.5-1 14.5-1v8.723s-13.99-.1-14.5-.723c-.51-.623-1-7 0-7z" fill="#fff"/><path d="M36.996.162H4.004A4.008 4.008 0 0 0 0 4.164v28.67a4.008 4.008 0 0 0 4.004 4.004h28.668a4.009 4.009 0 0 0 4.004-4.004v-.321h.32A4.009 4.009 0 0 0 41 28.509V4.166A4.008 4.008 0 0 0 36.996.162zM4.004 1.764h32.992a2.405 2.405 0 0 1 2.402 2.402v10.57c0 .442-.359.801-.8.801h-1.922v-4.965a4.008 4.008 0 0 0-4.004-4.004H4.004a2.405 2.405 0 0 1-2.402-2.402 2.405 2.405 0 0 1 2.402-2.402zm31.07 31.07a2.405 2.405 0 0 1-2.402 2.402H4.004a2.405 2.405 0 0 1-2.402-2.402V7.367a3.988 3.988 0 0 0 2.402.803h28.668a2.405 2.405 0 0 1 2.402 2.402v4.965h-9.249c-.442 0 .801.359.801.8 0 .443-1.243.802-.8.802h12.772c.28 0 .55-.05.8-.138v6.063c0 .442-.359.801-.8.801H24.664a3.367 3.367 0 0 1-3.363-3.363 3.367 3.367 0 0 1 3.363-3.363h1.161a.8.8 0 0 0 0-1.602h-1.16a4.97 4.97 0 0 0-4.966 4.965 4.97 4.97 0 0 0 4.965 4.965h10.41v7.367zm1.922-1.923h-.32v-5.444h1.922c.28 0 .55-.05.8-.138v3.18a2.405 2.405 0 0 1-2.402 2.402z" fill="#463192"/><path d="M8.465 28.191v.734a1.074 1.074 0 1 0 2.148 0v-.734h.751v.734a1.074 1.074 0 1 0 2.148 0v-.989A3.876 3.876 0 0 0 16 24.322c0-1.099-.46-2.09-1.196-2.796A3.861 3.861 0 0 0 16 18.73a3.876 3.876 0 0 0-2.488-3.616v-1.039a1.074 1.074 0 1 0-2.148 0v.784h-.752v-.784a1.074 1.074 0 1 0-2.147 0v.784H7.074a1.074 1.074 0 0 0 0 2.15h.21v9.032h-.21a1.074 1.074 0 0 0 0 2.15h1.391zm5.387-3.87c0 .948-.77 1.72-1.718 1.72H9.431V22.6h2.704a1.72 1.72 0 0 1 1.717 1.72zm-1.718-3.871H9.431v-3.44h2.704a1.721 1.721 0 0 1 0 3.44z" fill="#fff"/><path d="M24.624 18.105a2.405 2.405 0 0 0-2.402 2.402 2.405 2.405 0 0 0 2.402 2.402 2.405 2.405 0 0 0 2.402-2.402 2.405 2.405 0 0 0-2.402-2.402zm0 3.203a.802.802 0 0 1 0-1.602.802.802 0 0 1 0 1.602z" fill="#463192"/></symbol>
</svg>