<?xml version="1.0" encoding="utf-8"?>
<!-- Generator: Adobe Illustrator 16.0.0, SVG Export Plug-In . SVG Version: 6.00 Build 0)  -->
<!DOCTYPE svg PUBLIC "-//W3C//DTD SVG 1.1//EN" "http://www.w3.org/Graphics/SVG/1.1/DTD/svg11.dtd">
<svg version="1.1" id="Слой_1" xmlns="http://www.w3.org/2000/svg" xmlns:xlink="http://www.w3.org/1999/xlink" x="0px" y="0px"
	 width="198.43px" height="198.43px" viewBox="0 0 198.43 198.43" enable-background="new 0 0 198.43 198.43" xml:space="preserve">
<g>
	<g>
		<path d="M124.922,1.195c-19.105,0-34.647,15.542-34.647,34.646c0,1.614,1.308,2.921,2.922,2.921c1.614,0,2.921-1.307,2.921-2.921
			c0-15.882,12.921-28.803,28.804-28.803c15.881,0,28.804,12.92,28.804,28.803c0,15.882-12.923,28.803-28.804,28.803
			c-1.144,0-2.294-0.066-3.419-0.199c-1.6-0.188-3.054,0.956-3.243,2.557c-0.189,1.603,0.957,3.054,2.559,3.244
			c1.351,0.16,2.732,0.241,4.103,0.241c19.104,0,34.646-15.542,34.646-34.646S144.025,1.195,124.922,1.195z"/>
	</g>
</g>
<g>
	<g>
		<path d="M67.41,45.084c-0.83-1.383-2.623-1.832-4.009-1.003c-10.395,6.233-16.853,17.626-16.853,29.733
			c0,7.465,2.338,14.575,6.761,20.561c0.573,0.775,1.457,1.185,2.352,1.185c0.604,0,1.211-0.185,1.734-0.571
			c1.297-0.958,1.572-2.788,0.613-4.085c-3.675-4.974-5.617-10.883-5.617-17.089c0-10.218,5.239-19.46,14.015-24.723
			C67.791,48.262,68.239,46.467,67.41,45.084z"/>
	</g>
</g>
<g>
	<g>
		<path d="M81.196,39.169c-2.446,0-4.89,0.255-7.262,0.762c-1.578,0.337-2.584,1.889-2.248,3.467
			c0.337,1.577,1.89,2.583,3.468,2.247c1.972-0.421,4.004-0.634,6.042-0.634c15.881,0,28.805,12.922,28.805,28.805
			c0,6.207-1.944,12.115-5.619,17.089c-0.957,1.297-0.684,3.126,0.614,4.085c0.521,0.386,1.13,0.573,1.733,0.573
			c0.896,0,1.779-0.411,2.353-1.187c4.423-5.985,6.76-13.095,6.76-20.561C115.842,54.711,100.301,39.169,81.196,39.169z"/>
	</g>
</g>
<g>
	<g>
		<path d="M156.693,74.202h-35.281c-1.614,0-2.922,1.309-2.922,2.921c0,1.614,1.308,2.922,2.922,2.922h35.281
			c1.126,0,2.045,0.918,2.045,2.046v3.734h-39.146c-1.612,0-2.921,1.308-2.921,2.921s1.309,2.922,2.921,2.922h39.146v1.972
			c0,1.613,1.307,2.921,2.922,2.921c1.614,0,2.921-1.308,2.921-2.921V82.092C164.581,77.741,161.043,74.202,156.693,74.202z"/>
	</g>
</g>
<g>
	<g>
		<path d="M161.66,125.41c1.614,0,2.921-1.31,2.921-2.922v-14.585c0-5.537-4.505-10.041-10.043-10.041H46.832
			c-4.901,0-8.891-3.981-8.907-8.88v-0.03c0-0.003,0-0.005,0-0.008c0.004-3.492,2.063-6.677,5.248-8.116
			c1.471-0.663,2.125-2.394,1.461-3.864c-0.665-1.47-2.394-2.125-3.865-1.46c-5.277,2.383-8.687,7.662-8.687,13.45
			c0,0.011,0.001,0.02,0.001,0.03v93.5c0,8.135,6.615,14.752,14.749,14.752h107.707c5.538,0,10.043-4.506,10.043-10.044v-19.129
			c0-1.612-1.308-2.921-2.921-2.921c-1.615,0-2.922,1.309-2.922,2.921v19.129c0,2.317-1.885,4.2-4.2,4.2H46.831
			c-4.911,0-8.907-3.996-8.907-8.908v-81.782c2.477,1.883,5.563,3.002,8.907,3.002h107.707c2.316,0,4.2,1.885,4.2,4.2v14.585
			C158.738,124.101,160.045,125.41,161.66,125.41z"/>
	</g>
</g>
<g>
	<g>
		<path d="M162.021,127.739H141.2c-9.669,0-17.535,7.867-17.535,17.536c0,9.668,7.866,17.536,17.535,17.536h5.293
			c1.613,0,2.922-1.309,2.922-2.922s-1.309-2.922-2.922-2.922H141.2c-6.448,0-11.693-5.244-11.693-11.692
			s5.245-11.694,11.693-11.694h20.82c1.235,0,2.239,1.005,2.239,2.24v18.908c0,1.235-1.005,2.238-2.239,2.238h-5.791
			c-1.611,0-2.921,1.309-2.921,2.922s1.31,2.922,2.921,2.922h5.791c4.456,0,8.082-3.626,8.082-8.082v-18.908
			C170.103,131.364,166.477,127.739,162.021,127.739z"/>
	</g>
</g>
<g>
	<g>
		<path d="M140.875,136.509c-4.834,0-8.767,3.933-8.767,8.767c0,4.835,3.933,8.768,8.767,8.768c4.835,0,8.768-3.933,8.768-8.768
			C149.643,140.441,145.709,136.509,140.875,136.509z M140.874,148.199c-1.611,0-2.923-1.312-2.923-2.924
			c0-1.614,1.312-2.924,2.923-2.924c1.613,0,2.926,1.312,2.926,2.924S142.487,148.199,140.874,148.199z"/>
	</g>
</g>
<g>
	<g>
		<path d="M61.557,15.973c-1.614,0-2.921,1.308-2.921,2.921v14.801c0,1.614,1.308,2.922,2.921,2.922
			c1.614,0,2.921-1.308,2.921-2.922V18.894C64.479,17.281,63.171,15.973,61.557,15.973z"/>
	</g>
</g>
<g>
	<g>
		<path d="M76.162,10.13c-1.614,0-2.922,1.308-2.922,2.922v14.801c0,1.614,1.308,2.922,2.922,2.922c1.613,0,2.921-1.308,2.921-2.922
			V13.052C79.083,11.438,77.775,10.13,76.162,10.13z"/>
	</g>
</g>
<path id="path2995" fill="#232020" stroke="#000000" stroke-width="4" d="M79.101,50.123l-2.491,2.502l-0.311,0.285l0.01,3.521
	l-0.336,0.105L75.7,56.632l-0.292,0.089l-0.219,0.095l-0.255,0.101l-0.28,0.105l-0.25,0.12l-0.255,0.109l-0.229,0.111l-0.196,0.089
	l-0.241,0.13l-0.19,0.111l-0.195,0.109l-0.24,0.129l-0.191,0.106l-0.274,0.165l-0.3,0.195l-0.325,0.22l-0.25,0.164l-0.286,0.216
	l-0.181,0.14l-0.23,0.181l-0.21,0.166l-0.225,0.181l-0.205,0.165l-0.16,0.16l-0.195,0.18l-0.355,0.336l-0.154,0.149l-0.125,0.13
	l-0.17,0.165l-0.205,0.221l-0.195,0.21l-0.125,0.166l-0.155,0.169L68.2,61.899L68.06,62.08l-0.135,0.179l-0.139,0.17L67.66,62.6
	l-0.13,0.161l-0.099,0.148l-0.114,0.186l-0.121,0.195l-0.105,0.14L66.99,63.58l-0.156,0.25l-0.069,0.145l-0.086,0.15l-0.12,0.195
	l-0.093,0.149l-0.056,0.151l-0.115,0.196l-0.11,0.199l-0.12,0.246l-0.09,0.231l-0.099,0.244l-0.101,0.206l-0.08,0.179l-0.075,0.21
	l-0.114,0.259l-0.09,0.271l-0.13,0.385l-0.071,0.235l-0.079,0.265l-0.069,0.245l-0.061,0.246l-0.155,0.68l-0.04,0.21l-0.065,0.246
	l-0.046,0.299l-0.03,0.201l-0.044,0.314l-0.044,0.346l-0.046,0.55l-0.034,0.385l-0.015,0.295l-0.006,0.355l0.006,0.865l0.009,0.286
	l0.03,0.41l0.026,0.335l0.024,0.24l0.025,0.256l0.025,0.206l0.044,0.255l0.036,0.245l0.036,0.22l0.044,0.22l0.04,0.19l0.061,0.265
	l0.055,0.231l0.05,0.234l0.079,0.255l0.066,0.26l0.064,0.221l0.061,0.189l0.065,0.221l0.075,0.205l0.076,0.221l0.084,0.215
	l0.075,0.189l0.069,0.166l0.096,0.234l0.095,0.231L66,79.398l0.09,0.215l0.09,0.176l0.09,0.16l0.105,0.229l0.094,0.175l0.096,0.181
	l0.105,0.181l0.064,0.114l0.066,0.109l0.094,0.156l0.086,0.145l0.08,0.125l0.096,0.13l0.079,0.139l0.125,0.19l0.11,0.16l0.12,0.161
	l0.085,0.13l0.096,0.125l0.12,0.156l0.099,0.129l0.141,0.17l0.176,0.21l0.144,0.19l0.17,0.186l0.126,0.154l0.133,0.135l0.161,0.17
	l0.146,0.161l0.145,0.144l0.109,0.106l0.135,0.125l0.14,0.139l0.12,0.111l0.13,0.12l0.105,0.099l0.14,0.12l0.13,0.12l0.115,0.08
	l0.104,0.101l0.111,0.084l0.09,0.065l0.099,0.08l0.12,0.096l0.115,0.089l0.126,0.09l0.134,0.1l0.121,0.09l0.084,0.056l0.071,0.055
	l0.079,0.055l0.086,0.06l0.074,0.05l0.066,0.036h-4.683l-2.771,2.771h27.853l2.762-2.771l-14.518-0.004l-0.314-0.006l-0.38-0.04
	l-0.551-0.044l-0.505-0.101l-0.39-0.071l-0.406-0.094l-0.35-0.076L77.3,85.801l-0.256-0.075l-0.404-0.145l-0.345-0.125l-0.296-0.105
	l-0.274-0.115l-0.286-0.145l-0.26-0.125l-0.335-0.155l-0.33-0.179l-0.295-0.176l-0.285-0.17l-0.216-0.14l-0.28-0.166l-0.256-0.19
	l-0.219-0.14l-0.215-0.16l-0.246-0.205l-0.249-0.2l-0.256-0.225l-0.244-0.21l-0.261-0.255l-0.24-0.235l-0.166-0.161l-0.195-0.235
	L70.737,81.6l-0.155-0.166l-0.195-0.24l-0.215-0.265c0,0-0.19-0.255-0.19-0.275c0-0.02-0.185-0.235-0.185-0.235l-0.21-0.315
	l-0.17-0.25l-0.17-0.265l-0.16-0.274l-0.135-0.231l-0.114-0.23l-0.172-0.315l-0.129-0.3l-0.125-0.291l-0.14-0.299l-0.096-0.225
	l-0.08-0.206l-0.084-0.259l-0.116-0.361l-0.12-0.379l-0.12-0.425l-0.076-0.366l-0.08-0.4l-0.075-0.34l-0.049-0.406l-0.04-0.379
	l-0.04-0.431l-0.02-0.25l-0.021-0.29v-0.265l0.005-0.25l0.015-0.26l0.009-0.415l0.019-0.311l0.015-0.326l0.026-0.225l0.04-0.31
	l0.045-0.285l0.035-0.291l0.049-0.245l0.065-0.305l0.05-0.25l0.045-0.189l0.065-0.25l0.071-0.215l0.08-0.301l0.08-0.215l0.105-0.3
	l0.1-0.28l0.1-0.246l0.11-0.31l0.141-0.299l0.101-0.181l0.114-0.245l0.13-0.262l0.105-0.194l0.145-0.255l0.165-0.256l0.111-0.2
	l0.13-0.19l0.189-0.275l0.16-0.229l0.145-0.215l0.15-0.201l0.13-0.179l0.12-0.136l0.146-0.16l0.114-0.145l0.111-0.12l0.135-0.134
	l0.115-0.141l0.169-0.155l0.151-0.155l0.301-0.291l0.105-0.109l0.14-0.125l0.14-0.126l0.125-0.115l0.15-0.129l0.175-0.136
	l0.165-0.125l0.166-0.13l0.17-0.105l0.205-0.156l0.196-0.139l0.21-0.135l0.15-0.111l0.2-0.114l0.181-0.111l0.135-0.089l0.17-0.075
	l0.13-0.08l0.175-0.09l0.195-0.101l0.195-0.089l0.114-0.071l0.185-0.069l0.16-0.071l0.185-0.085l0.151-0.064l0.148-0.061l0.146-0.05
	l0.08-0.035v13.042l2.786-2.776l0.005-10.985l0.035-0.015l0.12-0.02l0.141-0.015l0.19-0.031l0.185-0.015l0.118-0.004l0.002,0.002
	l0.048,0.004l0.232-0.025l0.25-0.015l0.303-0.01l0.933-0.004l0.34,0.017l0.29,0.021l0.218,0.02l0.208,0.022l0.224,0.028l0.168,0.025
	l0.151,0.02l0.005,13.762l2.794-2.776v-10.26l0.042,0.013l0.095,0.04l0.133,0.052l0.177,0.065l0.123,0.059l0.181,0.079l0.199,0.089
	l0.187,0.09l0.182,0.093l0.201,0.098l0.222,0.117l0.158,0.082l0.14,0.076l0.117,0.081l0.138,0.079l0.112,0.061l0.145,0.097
	l0.125,0.083l0.153,0.093l0.132,0.089l0.133,0.095l0.134,0.097l0.133,0.094l0.156,0.117l0.142,0.111l0.111,0.088l0.118,0.094
	l0.127,0.101l0.138,0.113l0.165,0.154l0.143,0.123l0.135,0.13l0.147,0.129l0.146,0.15l0.109,0.09l0.103,0.11l0.165,0.175
	l0.144,0.152l0.097,0.113l0.102,0.115l0.153,0.173l0.16,0.195l0.136,0.162l0.076,0.12l0.099,0.143l0.122,0.156l0.097,0.132
	l0.095,0.133l0.093,0.133l0.111,0.164l0.095,0.152l0.087,0.13l0.078,0.115l0.08,0.125l0.078,0.126l0.072,0.141l0.066,0.127
	l0.083,0.153l0.072,0.118l0.056,0.112l0.064,0.139l0.057,0.099l0.056,0.114l0.088,0.187l0.086,0.202l0.05,0.105l0.047,0.112
	l0.048,0.111l0.042,0.112l0.05,0.141l0.043,0.112l0.06,0.125l0.04,0.103l0.032,0.103l0.046,0.137l0.03,0.098l0.042,0.135l0.04,0.146
	l0.046,0.146l0.051,0.153l0.05,0.2l0.046,0.165l0.059,0.271l0.033,0.14l0.034,0.155l0.04,0.21l0.01,0.04l0.028,0.166l0.038,0.195
	l0.025,0.211l0.027,0.21l0.033,0.269l0.027,0.244l0.02,0.29l0.017,0.258l0.021,0.338l0.013,0.379l2.569-2.569l0.004-0.047
	l-0.016-0.111l-0.021-0.136l-0.025-0.144l-0.02-0.112l-0.029-0.173l-0.039-0.149l-0.023-0.141l-0.061-0.24l-0.031-0.128
	l-0.039-0.154l-0.049-0.176l-0.039-0.145l-0.039-0.15l-0.037-0.12l-0.041-0.141l-0.051-0.158l-0.053-0.165L97,67.034l-0.057-0.165
	l-0.051-0.161l-0.063-0.154l-0.053-0.132l-0.066-0.193l-0.064-0.147l-0.058-0.13l-0.067-0.16l-0.065-0.147l-0.079-0.188
	l-0.066-0.147l-0.072-0.134l-0.08-0.168l-0.065-0.127l-0.082-0.171l-0.071-0.127l-0.072-0.136l-0.082-0.144l-0.096-0.16
	l-0.086-0.163l-0.077-0.128l-0.081-0.14l-0.078-0.12l-0.079-0.143l-0.073-0.113l-0.09-0.126l-0.063-0.1l-0.065-0.086l-0.097-0.149
	l-0.099-0.141l-0.088-0.122l-0.08-0.113l-0.095-0.127l-0.098-0.128l-0.099-0.128l-0.059-0.084l-0.089-0.103l-0.059-0.07l-0.097-0.12
	l-0.09-0.107l-0.1-0.118l-0.153-0.181l-0.126-0.145l-0.118-0.118l-0.113-0.125l-0.125-0.126L93.03,60.63l-0.158-0.147l-0.13-0.127
	l-0.158-0.155l-0.143-0.137l-0.125-0.105l-0.164-0.155l-0.138-0.112L91.9,59.586l-0.153-0.118l-0.13-0.105l-0.151-0.124
	l-0.144-0.107l-0.16-0.114l-0.143-0.101l-0.163-0.128l-0.155-0.109l-0.125-0.093l-0.131-0.084l-0.137-0.088l-0.155-0.097
	l-0.165-0.105l-0.15-0.101l-0.13-0.078l-0.155-0.084l-0.137-0.08l-0.155-0.083l-0.162-0.095l-0.14-0.073l-0.163-0.086l-0.158-0.078
	l-0.14-0.069l-0.195-0.092l-0.175-0.083l-0.181-0.085l-0.223-0.097l-0.167-0.073l-0.193-0.074l-0.166-0.066l-0.152-0.055
	l-0.166-0.06l-0.222-0.084l-0.166-0.054L86.307,56.5l-0.153-0.046l-0.095-0.017l-0.004-6.307l-2.799,2.785l0.001,2.929l-0.224-0.035
	l-0.298-0.034l-0.238-0.026l-0.4-0.03l-0.372-0.013l-0.221-0.007l-0.535,0.006l-0.35,0.004l-0.409,0.015l-0.282,0.015l-0.074,0.017
	l-0.001,0.001l-0.242,0.02l-0.25,0.02l-0.175,0.036l-0.08,0.034L79.101,50.123z"/>
<path id="path2995_1_" fill="#232020" stroke="#000000" stroke-width="4" d="M125.942,12.844l-2.491,2.502l-0.311,0.285l0.01,3.521
	l-0.336,0.105l-0.273,0.096l-0.292,0.089l-0.22,0.095l-0.254,0.101l-0.281,0.105l-0.25,0.12l-0.254,0.109l-0.23,0.111l-0.195,0.089
	l-0.24,0.13l-0.19,0.111l-0.195,0.109l-0.239,0.129l-0.191,0.106l-0.274,0.165l-0.3,0.195l-0.325,0.22l-0.25,0.164l-0.286,0.216
	l-0.18,0.14l-0.23,0.181l-0.21,0.166l-0.226,0.181l-0.204,0.165l-0.16,0.16l-0.195,0.18l-0.355,0.336l-0.154,0.149l-0.126,0.13
	l-0.17,0.165l-0.205,0.221l-0.195,0.21l-0.124,0.166l-0.155,0.169l-0.141,0.185l-0.141,0.181l-0.135,0.179l-0.139,0.17l-0.127,0.17
	l-0.13,0.161l-0.099,0.148l-0.115,0.186l-0.121,0.195l-0.105,0.14l-0.099,0.149l-0.155,0.25l-0.07,0.145l-0.086,0.15l-0.119,0.195
	l-0.094,0.149l-0.057,0.151l-0.115,0.196l-0.109,0.199l-0.12,0.246l-0.091,0.231l-0.099,0.244l-0.101,0.206l-0.08,0.179l-0.075,0.21
	l-0.114,0.259l-0.09,0.271l-0.131,0.385l-0.07,0.235l-0.08,0.265l-0.068,0.245l-0.062,0.246l-0.155,0.68l-0.04,0.21l-0.065,0.246
	l-0.045,0.299l-0.03,0.201l-0.044,0.314l-0.045,0.347l-0.046,0.55l-0.034,0.385l-0.015,0.295l-0.006,0.355l0.006,0.865l0.009,0.285
	l0.029,0.41l0.027,0.335l0.023,0.24l0.025,0.256l0.025,0.206l0.044,0.254l0.036,0.245l0.035,0.22l0.045,0.221l0.039,0.189
	l0.061,0.266l0.055,0.23l0.051,0.234l0.079,0.256l0.065,0.26l0.064,0.221l0.061,0.189l0.065,0.221l0.075,0.205l0.076,0.221
	l0.084,0.215l0.075,0.189l0.069,0.165l0.096,0.234l0.095,0.231l0.104,0.215l0.091,0.215l0.091,0.176l0.09,0.16l0.105,0.229
	l0.094,0.176l0.096,0.18l0.104,0.182l0.064,0.113l0.065,0.109l0.094,0.156l0.086,0.145l0.08,0.126l0.096,0.13l0.08,0.14l0.125,0.19
	l0.109,0.16l0.12,0.16l0.085,0.131l0.096,0.124l0.12,0.155l0.099,0.129l0.141,0.171l0.177,0.21l0.144,0.189l0.17,0.187l0.127,0.154
	l0.133,0.135l0.161,0.171l0.146,0.16l0.145,0.145l0.109,0.106l0.136,0.124l0.14,0.14l0.121,0.11l0.13,0.121l0.104,0.099l0.141,0.12
	l0.13,0.12l0.115,0.08l0.104,0.101l0.11,0.084l0.091,0.065l0.099,0.08l0.12,0.097l0.115,0.088l0.126,0.091l0.134,0.1l0.121,0.09
	l0.084,0.056l0.071,0.056l0.079,0.055l0.086,0.06l0.074,0.05l0.066,0.036h-4.684l-2.771,2.771h27.853l2.762-2.771l-14.518-0.005
	l-0.314-0.006l-0.38-0.04l-0.551-0.045l-0.505-0.1l-0.391-0.071l-0.405-0.094l-0.35-0.075l-0.386-0.096l-0.256-0.074l-0.404-0.146
	l-0.345-0.125l-0.296-0.104l-0.274-0.115l-0.286-0.146l-0.26-0.125l-0.335-0.155l-0.33-0.18l-0.295-0.176l-0.284-0.17l-0.217-0.14
	l-0.279-0.165l-0.256-0.19l-0.22-0.14l-0.215-0.16l-0.245-0.205l-0.25-0.199l-0.256-0.226l-0.244-0.21l-0.261-0.256l-0.239-0.234
	l-0.166-0.162l-0.195-0.234l-0.154-0.164l-0.156-0.166l-0.195-0.239l-0.215-0.265c0,0-0.189-0.256-0.189-0.275
	s-0.186-0.236-0.186-0.236l-0.209-0.314l-0.171-0.251l-0.171-0.265l-0.159-0.274l-0.135-0.231l-0.114-0.229l-0.172-0.315
	l-0.129-0.299l-0.125-0.291l-0.141-0.3l-0.096-0.226l-0.08-0.205l-0.084-0.26l-0.115-0.361l-0.121-0.379l-0.119-0.426l-0.076-0.365
	l-0.08-0.4l-0.074-0.34L114.216,37l-0.04-0.379l-0.039-0.431l-0.02-0.251l-0.021-0.289v-0.266l0.006-0.25l0.016-0.26l0.009-0.414
	l0.019-0.312l0.016-0.325l0.026-0.226l0.04-0.31l0.045-0.285l0.035-0.291l0.049-0.245l0.064-0.305l0.051-0.25l0.045-0.189
	l0.064-0.25l0.071-0.215l0.08-0.301l0.08-0.215l0.104-0.3l0.1-0.28l0.101-0.246l0.11-0.31l0.141-0.299l0.1-0.181l0.115-0.245
	l0.13-0.262l0.104-0.194l0.146-0.255l0.165-0.256l0.11-0.2l0.13-0.19l0.189-0.275l0.16-0.229l0.146-0.215l0.149-0.201l0.131-0.179
	l0.119-0.136l0.146-0.16l0.113-0.145l0.111-0.12l0.135-0.134l0.115-0.141l0.169-0.155l0.151-0.155l0.301-0.291l0.104-0.109
	l0.14-0.125l0.141-0.126l0.125-0.115l0.15-0.129l0.174-0.136l0.165-0.125l0.166-0.13l0.17-0.105l0.204-0.156l0.196-0.139l0.21-0.135
	l0.15-0.111l0.199-0.114l0.181-0.111l0.135-0.089l0.171-0.075l0.13-0.08l0.175-0.09l0.195-0.101l0.195-0.089l0.114-0.071
	l0.185-0.069l0.16-0.071l0.186-0.085l0.15-0.064l0.148-0.061l0.146-0.05l0.08-0.035v13.042l2.786-2.776l0.006-10.985l0.034-0.015
	l0.12-0.02l0.141-0.015l0.189-0.031l0.186-0.015l0.117-0.004l0.002,0.002l0.049,0.004l0.231-0.025l0.25-0.015l0.304-0.01
	l0.933-0.004l0.34,0.017l0.29,0.021l0.219,0.02l0.207,0.022l0.225,0.028l0.168,0.025l0.15,0.02l0.005,13.763l2.794-2.777v-10.26
	l0.042,0.013l0.095,0.04l0.133,0.052l0.178,0.065l0.123,0.059l0.18,0.079l0.199,0.089l0.187,0.09l0.182,0.093l0.201,0.098
	l0.222,0.117l0.158,0.082l0.14,0.076l0.116,0.081l0.139,0.079l0.112,0.061l0.146,0.097l0.125,0.083l0.153,0.093l0.132,0.089
	l0.133,0.095l0.135,0.097l0.133,0.094l0.156,0.117l0.141,0.111l0.111,0.088l0.117,0.094l0.127,0.101l0.139,0.113l0.164,0.154
	l0.143,0.123l0.135,0.13l0.148,0.129l0.145,0.15l0.109,0.09l0.104,0.11l0.164,0.175l0.145,0.152l0.098,0.113l0.102,0.115
	l0.152,0.173l0.16,0.195l0.137,0.162l0.076,0.12l0.098,0.143l0.123,0.156l0.097,0.132l0.095,0.133l0.093,0.133l0.11,0.164
	l0.096,0.152l0.086,0.13l0.078,0.115l0.08,0.125l0.078,0.126l0.071,0.141l0.066,0.127l0.083,0.153l0.071,0.118l0.056,0.112
	l0.064,0.139l0.057,0.099l0.057,0.114l0.088,0.187l0.086,0.202l0.051,0.105l0.047,0.112l0.049,0.111l0.041,0.112l0.051,0.141
	l0.043,0.112l0.061,0.125l0.039,0.103l0.032,0.103l0.046,0.137l0.029,0.098l0.043,0.135l0.039,0.146l0.047,0.146l0.051,0.153
	l0.051,0.2l0.045,0.165l0.06,0.271l0.033,0.14l0.034,0.155l0.04,0.21l0.011,0.04l0.027,0.166l0.037,0.195l0.025,0.211l0.027,0.211
	l0.033,0.269l0.027,0.244l0.02,0.29l0.018,0.258l0.02,0.338l0.014,0.379l2.568-2.568l0.004-0.047l-0.016-0.111l-0.021-0.136
	l-0.025-0.144l-0.02-0.112l-0.029-0.173l-0.039-0.149l-0.023-0.141l-0.061-0.24l-0.031-0.128l-0.039-0.154l-0.049-0.176
	l-0.039-0.145l-0.039-0.15l-0.037-0.12l-0.041-0.141l-0.051-0.158l-0.053-0.165l-0.068-0.208l-0.057-0.165l-0.051-0.161
	l-0.063-0.154l-0.053-0.132l-0.066-0.193l-0.064-0.147l-0.058-0.13l-0.067-0.16l-0.065-0.147l-0.079-0.188l-0.066-0.147
	l-0.071-0.134L143,27.727l-0.065-0.127l-0.082-0.171l-0.07-0.127l-0.072-0.136l-0.082-0.144l-0.097-0.16l-0.087-0.163l-0.076-0.128
	l-0.081-0.14l-0.078-0.12l-0.079-0.143l-0.072-0.113l-0.091-0.126l-0.063-0.1l-0.065-0.086l-0.098-0.149l-0.099-0.141l-0.088-0.122
	l-0.08-0.113l-0.095-0.127l-0.099-0.128l-0.099-0.128l-0.059-0.084l-0.09-0.103l-0.059-0.07l-0.097-0.12l-0.09-0.107l-0.1-0.118
	l-0.153-0.181l-0.127-0.145l-0.117-0.118l-0.113-0.125l-0.125-0.126l-0.183-0.188l-0.157-0.147l-0.131-0.127l-0.157-0.155
	l-0.144-0.137l-0.125-0.105l-0.164-0.155l-0.138-0.112l-0.114-0.105l-0.153-0.118l-0.13-0.105l-0.15-0.124l-0.145-0.107l-0.16-0.114
	l-0.143-0.101l-0.162-0.128l-0.156-0.109l-0.124-0.093l-0.132-0.084l-0.137-0.088l-0.155-0.097l-0.165-0.105l-0.149-0.101
	l-0.13-0.078l-0.156-0.084l-0.137-0.08l-0.155-0.083l-0.162-0.095l-0.14-0.073l-0.163-0.086l-0.157-0.078l-0.141-0.069l-0.195-0.092
	l-0.174-0.083l-0.182-0.085l-0.223-0.097l-0.166-0.073l-0.193-0.074l-0.166-0.066l-0.152-0.055l-0.165-0.06l-0.222-0.084
	l-0.166-0.054l-0.188-0.064l-0.152-0.046l-0.096-0.017l-0.004-6.307l-2.799,2.785l0.002,2.929l-0.225-0.035l-0.299-0.034
	l-0.237-0.026l-0.399-0.03l-0.373-0.013l-0.221-0.007l-0.534,0.006l-0.35,0.004l-0.409,0.015l-0.282,0.015l-0.074,0.017
	l-0.001,0.001l-0.242,0.02l-0.25,0.02l-0.176,0.036l-0.08,0.034L125.942,12.844z"/>
</svg>
