<?xml version="1.0" encoding="utf-8"?>
<!-- Generator: Adobe Illustrator 16.0.0, SVG Export Plug-In . SVG Version: 6.00 Build 0)  -->
<!DOCTYPE svg PUBLIC "-//W3C//DTD SVG 1.1//EN" "http://www.w3.org/Graphics/SVG/1.1/DTD/svg11.dtd">
<svg version="1.1" xmlns="http://www.w3.org/2000/svg" xmlns:xlink="http://www.w3.org/1999/xlink" x="0px" y="0px"
	 width="198.43px" height="198.43px" viewBox="0 0 198.43 198.43" enable-background="new 0 0 198.43 198.43" xml:space="preserve">
<g id="Слой_1">
</g>
<g id="Слой_2">
	<g>
		<g>
			<path fill="#0D70DE" d="M187.246,82.839h-2.838v-8.525V44.007c0-9.924-8.072-17.995-17.994-17.995H88.379L35.735,10.97
				c-0.015-0.004-0.031-0.006-0.046-0.01c-0.016-0.005-0.029-0.01-0.046-0.014c-0.032-0.008-0.063-0.012-0.094-0.018
				c-0.049-0.01-0.098-0.022-0.147-0.03c-0.044-0.006-0.088-0.012-0.132-0.017c-0.052-0.007-0.103-0.012-0.154-0.015
				c-0.042-0.002-0.083-0.002-0.125-0.003c-0.053-0.001-0.105-0.001-0.159,0c-0.039,0.002-0.078,0.006-0.116,0.009
				c-0.055,0.006-0.108,0.01-0.162,0.018c-0.037,0.004-0.073,0.012-0.109,0.019c-0.055,0.009-0.109,0.021-0.164,0.033
				c-0.033,0.008-0.066,0.018-0.099,0.027c-0.056,0.017-0.11,0.033-0.165,0.052c-0.031,0.01-0.061,0.022-0.091,0.034
				c-0.056,0.022-0.11,0.044-0.164,0.069c-0.029,0.013-0.056,0.027-0.084,0.042c-0.053,0.027-0.106,0.053-0.156,0.084
				c-0.028,0.016-0.054,0.032-0.081,0.049c-0.051,0.031-0.1,0.063-0.149,0.1c-0.025,0.018-0.05,0.038-0.075,0.057
				c-0.047,0.036-0.093,0.072-0.138,0.112c-0.025,0.022-0.049,0.044-0.072,0.068c-0.042,0.04-0.083,0.079-0.123,0.12
				c-0.025,0.027-0.047,0.053-0.071,0.081c-0.036,0.042-0.071,0.083-0.106,0.126c-0.024,0.032-0.046,0.064-0.069,0.096
				c-0.03,0.042-0.06,0.084-0.087,0.128c-0.022,0.038-0.044,0.076-0.066,0.114c-0.024,0.041-0.048,0.085-0.07,0.127
				c-0.021,0.043-0.041,0.087-0.059,0.13c-0.02,0.043-0.038,0.086-0.055,0.13c-0.018,0.046-0.032,0.094-0.048,0.142
				c-0.01,0.03-0.021,0.059-0.031,0.09c-0.005,0.016-0.007,0.03-0.01,0.046c-0.004,0.015-0.011,0.03-0.015,0.046l-3.249,12.999
				h-9.148C9.9,26.011,1.84,34.05,1.807,43.945c0,0.021-0.002,0.041-0.002,0.061v98.499c0,1.569,1.277,2.843,2.841,2.843
				c1.568,0,2.842-1.273,2.842-2.843V57.112c3.221,3.028,7.554,4.891,12.313,4.891h146.613c0.003,0,0.005,0,0.01,0
				c6.784,0.004,12.301,5.524,12.301,12.311v19.892h-31.258c-0.003,0-0.003,0-0.005,0c-0.082,0-0.166,0.005-0.245,0.013
				c-0.092,0.006-0.182,0.019-0.268,0.037c-0.013,0-0.027,0.001-0.04,0.004c-0.073,0.015-0.146,0.034-0.219,0.055
				c-0.019,0.004-0.033,0.007-0.051,0.014c-0.063,0.019-0.124,0.042-0.188,0.065c-0.024,0.01-0.048,0.018-0.07,0.027
				c-0.053,0.021-0.104,0.047-0.154,0.07c-0.032,0.018-0.067,0.031-0.1,0.05c-0.039,0.02-0.076,0.044-0.115,0.065
				c-0.042,0.025-0.084,0.051-0.123,0.076c-0.03,0.019-0.053,0.04-0.083,0.06c-0.046,0.036-0.097,0.069-0.142,0.108
				c-0.021,0.017-0.038,0.035-0.058,0.053c-0.05,0.041-0.101,0.085-0.147,0.131c-0.029,0.027-0.054,0.06-0.079,0.088
				c-0.036,0.04-0.073,0.079-0.11,0.121c-0.059,0.071-0.111,0.146-0.163,0.223c-0.002,0.001-0.002,0.002-0.002,0.003l-15.154,22.733
				c-0.105,0.158-0.194,0.324-0.266,0.499c-0.026,0.067-0.047,0.132-0.071,0.198c-0.006,0.021-0.013,0.042-0.02,0.062
				c-0.023,0.066-0.039,0.139-0.053,0.209c-0.005,0.019-0.01,0.038-0.012,0.057c-0.016,0.063-0.021,0.128-0.032,0.192
				c-0.003,0.026-0.007,0.053-0.01,0.081c-0.006,0.053-0.009,0.105-0.009,0.158c-0.002,0.039-0.006,0.08-0.006,0.12
				c0,0.039,0.004,0.079,0.006,0.115c0,0.058,0.003,0.11,0.009,0.164c0.003,0.023,0.007,0.05,0.01,0.076
				c0.012,0.066,0.017,0.132,0.032,0.194c0.002,0.021,0.007,0.038,0.012,0.056c0.014,0.072,0.032,0.141,0.053,0.214
				c0.007,0.02,0.014,0.039,0.022,0.059c0.021,0.067,0.042,0.132,0.068,0.197c0.071,0.175,0.16,0.341,0.268,0.503l15.152,22.726
				c0,0,0,0.002,0.002,0.004c0.062,0.09,0.126,0.179,0.198,0.258c0.023,0.028,0.047,0.056,0.071,0.079
				c0.049,0.053,0.098,0.105,0.149,0.153c0.031,0.029,0.063,0.058,0.094,0.086c0.056,0.046,0.11,0.089,0.168,0.133
				c0.027,0.019,0.054,0.042,0.083,0.06c0.083,0.058,0.171,0.111,0.263,0.158c0.023,0.013,0.047,0.023,0.071,0.034
				c0.071,0.037,0.145,0.069,0.221,0.1c0.032,0.014,0.061,0.021,0.092,0.034c0.072,0.025,0.145,0.048,0.219,0.067
				c0.031,0.009,0.06,0.018,0.092,0.024c0.079,0.017,0.155,0.033,0.233,0.043c0.03,0.004,0.06,0.01,0.088,0.014
				c0.098,0.01,0.196,0.018,0.297,0.018c0.009,0,0.017,0.002,0.023,0.002c0.004,0,0.006,0,0.008,0h31.248v19.892
				c0,6.789-5.522,12.313-12.311,12.313H19.802c-6.788,0-12.312-5.523-12.312-12.313c0-0.017-0.002-0.028-0.002-0.045v-11.323
				c0-1.566-1.272-2.843-2.842-2.843c-1.563,0-2.841,1.276-2.841,2.843v11.368c0,0.029,0.005,0.056,0.006,0.087
				c0.047,9.881,8.099,17.908,17.991,17.908h146.612c9.922,0,17.994-8.072,17.996-17.991c0-0.002,0-0.002,0-0.002V145.35h2.839
				c4.698,0,8.521-3.824,8.521-8.523V91.362C195.771,86.663,191.947,82.839,187.246,82.839z M36.999,17.241l50.135,14.325
				c0.002,0.001,0.004,0.003,0.007,0.003l33.603,9.6H31.019L36.999,17.241z M178.725,61.208c-3.224-3.028-7.549-4.89-12.311-4.89
				c-0.008,0-0.009,0.001-0.016,0.001H19.801c-6.789,0-12.313-5.524-12.313-12.313c0-6.789,5.524-12.312,12.313-12.312h7.728
				l-2.368,9.473h-5.359c-1.568,0-2.841,1.272-2.841,2.841c0,1.57,1.273,2.842,2.841,2.842h7.568c0.003,0,0.008,0,0.012,0
				c0.003,0,0.006,0,0.008,0h113.631c0.002,0,0.005,0,0.01,0c0.002,0,0.004,0,0.009,0h21.581c1.57,0,2.841-1.272,2.841-2.842
				c0-1.569-1.271-2.841-2.841-2.841h-21.193l-33.158-9.473h58.142c6.791,0,12.313,5.523,12.313,12.312V61.208z M190.088,136.824
				L190.088,136.824c0,1.567-1.273,2.84-2.842,2.84h-38.259l-13.261-19.887l13.261-19.89h38.259c0.042,0,0.079-0.005,0.118-0.006
				c0.956-0.013,1.871-0.184,2.724-0.485V136.824z M187.246,94.201c-0.019,0-0.037,0.004-0.059,0.004h-2.779v-5.683h2.838
				c1.568,0,2.842,1.274,2.842,2.84C190.088,92.926,188.814,94.201,187.246,94.201z"/>
		</g>
	</g>
	<g>
		<g>
			<path fill="#0D70DE" d="M157.125,110.014c-6.013,0-10.901,4.891-10.901,10.9c0,6.012,4.889,10.901,10.901,10.901
				c6.009,0,10.898-4.89,10.898-10.901C168.023,114.904,163.134,110.014,157.125,110.014z M157.125,125.87
				c-2.734,0-4.955-2.223-4.955-4.956c0-2.731,2.221-4.956,4.955-4.956c2.73,0,4.952,2.225,4.952,4.956
				C162.077,123.647,159.855,125.87,157.125,125.87z"/>
		</g>
	</g>
	<g>
		<g id="XMLID_13_">
			<g id="XMLID_14_">
				<path id="XMLID_18_" fill="#EC950E" d="M91.663,124.285l18.059,13.539l4.485-5.982c2.508-3.346,1.829-8.09-1.516-10.598
					l-12.003-8.998l22.536-30.062c2.508-3.345,1.829-8.089-1.516-10.597l-5.982-4.485l-27.077,36.116
					C83.664,109.869,85.015,119.301,91.663,124.285L91.663,124.285z"/>
				
					<linearGradient id="XMLID_2_" gradientUnits="userSpaceOnUse" x1="207.4561" y1="-258.8101" x2="160.8724" y2="-305.3937" gradientTransform="matrix(-0.1416 -0.9899 0.9899 -0.1416 418.5703 244.1328)">
					<stop  offset="0" style="stop-color:#0183FD"/>
					<stop  offset="0.4954" style="stop-color:#0D6FDD"/>
					<stop  offset="0.6163" style="stop-color:#0F6CD8"/>
					<stop  offset="0.7523" style="stop-color:#1464CB"/>
					<stop  offset="0.895" style="stop-color:#1D57B4"/>
					<stop  offset="1" style="stop-color:#254B9F"/>
					<stop  offset="1" style="stop-color:#4B5B92"/>
				</linearGradient>
				<path id="XMLID_17_" fill="url(#XMLID_2_)" d="M88.649,103.219c-4.984,6.65-3.635,16.082,3.014,21.066l0,0l18.059,13.539
					l-6.02-4.514l0,0c-6.649-4.984-7.999-14.416-3.014-21.064l0,0l22.536-30.061c2.508-3.346,1.829-8.09-1.516-10.598l-5.982-4.485
					L88.649,103.219z"/>
				
					<linearGradient id="XMLID_3_" gradientUnits="userSpaceOnUse" x1="157.5381" y1="-308.7271" x2="203.6555" y2="-262.6096" gradientTransform="matrix(-0.1416 -0.9899 0.9899 -0.1416 418.5703 244.1328)">
					<stop  offset="0" style="stop-color:#15BAFF"/>
					<stop  offset="0.6061" style="stop-color:#0C71E0"/>
					<stop  offset="0.6988" style="stop-color:#0E6EDB"/>
					<stop  offset="0.8032" style="stop-color:#1366CE"/>
					<stop  offset="0.9127" style="stop-color:#1C59B7"/>
					<stop  offset="1" style="stop-color:#254BA0"/>
				</linearGradient>
				<path id="XMLID_16_" fill="url(#XMLID_3_)" d="M113.081,83.926l-18.052,24.078l0,0c-4.984,6.648-3.636,16.08,3.014,21.064l0,0
					l3.19,2.393l8.488,6.363l-6.02-4.514l0,0c-6.649-4.984-7.999-14.416-3.014-21.064l0,0l22.536-30.061
					c2.508-3.346,1.829-8.09-1.516-10.598l-5.982-4.485l-1.059,1.413C116.944,73.387,116.531,79.322,113.081,83.926z"/>
				
					<linearGradient id="XMLID_4_" gradientUnits="userSpaceOnUse" x1="155.1563" y1="-286.2329" x2="168.6469" y2="-299.7236" gradientTransform="matrix(-0.1416 -0.9899 0.9899 -0.1416 418.5703 244.1328)">
					<stop  offset="0" style="stop-color:#0084FF"/>
					<stop  offset="1" style="stop-color:#284799"/>
				</linearGradient>
				<path id="XMLID_15_" fill="url(#XMLID_4_)" d="M100.688,112.246L100.688,112.246c-4.984,6.648-3.635,16.08,3.014,21.064l0,0
					l6.021,4.514l4.484-5.982c2.509-3.346,1.829-8.09-1.516-10.598L100.688,112.246z"/>
			</g>
		</g>
	</g>
	<g>
		<g id="XMLID_19_">
			<g id="XMLID_20_">
				<path id="XMLID_24_" fill="#EC950E" d="M70.156,131.25l-13.502,18.088l5.991,4.473c3.35,2.502,8.094,1.813,10.595-1.537
					l8.974-12.021l30.106,22.477c3.351,2.5,8.094,1.813,10.594-1.539l4.474-5.99l-36.173-27.004
					C84.556,123.223,75.127,124.592,70.156,131.25L70.156,131.25z"/>
				
					<linearGradient id="XMLID_5_" gradientUnits="userSpaceOnUse" x1="126.8682" y1="40.3726" x2="80.2833" y2="-6.2123" gradientTransform="matrix(0.9896 -0.1436 0.1436 0.9896 -12.2412 150.7534)">
					<stop  offset="0" style="stop-color:#0183FD"/>
					<stop  offset="0.4954" style="stop-color:#0D6FDD"/>
					<stop  offset="0.6163" style="stop-color:#0F6CD8"/>
					<stop  offset="0.7523" style="stop-color:#1464CB"/>
					<stop  offset="0.895" style="stop-color:#1D57B4"/>
					<stop  offset="1" style="stop-color:#254B9F"/>
					<stop  offset="1" style="stop-color:#4B5B92"/>
				</linearGradient>
				<path id="XMLID_23_" fill="url(#XMLID_5_)" d="M91.215,128.195c-6.659-4.973-16.088-3.604-21.059,3.055l0,0l-13.502,18.088
					l4.5-6.029l0,0c4.972-6.66,14.4-8.027,21.06-3.057l0,0l30.106,22.477c3.351,2.5,8.094,1.813,10.594-1.539l4.474-5.99
					L91.215,128.195z"/>
				
					<linearGradient id="XMLID_6_" gradientUnits="userSpaceOnUse" x1="76.9492" y1="-9.5454" x2="123.0679" y2="36.5733" gradientTransform="matrix(0.9896 -0.1436 0.1436 0.9896 -12.2412 150.7534)">
					<stop  offset="0" style="stop-color:#15BAFF"/>
					<stop  offset="0.6061" style="stop-color:#0C71E0"/>
					<stop  offset="0.6988" style="stop-color:#0E6EDB"/>
					<stop  offset="0.8032" style="stop-color:#1366CE"/>
					<stop  offset="0.9127" style="stop-color:#1C59B7"/>
					<stop  offset="1" style="stop-color:#254BA0"/>
				</linearGradient>
				<path id="XMLID_22_" fill="url(#XMLID_6_)" d="M110.56,152.586l-24.115-18l0,0c-6.658-4.973-16.087-3.604-21.059,3.055l0,0
					L63,140.836l-6.346,8.502l4.5-6.029l0,0c4.972-6.66,14.4-8.027,21.06-3.057l0,0l30.106,22.477
					c3.351,2.5,8.094,1.813,10.594-1.539l4.474-5.99l-1.415-1.057C121.106,156.43,115.17,156.029,110.56,152.586z"/>
				
					<linearGradient id="XMLID_31_" gradientUnits="userSpaceOnUse" x1="74.5698" y1="12.9492" x2="88.0599" y2="-0.5409" gradientTransform="matrix(0.9896 -0.1436 0.1436 0.9896 -12.2412 150.7534)">
					<stop  offset="0" style="stop-color:#0084FF"/>
					<stop  offset="1" style="stop-color:#284799"/>
				</linearGradient>
				<path id="XMLID_21_" fill="url(#XMLID_31_)" d="M82.214,140.252L82.214,140.252c-6.659-4.971-16.088-3.602-21.06,3.057l0,0
					l-4.5,6.029l5.991,4.473c3.35,2.502,8.094,1.813,10.595-1.537L82.214,140.252z"/>
			</g>
		</g>
	</g>
	<g>
		<g id="XMLID_25_">
			<g id="XMLID_26_">
				<path id="XMLID_30_" fill="#EC950E" d="M86.05,101.488L99.122,83.09l-6.095-4.331c-3.407-2.421-8.134-1.622-10.556,1.786
					l-8.688,12.229l-30.628-21.76c-3.408-2.421-8.134-1.621-10.555,1.787l-4.331,6.095l36.799,26.146
					C71.844,109.854,81.237,108.264,86.05,101.488L86.05,101.488z"/>
				
					<linearGradient id="XMLID_32_" gradientUnits="userSpaceOnUse" x1="499.1494" y1="-206.0718" x2="452.5661" y2="-252.655" gradientTransform="matrix(-0.986 0.1669 -0.1669 -0.986 493.9053 -225.0811)">
					<stop  offset="0" style="stop-color:#0183FD"/>
					<stop  offset="0.4954" style="stop-color:#0D6FDD"/>
					<stop  offset="0.6163" style="stop-color:#0F6CD8"/>
					<stop  offset="0.7523" style="stop-color:#1464CB"/>
					<stop  offset="0.895" style="stop-color:#1D57B4"/>
					<stop  offset="1" style="stop-color:#254B9F"/>
					<stop  offset="1" style="stop-color:#4B5B92"/>
				</linearGradient>
				<path id="XMLID_29_" fill="url(#XMLID_32_)" d="M65.069,105.041c6.775,4.813,16.168,3.223,20.981-3.553l0,0L99.122,83.09
					l-4.357,6.133l0,0c-4.812,6.774-14.206,8.364-20.98,3.551l0,0l-30.628-21.76c-3.408-2.421-8.134-1.621-10.555,1.787
					l-4.331,6.095L65.069,105.041z"/>
				
					<linearGradient id="XMLID_33_" gradientUnits="userSpaceOnUse" x1="449.2324" y1="-255.9883" x2="495.351" y2="-209.8697" gradientTransform="matrix(-0.986 0.1669 -0.1669 -0.986 493.9053 -225.0811)">
					<stop  offset="0" style="stop-color:#15BAFF"/>
					<stop  offset="0.6061" style="stop-color:#0C71E0"/>
					<stop  offset="0.6988" style="stop-color:#0E6EDB"/>
					<stop  offset="0.8032" style="stop-color:#1366CE"/>
					<stop  offset="0.9127" style="stop-color:#1C59B7"/>
					<stop  offset="1" style="stop-color:#254BA0"/>
				</linearGradient>
				<path id="XMLID_28_" fill="url(#XMLID_33_)" d="M45.155,81.111l24.532,17.43l0,0c6.775,4.812,16.168,3.222,20.982-3.552l0,0
					l2.309-3.251l6.145-8.648l-4.357,6.134l0,0c-4.813,6.773-14.206,8.363-20.98,3.551l0,0L43.156,71.014
					c-3.408-2.421-8.134-1.621-10.555,1.787l-4.331,6.095l1.439,1.022C34.521,77.517,40.465,77.779,45.155,81.111z"/>
				
					<linearGradient id="XMLID_34_" gradientUnits="userSpaceOnUse" x1="446.8506" y1="-233.4946" x2="460.3401" y2="-246.9841" gradientTransform="matrix(-0.986 0.1669 -0.1669 -0.986 493.9053 -225.0811)">
					<stop  offset="0" style="stop-color:#0084FF"/>
					<stop  offset="1" style="stop-color:#284799"/>
				</linearGradient>
				<path id="XMLID_27_" fill="url(#XMLID_34_)" d="M73.784,92.773L73.784,92.773c6.774,4.813,16.168,3.224,20.98-3.551l0,0
					l4.357-6.133l-6.095-4.331c-3.407-2.421-8.134-1.622-10.556,1.786L73.784,92.773z"/>
			</g>
		</g>
	</g>
	<g>
		<g id="XMLID_7_">
			<g id="XMLID_8_">
				<path id="XMLID_12_" fill="#EC950E" d="M62.202,108.607l-18.387-13.09l-4.336,6.09c-2.425,3.406-1.629,8.133,1.777,10.557
					l12.22,8.701l-21.789,30.607c-2.425,3.404-1.63,8.133,1.776,10.557l6.092,4.336l26.179-36.775
					C70.553,122.822,68.973,113.426,62.202,108.607L62.202,108.607z"/>
				
					<linearGradient id="XMLID_35_" gradientUnits="userSpaceOnUse" x1="444.7285" y1="76.627" x2="398.145" y2="30.0434" gradientTransform="matrix(0.166 0.9861 -0.9861 0.166 23.8208 -292.7891)">
					<stop  offset="0" style="stop-color:#0183FD"/>
					<stop  offset="0.4954" style="stop-color:#0D6FDD"/>
					<stop  offset="0.6163" style="stop-color:#0F6CD8"/>
					<stop  offset="0.7523" style="stop-color:#1464CB"/>
					<stop  offset="0.895" style="stop-color:#1D57B4"/>
					<stop  offset="1" style="stop-color:#254B9F"/>
					<stop  offset="1" style="stop-color:#4B5B92"/>
				</linearGradient>
				<path id="XMLID_11_" fill="url(#XMLID_35_)" d="M65.734,129.59c4.819-6.768,3.239-16.164-3.532-20.982l0,0l-18.387-13.09
					l6.129,4.364l0,0c6.77,4.818,8.351,14.214,3.531,20.984l0,0l-21.789,30.607c-2.425,3.404-1.63,8.133,1.776,10.557l6.092,4.336
					L65.734,129.59z"/>
				
					<linearGradient id="XMLID_36_" gradientUnits="userSpaceOnUse" x1="394.8115" y1="26.7109" x2="440.928" y2="72.8275" gradientTransform="matrix(0.166 0.9861 -0.9861 0.166 23.8208 -292.7891)">
					<stop  offset="0" style="stop-color:#15BAFF"/>
					<stop  offset="0.6061" style="stop-color:#0C71E0"/>
					<stop  offset="0.6988" style="stop-color:#0E6EDB"/>
					<stop  offset="0.8032" style="stop-color:#1366CE"/>
					<stop  offset="0.9127" style="stop-color:#1C59B7"/>
					<stop  offset="1" style="stop-color:#254BA0"/>
				</linearGradient>
				<path id="XMLID_10_" fill="url(#XMLID_36_)" d="M41.785,149.482l17.453-24.516l0,0c4.82-6.77,3.238-16.166-3.532-20.984l0,0
					l-3.248-2.311l-8.644-6.154l6.129,4.364l0,0c6.77,4.818,8.351,14.214,3.531,20.984l0,0l-21.789,30.607
					c-2.425,3.404-1.63,8.133,1.776,10.557l6.092,4.336l1.024-1.438C38.182,160.113,38.449,154.17,41.785,149.482z"/>
				
					<linearGradient id="XMLID_37_" gradientUnits="userSpaceOnUse" x1="392.4336" y1="49.1982" x2="405.9236" y2="35.7082" gradientTransform="matrix(0.166 0.9861 -0.9861 0.166 23.8208 -292.7891)">
					<stop  offset="0" style="stop-color:#0084FF"/>
					<stop  offset="1" style="stop-color:#284799"/>
				</linearGradient>
				<path id="XMLID_9_" fill="url(#XMLID_37_)" d="M53.476,120.865L53.476,120.865c4.82-6.77,3.238-16.166-3.531-20.984l0,0
					l-6.129-4.364l-4.336,6.09c-2.425,3.406-1.629,8.133,1.777,10.559L53.476,120.865z"/>
			</g>
		</g>
	</g>
</g>
</svg>
