<?xml version="1.0" encoding="utf-8"?>
<!-- Generator: Adobe Illustrator 16.0.0, SVG Export Plug-In . SVG Version: 6.00 Build 0)  -->
<!DOCTYPE svg PUBLIC "-//W3C//DTD SVG 1.1//EN" "http://www.w3.org/Graphics/SVG/1.1/DTD/svg11.dtd">
<svg version="1.1" xmlns="http://www.w3.org/2000/svg" xmlns:xlink="http://www.w3.org/1999/xlink" x="0px" y="0px"
	 width="198.43px" height="198.43px" viewBox="0 0 198.43 198.43" enable-background="new 0 0 198.43 198.43" xml:space="preserve">
<g id="Слой_1">
</g>
<g id="Слой_2">
	<g>
		<g>
			<path d="M81.715,171.449h87.876c9.194,0,16.675-7.48,16.677-16.671c0-0.002,0-0.002,0-0.002v-18.435h2.63
				c4.354,0,7.896-3.543,7.896-7.898V86.315c0-4.354-3.543-7.897-7.899-7.897h-2.629v-7.9V42.434c0-9.195-7.48-16.674-16.675-16.674
				H97.283L48.5,11.821c-0.014-0.004-0.028-0.006-0.043-0.009c-0.014-0.005-0.027-0.01-0.042-0.014
				c-0.03-0.007-0.058-0.011-0.087-0.017c-0.045-0.009-0.091-0.02-0.137-0.027c-0.041-0.006-0.081-0.011-0.122-0.016
				c-0.048-0.006-0.096-0.01-0.143-0.014c-0.039-0.002-0.078-0.002-0.115-0.002c-0.05-0.001-0.098-0.001-0.147,0
				c-0.035,0.002-0.071,0.006-0.108,0.008c-0.05,0.005-0.101,0.009-0.15,0.017c-0.034,0.004-0.067,0.011-0.101,0.017
				c-0.051,0.009-0.102,0.019-0.152,0.031c-0.031,0.007-0.061,0.016-0.092,0.024c-0.051,0.015-0.102,0.03-0.153,0.048
				c-0.028,0.009-0.056,0.021-0.084,0.032c-0.052,0.021-0.102,0.041-0.152,0.064c-0.027,0.012-0.051,0.025-0.078,0.038
				c-0.049,0.025-0.099,0.05-0.145,0.079c-0.026,0.014-0.05,0.029-0.074,0.045c-0.047,0.029-0.093,0.059-0.138,0.092
				c-0.023,0.017-0.047,0.036-0.069,0.052c-0.043,0.034-0.086,0.068-0.127,0.104c-0.024,0.021-0.046,0.042-0.067,0.063
				c-0.039,0.036-0.078,0.074-0.114,0.112c-0.022,0.025-0.044,0.049-0.066,0.075c-0.033,0.039-0.066,0.077-0.099,0.117
				c-0.021,0.029-0.042,0.06-0.064,0.089c-0.027,0.039-0.055,0.077-0.081,0.119c-0.021,0.035-0.042,0.07-0.062,0.105
				c-0.023,0.038-0.044,0.079-0.065,0.118c-0.019,0.04-0.037,0.081-0.055,0.12s-0.034,0.08-0.05,0.121
				c-0.017,0.042-0.03,0.086-0.045,0.131c-0.009,0.028-0.02,0.055-0.028,0.084c-0.004,0.015-0.006,0.028-0.009,0.042
				c-0.004,0.014-0.01,0.028-0.014,0.042l-3.01,12.046h-8.477c-9.175,0-16.644,7.449-16.674,16.618c0,0.02-0.002,0.038-0.002,0.056
				V103c0,1.454,1.095,2.78,2.545,2.78c1.453,0,2.721-1.529,2.721-2.984V54.578c2.985,2.806,7,4.532,11.411,4.532h135.856
				c0.004,0,0.006,0,0.009,0C175.888,59.114,181,64.229,181,70.518V88.95h-28.966c-0.003,0-0.003,0-0.005,0
				c-0.075,0-0.152,0.004-0.227,0.012c-0.085,0.006-0.167,0.018-0.248,0.035c-0.011,0-0.024,0.001-0.035,0.004
				c-0.069,0.014-0.138,0.032-0.204,0.051c-0.017,0.004-0.031,0.006-0.047,0.012c-0.058,0.017-0.115,0.04-0.174,0.061
				c-0.023,0.009-0.046,0.017-0.067,0.025c-0.049,0.02-0.095,0.044-0.142,0.066c-0.03,0.015-0.063,0.028-0.092,0.045
				c-0.037,0.019-0.071,0.041-0.106,0.061c-0.041,0.023-0.08,0.046-0.115,0.071c-0.027,0.017-0.049,0.037-0.077,0.055
				c-0.043,0.034-0.09,0.064-0.131,0.1c-0.019,0.016-0.036,0.032-0.055,0.048c-0.044,0.039-0.092,0.08-0.135,0.122
				c-0.027,0.026-0.05,0.055-0.074,0.082c-0.033,0.038-0.068,0.074-0.103,0.112c-0.054,0.066-0.102,0.136-0.15,0.208
				c-0.001,0-0.001,0.001-0.001,0.002l-14.044,21.065c-0.097,0.147-0.18,0.3-0.246,0.463c-0.023,0.062-0.043,0.122-0.065,0.182
				c-0.005,0.021-0.013,0.04-0.019,0.058c-0.021,0.063-0.036,0.13-0.048,0.194c-0.004,0.017-0.01,0.034-0.012,0.053
				c-0.014,0.059-0.019,0.117-0.03,0.179c-0.002,0.023-0.006,0.048-0.009,0.075c-0.004,0.048-0.008,0.097-0.008,0.146
				c-0.002,0.035-0.006,0.075-0.006,0.111c0,0.035,0.004,0.073,0.006,0.106c0,0.054,0.004,0.103,0.008,0.152
				c0.003,0.022,0.007,0.047,0.009,0.07c0.012,0.063,0.017,0.122,0.03,0.181c0.002,0.019,0.008,0.035,0.012,0.051
				c0.012,0.067,0.029,0.132,0.048,0.199c0.006,0.019,0.014,0.037,0.021,0.055c0.021,0.062,0.04,0.122,0.063,0.182
				c0.066,0.163,0.149,0.315,0.248,0.468l14.042,21.058c0,0,0,0.002,0.001,0.004c0.057,0.083,0.117,0.164,0.184,0.238
				c0.021,0.026,0.043,0.052,0.066,0.073c0.045,0.049,0.09,0.098,0.139,0.143c0.029,0.025,0.058,0.053,0.087,0.079
				c0.053,0.042,0.101,0.082,0.155,0.123c0.024,0.017,0.05,0.039,0.076,0.056c0.078,0.052,0.158,0.102,0.245,0.146
				c0.021,0.01,0.043,0.021,0.064,0.03c0.066,0.035,0.134,0.065,0.205,0.093c0.03,0.013,0.057,0.021,0.085,0.032
				c0.066,0.023,0.135,0.044,0.203,0.062c0.028,0.009,0.056,0.016,0.085,0.022c0.073,0.016,0.144,0.031,0.217,0.041
				c0.027,0.004,0.054,0.008,0.081,0.013c0.09,0.01,0.182,0.016,0.274,0.016c0.009,0,0.015,0.002,0.022,0.002
				c0.004,0,0.006,0,0.008,0H181v18.433c0,6.291-5.118,11.408-11.408,11.408H81.58 M17.06,154.774 M49.671,17.632l46.458,13.273
				c0.002,0.001,0.004,0.003,0.007,0.003l31.138,8.896H44.129L49.671,17.632z M181,58.374c-2.987-2.806-6.997-4.531-11.408-4.531
				c-0.007,0-0.008,0.001-0.014,0.001H33.736c-6.291,0-11.41-5.119-11.41-11.41c0-6.291,5.119-11.409,11.41-11.409h7.161
				l-2.195,8.779h-4.965c-1.454,0-2.633,1.178-2.633,2.633c0,1.454,1.179,2.633,2.633,2.633h7.013c0.003,0,0.008,0,0.011,0
				c0.002,0,0.006,0,0.007,0h105.295c0.002,0,0.005,0,0.009,0c0.002,0,0.004,0,0.007,0h19.999c1.455,0,2.633-1.179,2.633-2.633
				c0-1.455-1.178-2.633-2.633-2.633h-19.639l-30.726-8.779h53.877c6.292,0,11.41,5.118,11.41,11.409V58.374z M191.528,128.441
				L191.528,128.441c0,1.453-1.181,2.633-2.633,2.633h-35.451l-12.288-18.43l12.288-18.43h35.451c0.04,0,0.073-0.004,0.11-0.005
				c0.886-0.013,1.734-0.17,2.522-0.451V128.441z M188.896,88.946c-0.017,0-0.034,0.003-0.055,0.003h-2.574v-5.266h2.629
				c1.452,0,2.633,1.181,2.633,2.632C191.528,87.765,190.348,88.946,188.896,88.946z"/>
		</g>
	</g>
	<g>
		<g>
			<path d="M165.493,103.532c-5.571,0-10.102,4.529-10.102,10.099c0,5.572,4.53,10.103,10.102,10.103
				c5.568,0,10.099-4.53,10.099-10.103C175.592,108.062,171.062,103.532,165.493,103.532z M165.493,118.223
				c-2.533,0-4.592-2.059-4.592-4.592c0-2.53,2.059-4.592,4.592-4.592c2.53,0,4.589,2.062,4.589,4.592
				C170.082,116.164,168.023,118.223,165.493,118.223z"/>
		</g>
	</g>
	<circle fill="none" stroke="#000000" stroke-width="5" cx="42.887" cy="145.908" r="38.895"/>
	<text transform="matrix(1 0 0 1 18.6289 167.1543)" font-family="'MyriadHebrew-Bold'" font-size="81.4086">+</text>
	<ellipse cx="81.783" cy="168.817" rx="2.533" ry="2.632"/>
</g>
</svg>
