<svg width="42" height="42" viewBox="0 0 42 42" fill="none" xmlns="http://www.w3.org/2000/svg">
<path d="M30.5975 21.9507C36.4416 21.9507 41.1791 17.2132 41.1791 11.3691C41.1791 5.52503 36.4416 0.787476 30.5975 0.787476C24.7534 0.787476 20.0159 5.52503 20.0159 11.3691C20.0159 17.2132 24.7534 21.9507 30.5975 21.9507Z" fill="#463192"/>
<path d="M30.5974 19.403C35.0344 19.403 38.6313 15.8061 38.6313 11.3691C38.6313 6.9321 35.0344 3.33521 30.5974 3.33521C26.1604 3.33521 22.5635 6.9321 22.5635 11.3691C22.5635 15.8061 26.1604 19.403 30.5974 19.403Z" fill="#463192"/>
<path d="M11.4027 41.1798C17.2467 41.1798 21.9843 36.4423 21.9843 30.5982C21.9843 24.7542 17.2467 20.0166 11.4027 20.0166C5.5586 20.0166 0.821045 24.7542 0.821045 30.5982C0.821045 36.4423 5.5586 41.1798 11.4027 41.1798Z" fill="#463192"/>
<path d="M11.4028 38.6321C15.8398 38.6321 19.4367 35.0352 19.4367 30.5982C19.4367 26.1612 15.8398 22.5643 11.4028 22.5643C6.96579 22.5643 3.3689 26.1612 3.3689 30.5982C3.3689 35.0352 6.96579 38.6321 11.4028 38.6321Z" fill="#463192"/>
<path d="M31.2926 5.99402V6.09327L31.3893 6.11576C32.8093 6.44619 33.8537 7.63907 33.8537 9.04459C33.8537 9.42862 33.5424 9.73991 33.1584 9.73991C32.7744 9.73991 32.4631 9.42862 32.4631 9.04459C32.4631 8.41355 32.0526 7.87542 31.4701 7.60532L31.2925 7.52297V7.71872V10.6428V10.7421L31.3892 10.7646C32.8092 11.095 33.8536 12.2878 33.8536 13.6934C33.8536 15.099 32.8092 16.2918 31.3892 16.6221L31.2925 16.6446V16.7439V17.0736C31.2925 17.4576 30.9813 17.7689 30.5972 17.7689C30.2132 17.7689 29.9019 17.4576 29.9019 17.0736V16.7439V16.6446L29.8052 16.6221C28.3852 16.2918 27.3408 15.0989 27.3408 13.6934C27.3408 13.3094 27.6521 12.9981 28.0361 12.9981C28.4202 12.9981 28.7314 13.3094 28.7314 13.6934C28.7314 14.3244 29.142 14.8625 29.7244 15.1326L29.902 15.2149V15.0192V12.0952V11.9959L29.8053 11.9734C28.3853 11.643 27.3409 10.4503 27.3409 9.04459C27.3409 7.6389 28.3854 6.44611 29.8053 6.11576L29.902 6.09327V5.99402V5.75342C29.902 5.36939 30.2133 5.05811 30.5973 5.05811C30.9813 5.05811 31.2926 5.36939 31.2926 5.75342V5.99402ZM29.9021 7.71872V7.523L29.7245 7.60532C29.142 7.87534 28.7315 8.41356 28.7315 9.04459C28.7315 9.67571 29.142 10.2138 29.7245 10.4839L29.9021 10.5663V10.3705V7.71872ZM31.2925 15.019V15.2147L31.4701 15.1324C32.0526 14.8625 32.4631 14.3243 32.4631 13.6932C32.4631 13.0622 32.0526 12.5241 31.4701 12.2539L31.2925 12.1715V12.3673V15.019Z" fill="white" stroke="#463192" stroke-width="0.25"/>
<path d="M9.22743 35.6826V35.5576L9.10242 35.5576L8.03955 35.5577C7.65553 35.5577 7.34424 35.2464 7.34424 34.8624C7.34424 34.4784 7.65553 34.1671 8.03955 34.1671H8.20017H8.32517V34.0421V27.1517V27.0267H8.20017H8.03955C7.65553 27.0267 7.34424 26.7154 7.34424 26.3314C7.34424 25.9474 7.65553 25.6361 8.03955 25.6361H9.10243H9.22743V25.5111V24.9129C9.22743 24.5289 9.53872 24.2176 9.92274 24.2176C10.3068 24.2176 10.6181 24.5289 10.6181 24.9129V25.5111V25.6361H10.7431H11.3173H11.4423V25.5111V24.9129C11.4423 24.5289 11.7536 24.2176 12.1376 24.2176C12.5216 24.2176 12.8329 24.5289 12.8329 24.9129V25.7054V25.7914L12.9132 25.8221C13.9768 26.2292 14.734 27.26 14.734 28.4641C14.734 29.2663 14.3977 29.991 13.8588 30.5065L13.7644 30.5968L13.8588 30.6872C14.3977 31.2027 14.734 31.9274 14.734 32.7296C14.734 33.9338 13.9769 34.9645 12.9132 35.3715L12.8329 35.4023V35.4883V36.2423C12.8329 36.6263 12.5216 36.9376 12.1376 36.9376C11.7536 36.9376 11.4423 36.6263 11.4423 36.2423V35.6826V35.5576H11.3173H10.7431H10.6181V35.6826V36.2423C10.6181 36.6263 10.3068 36.9376 9.92274 36.9376C9.53872 36.9376 9.22743 36.6263 9.22743 36.2423V35.6826ZM9.71571 34.042V34.167H9.84071H11.9058C12.6985 34.167 13.3433 33.5223 13.3433 32.7296C13.3433 31.9369 12.6986 31.2922 11.9058 31.2922H9.84071H9.71571V31.4172V34.042ZM9.71571 29.7765V29.9015H9.84071H11.9058C12.6987 29.9015 13.3433 29.2566 13.3433 28.464C13.3433 27.6714 12.6986 27.0266 11.9058 27.0266H9.84071H9.71571V27.1516V29.7765Z" fill="white" stroke="#463192" stroke-width="0.25"/>
<path d="M4.69666 16.3035C4.85687 16.4637 5.06679 16.5437 5.2767 16.5437C5.48662 16.5437 5.69662 16.4637 5.85675 16.3035L7.16293 14.9973C7.48326 14.6769 7.48326 14.1575 7.16293 13.8371C6.86425 13.5384 6.39266 13.5185 6.0706 13.7768V6.07031H15.2235C15.6765 6.07031 16.0438 5.70306 16.0438 5.25C16.0438 4.79694 15.6765 4.42969 15.2235 4.42969H5.25045C4.7974 4.42969 4.43014 4.79694 4.43014 5.25V13.738C4.11096 13.5215 3.67324 13.5543 3.3904 13.837C3.07006 14.1574 3.07006 14.6768 3.3904 14.9972L4.69666 16.3035Z" fill="#463192"/>
<path d="M37.303 25.6956C36.9827 25.3753 36.4633 25.3753 36.1429 25.6956L34.8368 27.0018C34.5164 27.3221 34.5164 27.8416 34.8368 28.1619C35.1354 28.4606 35.607 28.4805 35.9291 28.2222V35.9286H26.7761C26.3231 35.9286 25.9558 36.2959 25.9558 36.7489C25.9558 37.202 26.3231 37.5692 26.7761 37.5692H36.7493C37.2024 37.5692 37.5696 37.202 37.5696 36.7489V28.261C37.708 28.3548 37.8685 28.4023 38.0293 28.4023C38.2392 28.4023 38.4492 28.3222 38.6094 28.162C38.9297 27.8417 38.9297 27.3222 38.6094 27.0019L37.303 25.6956Z" fill="#463192"/>
</svg>
