<svg width="41" height="41" viewBox="0 0 41 41" fill="none" xmlns="http://www.w3.org/2000/svg">
<path d="M37.8603 9H40V1.40403C40 1.18087 39.2902 1 38.4147 1H2.58529C1.70977 1 1 1.18089 1 1.40403V8.99998H12.2345H37.8603V9Z" fill="#463192"/>
<path d="M4.64453 5.72632C5.35215 5.72632 5.92578 5.15268 5.92578 4.44507C5.92578 3.73745 5.35215 3.16382 4.64453 3.16382C3.93692 3.16382 3.36328 3.73745 3.36328 4.44507C3.36328 5.15268 3.93692 5.72632 4.64453 5.72632Z" fill="white"/>
<path d="M9.76953 5.72632C10.4771 5.72632 11.0508 5.15268 11.0508 4.44507C11.0508 3.73745 10.4771 3.16382 9.76953 3.16382C9.06192 3.16382 8.48828 3.73745 8.48828 4.44507C8.48828 5.15268 9.06192 5.72632 9.76953 5.72632Z" fill="white"/>
<path d="M14.894 5.72632C15.6017 5.72632 16.1753 5.15268 16.1753 4.44507C16.1753 3.73745 15.6017 3.16382 14.894 3.16382C14.1864 3.16382 13.6128 3.73745 13.6128 4.44507C13.6128 5.15268 14.1864 5.72632 14.894 5.72632Z" fill="white"/>
<path d="M35.1255 30.5891C35.1255 35.4818 31.1591 39.4482 26.2664 39.4482C21.3736 39.4482 17.4072 35.4818 17.4072 30.5891C17.4072 25.6963 21.3736 21.7299 26.2664 21.7299C31.1591 21.7299 35.1255 25.6963 35.1255 30.5891Z" fill="#463192" stroke="#463192" stroke-width="1.5"/>
<path d="M24.604 34.8296V34.7046L24.479 34.7046L23.6442 34.7047C23.3663 34.7047 23.125 34.4584 23.125 34.134C23.125 33.8095 23.3663 33.5632 23.6442 33.5632H23.7704H23.8954V33.4382V27.5945V27.4695H23.7704H23.6442C23.3663 27.4695 23.125 27.2232 23.125 26.8987C23.125 26.5743 23.3663 26.328 23.6442 26.328H24.479H24.604V26.203V25.6957C24.604 25.3713 24.8453 25.125 25.1232 25.125C25.4012 25.125 25.6425 25.3713 25.6425 25.6957V26.203V26.328H25.7675H26.2185H26.3435V26.203V25.6957C26.3435 25.3713 26.5848 25.125 26.8627 25.125C27.1406 25.125 27.382 25.3713 27.382 25.6957V26.3678V26.4514L27.4592 26.4834C28.282 26.8234 28.875 27.6887 28.875 28.7075C28.875 29.3856 28.6118 29.9964 28.1926 30.4294L28.1084 30.5163L28.1926 30.6033C28.6118 31.0363 28.875 31.6471 28.875 32.3251C28.875 33.344 28.282 34.2093 27.4592 34.5493L27.382 34.5812V34.6648V35.3043C27.382 35.6287 27.1406 35.875 26.8627 35.875C26.5848 35.875 26.3435 35.6287 26.3435 35.3043V34.8296V34.7046H26.2185H25.7675H25.6425V34.8296V35.3043C25.6425 35.6287 25.4012 35.875 25.1232 35.875C24.8453 35.875 24.604 35.6287 24.604 35.3043V34.8296ZM24.9338 33.4382V33.5632H25.0588H26.6807C27.3269 33.5632 27.8364 32.9987 27.8364 32.3251C27.8364 31.6515 27.327 31.087 26.6807 31.087H25.0588H24.9338V31.212V33.4382ZM24.9338 29.8206V29.9456H25.0588H26.6807C27.3271 29.9456 27.8364 29.3809 27.8364 28.7075C27.8364 28.034 27.327 27.4694 26.6807 27.4694H25.0588H24.9338V27.5944V29.8206Z" fill="white" stroke="#463192" stroke-width="0.25"/>
<path d="M38.5977 0.00274658H2.40226C1.07769 0.00274658 0 1.08044 0 2.40501V32.5136C0 32.9559 0.35851 33.3144 0.800781 33.3144H13.1913C13.6335 33.3144 13.9921 32.9559 13.9921 32.5136C13.9921 32.0713 13.6335 31.7128 13.1913 31.7128H1.60148V8.97126H29.7893C30.2316 8.97126 30.5901 8.61275 30.5901 8.17047C30.5901 7.7282 30.2316 7.36969 29.7893 7.36969H1.60148V2.40501C1.60148 1.96346 1.96071 1.60423 2.40226 1.60423H38.5977C39.0393 1.60423 39.3985 1.96346 39.3985 2.40501V7.36969H36.6759C36.2337 7.36969 35.8752 7.7282 35.8752 8.17047C35.8752 8.61275 36.2337 8.97126 36.6759 8.97126H39.3985V31.7129H38.838C38.3957 31.7129 38.0372 32.0714 38.0372 32.5137C38.0372 32.9559 38.3957 33.3144 38.838 33.3144H40.1993C40.6416 33.3144 41.0001 32.9559 41.0001 32.5137V2.40501C41 1.08044 39.9223 0.00274658 38.5977 0.00274658Z" fill="#463192"/>
<path d="M24.0879 17.1372C24.0879 17.5795 24.4464 17.938 24.8887 17.938H35.8752C36.3175 17.938 36.676 17.5795 36.676 17.1372C36.676 16.6949 36.3175 16.3364 35.8752 16.3364H24.8887C24.4464 16.3364 24.0879 16.6949 24.0879 17.1372Z" fill="#463192"/>
<path d="M17.9289 21.6215C17.9289 21.1792 17.5704 20.8207 17.1281 20.8207H5.12598C4.68371 20.8207 4.3252 21.1792 4.3252 21.6215C4.3252 22.0638 4.68371 22.4223 5.12598 22.4223H17.1281C17.5704 22.4223 17.9289 22.0638 17.9289 21.6215Z" fill="#463192"/>
<path d="M5.12598 25.305C4.68371 25.305 4.3252 25.6635 4.3252 26.1058C4.3252 26.5481 4.68371 26.9066 5.12598 26.9066H9.95717C10.3994 26.9066 10.758 26.5481 10.758 26.1058C10.758 25.6635 10.3994 25.305 9.95717 25.305H5.12598Z" fill="#463192"/>
<path d="M28.314 12.653C28.314 13.0952 28.6725 13.4537 29.1147 13.4537H35.8675C36.3098 13.4537 36.6683 13.0952 36.6683 12.653C36.6683 12.2107 36.3098 11.8522 35.8675 11.8522H29.1147C28.6725 11.8522 28.314 12.2107 28.314 12.653Z" fill="#463192"/>
<path d="M25.2248 11.8522H16.6572C16.215 11.8522 15.8564 12.2107 15.8564 12.653C15.8564 13.0952 16.215 13.4537 16.6572 13.4537H25.2248C25.6671 13.4537 26.0256 13.0952 26.0256 12.653C26.0256 12.2107 25.6671 11.8522 25.2248 11.8522Z" fill="#463192"/>
<path d="M5.1333 13.4537H13.1911C13.6334 13.4537 13.9919 13.0952 13.9919 12.653C13.9919 12.2107 13.6334 11.8522 13.1911 11.8522H5.1333C4.69103 11.8522 4.33252 12.2107 4.33252 12.653C4.33252 13.0952 4.69111 13.4537 5.1333 13.4537Z" fill="#463192"/>
<path d="M5.12598 17.9379H21.2567C21.6989 17.9379 22.0575 17.5794 22.0575 17.1371C22.0575 16.6948 21.6989 16.3363 21.2567 16.3363H5.12598C4.68371 16.3363 4.3252 16.6948 4.3252 17.1371C4.3252 17.5794 4.68379 17.9379 5.12598 17.9379Z" fill="#463192"/>
</svg>
