<svg width="12" height="14" viewBox="0 0 12 14" fill="none" xmlns="http://www.w3.org/2000/svg">
<path d="M6 6.84692C7.55655 6.84692 8.81851 5.3142 8.81851 3.42348C8.81851 1.53272 8.40419 0 6 0C3.5958 0 3.1814 1.53272 3.1814 3.42348C3.1814 5.3142 4.44336 6.84692 6 6.84692Z" fill="white"/>
<path d="M0.676335 12.0741C0.675855 11.9589 0.675376 12.0417 0.676335 12.0741V12.0741Z" fill="white"/>
<path d="M11.3232 12.1642C11.3248 12.1326 11.3238 11.9452 11.3232 12.1642V12.1642Z" fill="white"/>
<path d="M11.3174 11.9359C11.2652 8.64222 10.835 7.7037 7.54327 7.10962C7.54327 7.10962 7.07991 7.70006 5.99991 7.70006C4.91991 7.70006 4.45647 7.10962 4.45647 7.10962C1.20067 7.69722 0.74435 8.62182 0.68435 11.8289C0.67943 12.0908 0.67715 12.1045 0.67627 12.0741C0.67647 12.1311 0.676709 12.2365 0.676709 12.4202C0.676709 12.4202 1.46039 14 5.99991 14C10.5394 14 11.3231 12.4202 11.3231 12.4202C11.3231 12.3021 11.3232 12.2201 11.3233 12.1642C11.3224 12.183 11.3207 12.1466 11.3174 11.9359Z" fill="white"/>
</svg>
