<svg width="41" height="37" viewBox="0 0 41 37" fill="none" xmlns="http://www.w3.org/2000/svg">
<path d="M16.0156 4.64453H11.5312V6.88672H16.0156V4.64453Z" fill="white"/>
<path d="M29.4688 4.64453H24.9844V6.88672H29.4688V4.64453Z" fill="white"/>
<rect x="1" y="19" width="39" height="17" fill="#463192"/>
<path d="M37 19H40V17L37 19Z" fill="#463192"/>
<path d="M4 19H1V17L4 19Z" fill="#463192"/>
<path d="M29.3594 21.9414C29.3594 26.8343 25.3929 30.8008 20.5 30.8008C15.6071 30.8008 11.6406 26.8343 11.6406 21.9414C11.6406 17.0485 15.6071 13.082 20.5 13.082C25.3929 13.082 29.3594 17.0485 29.3594 21.9414Z" fill="white" stroke="#463192" stroke-width="1.5"/>
<path d="M18.8505 26.7232V26.5982L18.7255 26.5982L17.7516 26.5983C17.4067 26.5983 17.125 26.3156 17.125 25.9643C17.125 25.613 17.4067 25.3304 17.7516 25.3304H17.8988H18.0238V25.2054V18.8303V18.7053H17.8988H17.7516C17.4067 18.7053 17.125 18.4226 17.125 18.0714C17.125 17.7201 17.4067 17.4374 17.7516 17.4374H18.7255H18.8505V17.3124V16.759C18.8505 16.4077 19.1322 16.125 19.4771 16.125C19.8221 16.125 20.1037 16.4077 20.1037 16.759V17.3124V17.4374H20.2287H20.7549H20.8799V17.3124V16.759C20.8799 16.4077 21.1616 16.125 21.5065 16.125C21.8514 16.125 22.1331 16.4077 22.1331 16.759V17.4922V17.5779L22.2131 17.6088C23.1834 17.9837 23.875 18.9338 23.875 20.0446C23.875 20.7845 23.5679 21.4527 23.0759 21.9279L22.9828 22.0178L23.0759 22.1077C23.5679 22.5829 23.875 23.2511 23.875 23.991C23.875 25.1019 23.1834 26.0519 22.2131 26.4268L22.1331 26.4577V26.5434V27.241C22.1331 27.5923 21.8514 27.875 21.5065 27.875C21.1616 27.875 20.8799 27.5923 20.8799 27.241V26.7232V26.5982H20.7549H20.2287H20.1037V26.7232V27.241C20.1037 27.5923 19.8221 27.875 19.4771 27.875C19.1322 27.875 18.8505 27.5923 18.8505 27.241V26.7232ZM19.277 25.2053V25.3303H19.402H21.2942C22.0273 25.3303 22.6217 24.7285 22.6217 23.991C22.6217 23.2536 22.0275 22.6518 21.2942 22.6518H19.402H19.277V22.7768V25.2053ZM19.277 21.2588V21.3838H19.402H21.2942C22.0275 21.3838 22.6217 20.7818 22.6217 20.0445C22.6217 19.3071 22.0274 18.7052 21.2942 18.7052H19.402H19.277V18.8302V21.2588Z" fill="#463192" stroke="#463192" stroke-width="0.25"/>
<path d="M40.1992 6.08594H30.2695V4.64453C30.2695 4.20226 29.9109 3.84375 29.4688 3.84375H28.0273V2.40234C28.0273 1.07769 26.9497 0 25.625 0H15.375C14.0503 0 12.9727 1.07769 12.9727 2.40234V3.84375H11.5312C11.0891 3.84375 10.7305 4.20226 10.7305 4.64453V6.08594H0.800781C0.35859 6.08594 0 6.44445 0 6.88672V34.9141C0 35.8855 0.790291 36.6758 1.76172 36.6758H39.2383C40.2097 36.6758 41 35.8855 41 34.9141V6.88672C41 6.44445 40.6414 6.08594 40.1992 6.08594ZM28.668 6.08594H25.7852V5.44531H28.668V6.08594ZM14.5742 2.40234C14.5742 1.96079 14.9334 1.60156 15.375 1.60156H25.625C26.0666 1.60156 26.4258 1.96079 26.4258 2.40234V3.84375H24.9844C24.5422 3.84375 24.1836 4.20226 24.1836 4.64453V6.08594H16.8164V4.64453C16.8164 4.20226 16.4578 3.84375 16.0156 3.84375H14.5742V2.40234ZM12.332 5.44531H15.2148V6.08594H12.332V5.44531ZM39.2383 35.0742H1.76172C1.67339 35.0742 1.60156 35.0024 1.60156 34.9141V32.3516H6.01827C6.46046 32.3516 6.81905 31.9931 6.81905 31.5508C6.81905 31.1085 6.46046 30.75 6.01827 30.75H1.60156V17.7527C2.54184 18.6593 3.81917 19.2188 5.22542 19.2188H12.5629C13.0051 19.2188 12 18.9423 12 18.5C12.5 18 12.5632 17.6172 12.1211 17.6172H5.22542C3.22723 17.6172 1.60156 15.9915 1.60156 13.9933V7.6875H39.3984V13.9933C39.3984 15.9915 37.7728 17.6172 35.7746 17.6172H28.7441C28.302 17.6172 28 18.0577 28 18.5C28 18.9423 29.0578 19.2188 29.5 19.2188H35.7746C37.1808 19.2188 38.4582 18.6593 39.3984 17.7527V26.9863C39.3984 26.9863 39.3984 26.9863 39.3984 27.2446C39.3984 27.5028 39.3984 27.7153 39.3984 28.1576C39.3984 28.5999 39.3984 28.5195 39.3984 28.5195V28.5879V30.75H35.875C35.4328 30.75 35.0742 31.1085 35.0742 31.5508C35.0742 31.9931 35.4328 32.3516 35.875 32.3516H39.3984V34.9141C39.3984 35.0024 39.3266 35.0742 39.2383 35.0742Z" fill="#463192"/>
</svg>
