<svg width="18" height="16" viewBox="0 0 18 16" fill="none" xmlns="http://www.w3.org/2000/svg">
<path d="M15.8127 0H1.71133C0.768011 0 0.000581852 0.767155 3.42266e-05 1.71034L0 1.71082V13.9645C0 14.9081 0.767703 15.6758 1.71133 15.6758H13.9645C14.9081 15.6758 15.6758 14.9081 15.6758 13.9645V13.8271H15.8127C16.7563 13.8271 17.524 13.0594 17.524 12.1157V1.71133C17.524 0.767703 16.7563 0 15.8127 0ZM1.71133 0.684532H15.8127C16.3789 0.684532 16.8395 1.14515 16.8395 1.71133V6.22924C16.8395 6.41797 16.6859 6.57151 16.4972 6.57151H15.6758V4.44946C15.6758 3.50583 14.9081 2.73813 13.9645 2.73813H1.71133C1.14515 2.73813 0.684532 2.27751 0.684532 1.71133C0.684532 1.14515 1.14515 0.684532 1.71133 0.684532ZM14.9912 13.9645C14.9912 14.5306 14.5306 14.9913 13.9645 14.9913H1.71133C1.14515 14.9913 0.684532 14.5306 0.684532 13.9645V3.07947C0.883046 3.22883 1.11493 3.33613 1.36687 3.38785C1.47818 3.41068 1.59338 3.42266 1.71133 3.42266H13.9645C14.5306 3.42266 14.9912 3.88328 14.9912 4.44946V6.57151H11.0381C10.8491 6.57151 11.3803 6.72474 11.3803 6.91377C11.3803 7.10281 10.8491 7.25604 11.0381 7.25604H16.4972C16.6172 7.25604 16.7324 7.23516 16.8395 7.19717V9.17273V9.78881C16.8395 9.97753 16.6859 10.1311 16.4972 10.1311H15.3415C15.3388 10.131 15.3362 10.1307 15.3335 10.1307C15.3308 10.1307 15.3282 10.131 15.3256 10.1311H10.5418C9.74914 10.1311 9.10427 9.48621 9.10427 8.69356C9.10427 7.9009 9.74914 7.25604 10.5418 7.25604H11.0381C11.2271 7.25604 11.3803 7.10281 11.3803 6.91377C11.3803 6.72474 11.2271 6.57151 11.0381 6.57151H10.5418C9.37169 6.57151 8.41974 7.52345 8.41974 8.69356C8.41974 9.86366 9.37169 10.8156 10.5418 10.8156H14.9912V13.9645ZM15.8127 13.1425H15.6758V10.8156H16.4972C16.6172 10.8156 16.7324 10.7947 16.8395 10.7567V12.1157C16.8395 12.6819 16.3789 13.1425 15.8127 13.1425Z" fill="white"/>
</svg>
