<svg width="41" height="37" viewBox="0 0 41 37" fill="none" xmlns="http://www.w3.org/2000/svg">
<path d="M40.1992 12.7344V14.7363C40.1992 15.6209 39.4822 16.3379 38.5977 16.3379H24.6641C22.3643 16.3379 20.5 18.2022 20.5 20.502C20.5 22.8017 22.3643 24.666 24.6641 24.666H38.5977C39.4822 24.666 40.1992 23.949 40.1992 23.0645V21.623V12.7344Z" fill="white"/>
<path d="M1 7L35.5 8C35.5 8 35.5 34.2173 35.5 35C35.5 35.7827 1.5 35.5 1.5 35.5L1 7Z" fill="#463192"/>
<path d="M21.5 17C22.5 17 36 16 36 16V24.7231C36 24.7231 22.0094 24.6231 21.5 24C20.9906 23.3769 20.5 17 21.5 17Z" fill="white"/>
<path d="M36.9961 0.162109H4.00391C1.79687 0.162109 0.00136133 1.95698 8.00781e-05 4.16369L0 4.16481V32.834C0 35.0417 1.79615 36.8379 4.00391 36.8379H32.6719C34.8796 36.8379 36.6758 35.0417 36.6758 32.834V32.5126H36.9961C39.2038 32.5126 41 30.7164 41 28.5086V4.16602C41 1.95826 39.2038 0.162109 36.9961 0.162109ZM4.00391 1.76367H36.9961C38.3207 1.76367 39.3984 2.84136 39.3984 4.16602V14.7363C39.3984 15.1779 39.0392 15.5371 38.5977 15.5371H36.6758V10.5723C36.6758 8.36451 34.8796 6.56836 32.6719 6.56836H4.00391C2.67925 6.56836 1.60156 5.49067 1.60156 4.16602C1.60156 2.84136 2.67925 1.76367 4.00391 1.76367ZM35.0742 32.834C35.0742 34.1586 33.9965 35.2363 32.6719 35.2363H4.00391C2.67925 35.2363 1.60156 34.1586 1.60156 32.834V7.36698C2.06602 7.71644 2.60854 7.96748 3.198 8.08848C3.45841 8.14189 3.72796 8.16992 4.00391 8.16992H32.6719C33.9965 8.16992 35.0742 9.24761 35.0742 10.5723V15.5371H25.8252C25.383 15.5371 26.626 15.8956 26.626 16.3379C26.626 16.7802 25.383 17.1387 25.8252 17.1387H38.5977C38.8784 17.1387 39.1478 17.0898 39.3984 17.0009V21.623V23.0645C39.3984 23.506 39.0392 23.8652 38.5977 23.8652H35.8936C35.8873 23.8651 35.8812 23.8643 35.875 23.8643C35.8688 23.8643 35.8627 23.8651 35.8564 23.8652H24.6641C22.8095 23.8652 21.3008 22.3565 21.3008 20.502C21.3008 18.6474 22.8095 17.1387 24.6641 17.1387H25.8252C26.2674 17.1387 26.626 16.7802 26.626 16.3379C26.626 15.8956 26.2674 15.5371 25.8252 15.5371H24.6641C21.9264 15.5371 19.6992 17.7643 19.6992 20.502C19.6992 23.2396 21.9264 25.4668 24.6641 25.4668H35.0742V32.834ZM36.9961 30.911H36.6758V25.4668H38.5977C38.8784 25.4668 39.1478 25.4179 39.3984 25.3291V28.5086C39.3984 29.8333 38.3207 30.911 36.9961 30.911Z" fill="#463192"/>
<path d="M8.465 28.1912V28.9248C8.465 29.5186 8.94571 30 9.53874 30C10.1318 30 10.6125 29.5186 10.6125 28.9248V28.1912H11.3641V28.9248C11.3641 29.5186 11.8448 30 12.4379 30C13.0309 30 13.5116 29.5186 13.5116 28.9248V27.9365C14.9649 27.3796 16 25.9693 16 24.3206C16 23.2224 15.5401 22.2303 14.804 21.5252C15.5401 20.8201 16 19.828 16 18.7298C16 17.0812 14.9648 15.6708 13.5116 15.1139V14.0752C13.5116 13.4814 13.0309 13 12.4379 13C11.8448 13 11.3641 13.4814 11.3641 14.0752V14.8592H10.6125V14.0752C10.6125 13.4814 10.1318 13 9.53874 13C8.94571 13 8.465 13.4814 8.465 14.0752V14.8592H7.07374C6.48072 14.8592 6 15.3406 6 15.9344C6 16.5282 6.48072 17.0096 7.07374 17.0096H7.28398V26.0409H7.07374C6.48072 26.0409 6 26.5223 6 27.1161C6 27.7099 6.48072 28.1913 7.07374 28.1913L8.465 28.1912ZM13.8524 24.3206C13.8524 25.2691 13.0817 26.0408 12.1345 26.0408H9.43137V22.6004H12.1345C13.0819 22.6004 13.8524 23.3721 13.8524 24.3206ZM12.1345 20.45H9.43137V17.0095H12.1345C13.0818 17.0095 13.8524 17.7813 13.8524 18.7297C13.8524 19.6781 13.0819 20.45 12.1345 20.45Z" fill="white"/>
<path d="M24.624 18.1046C23.2994 18.1046 22.2217 19.1823 22.2217 20.507C22.2217 21.8316 23.2994 22.9093 24.624 22.9093C25.9487 22.9093 27.0264 21.8316 27.0264 20.507C27.0264 19.1823 25.9487 18.1046 24.624 18.1046ZM24.624 21.3077C24.1825 21.3077 23.8232 20.9485 23.8232 20.507C23.8232 20.0654 24.1825 19.7062 24.624 19.7062C25.0656 19.7062 25.4248 20.0654 25.4248 20.507C25.4248 20.9485 25.0656 21.3077 24.624 21.3077Z" fill="#463192"/>
</svg>
