<svg width="24" height="22" viewBox="0 0 24 22" fill="none" xmlns="http://www.w3.org/2000/svg">
<path d="M21 9.17642V6.09373C21 5.05822 20.1605 4.21873 19.125 4.21873H2.34375C1.30823 4.21873 0.46875 3.37925 0.46875 2.34373V2.34308V19.125C0.46875 20.1605 1.30823 21 2.34375 21H19.125C20.1605 21 21 20.1605 21 19.125V14.3432V9.17642Z" fill="#463192"/>
<path d="M5.98151 8.81855V8.91683L6.07701 8.94002C7.1111 9.19114 7.875 10.0989 7.875 11.1723C7.875 11.4579 7.65447 11.6802 7.39352 11.6802C7.13257 11.6802 6.91204 11.4579 6.91204 11.1723C6.91204 10.6751 6.60199 10.2502 6.1609 10.0368L5.98145 9.94991V10.1493V12.4054V12.5037L6.07695 12.5268C7.11104 12.778 7.87494 13.6857 7.87494 14.7591C7.87494 15.8325 7.11098 16.7402 6.07696 16.9912L5.98145 17.0144V17.1127V17.3671C5.98145 17.6527 5.76092 17.875 5.49997 17.875C5.23902 17.875 5.01849 17.6527 5.01849 17.3671V17.1127V17.0144L4.92298 16.9912C3.8889 16.7402 3.125 15.8324 3.125 14.7591C3.125 14.4735 3.34553 14.2512 3.60648 14.2512C3.86743 14.2512 4.08796 14.4735 4.08796 14.7591C4.08796 15.2562 4.39801 15.6811 4.8391 15.8945L5.01855 15.9814V15.782V13.526V13.4277L4.92305 13.4045C3.88896 13.1534 3.12506 12.2457 3.12506 11.1723C3.12506 10.0988 3.88902 9.19108 4.92304 8.94003L5.01855 8.91684V8.81855V8.63292C5.01855 8.34731 5.23908 8.125 5.50003 8.125C5.76098 8.125 5.98151 8.34731 5.98151 8.63292V8.81855ZM5.01861 10.1493V9.94993L4.83917 10.0367C4.39806 10.2502 4.08802 10.6751 4.08802 11.1723C4.08802 11.6695 4.39799 12.0944 4.83917 12.3078L5.01861 12.3947V12.1953V10.1493ZM5.98145 15.7819V15.9812L6.16087 15.8944C6.602 15.6811 6.91204 15.2561 6.91204 14.7589C6.91204 14.2618 6.60199 13.8369 6.16092 13.6234L5.98145 13.5365V13.7359V15.7819Z" fill="white" stroke="#463192" stroke-width="0.25"/>
<path d="M23.5312 7.35938V8.53125C23.5312 9.04903 23.1115 9.46875 22.5938 9.46875H14.4375C13.0913 9.46875 12 10.56 12 11.9063C12 13.2525 13.0913 14.3438 14.4375 14.3438H22.5938C23.1115 14.3438 23.5312 13.924 23.5312 13.4063V12.5625V7.35938Z" fill="white"/>
<path d="M21.6562 0H2.34375C1.05183 0 0.000796875 1.05066 4.6875e-05 2.34239C4.6875e-05 2.34263 0 2.34281 0 2.34305V19.125C0 20.4173 1.05141 21.4688 2.34375 21.4688H19.125C20.4173 21.4688 21.4688 20.4173 21.4688 19.125V18.9368H21.6562C22.9486 18.9368 24 17.8854 24 16.5931V2.34375C24 1.05141 22.9486 0 21.6562 0ZM2.34375 0.9375H21.6562C22.4317 0.9375 23.0625 1.56834 23.0625 2.34375V8.53125C23.0625 8.78972 22.8522 9 22.5938 9H21.4688V6.09375C21.4688 4.80141 20.4173 3.75 19.125 3.75H2.34375C1.56834 3.75 0.9375 3.11916 0.9375 2.34375C0.9375 1.56834 1.56834 0.9375 2.34375 0.9375ZM20.5312 19.125C20.5312 19.9004 19.9004 20.5312 19.125 20.5312H2.34375C1.56834 20.5312 0.9375 19.9004 0.9375 19.125V4.21748C1.20938 4.42205 1.52695 4.569 1.872 4.63983C2.02444 4.67109 2.18222 4.6875 2.34375 4.6875H19.125C19.9004 4.6875 20.5312 5.31834 20.5312 6.09375V9H19.4062C19.1474 9 18.9375 9.20986 18.9375 9.46875C18.9375 9.72764 19.1474 9.9375 19.4062 9.9375H22.5938C22.7581 9.9375 22.9158 9.90891 23.0625 9.85687V12.5625V13.4062C23.0625 13.6647 22.8522 13.875 22.5938 13.875H21.0109C21.0072 13.8749 21.0037 13.8744 21 13.8744C20.9963 13.8744 20.9928 13.8749 20.9891 13.875H14.4375C13.3519 13.875 12.4688 12.9918 12.4688 11.9062C12.4688 10.8207 13.3519 9.9375 14.4375 9.9375H15.1172C15.376 9.9375 15.5859 9.72764 15.5859 9.46875C15.5859 9.20986 15.376 9 15.1172 9H14.4375C12.835 9 11.5312 10.3037 11.5312 11.9062C11.5312 13.5088 12.835 14.8125 14.4375 14.8125H20.5312V19.125ZM21.6562 17.9993H21.4688V14.8125H22.5938C22.7581 14.8125 22.9158 14.7839 23.0625 14.7319V16.5931C23.0625 17.3685 22.4317 17.9993 21.6562 17.9993Z" fill="#463192"/>
<path d="M14.4142 10.5029C13.6388 10.5029 13.0079 11.1338 13.0079 11.9092C13.0079 12.6846 13.6388 13.3154 14.4142 13.3154C15.1896 13.3154 15.8204 12.6846 15.8204 11.9092C15.8204 11.1338 15.1896 10.5029 14.4142 10.5029ZM14.4142 12.3779C14.1557 12.3779 13.9454 12.1676 13.9454 11.9092C13.9454 11.6507 14.1557 11.4404 14.4142 11.4404C14.6727 11.4404 14.8829 11.6507 14.8829 11.9092C14.8829 12.1676 14.6727 12.3779 14.4142 12.3779Z" fill="#463192"/>
</svg>
