<?xml version="1.0" encoding="utf-8"?>
<!-- Generator: Adobe Illustrator 16.0.0, SVG Export Plug-In . SVG Version: 6.00 Build 0)  -->
<!DOCTYPE svg PUBLIC "-//W3C//DTD SVG 1.1//EN" "http://www.w3.org/Graphics/SVG/1.1/DTD/svg11.dtd">
<svg version="1.1" xmlns="http://www.w3.org/2000/svg" xmlns:xlink="http://www.w3.org/1999/xlink" x="0px" y="0px"
	 width="198.43px" height="198.43px" viewBox="0 0 198.43 198.43" enable-background="new 0 0 198.43 198.43" xml:space="preserve">
<g id="Слой_1">
</g>
<g id="Слой_2">
	<path fill-rule="evenodd" clip-rule="evenodd" d="M169.538,42.968c-23.582-18.503-47.891-24.918-74.11-9.794
		C82.226,40.791,74.421,55.99,73.208,72.67c16.616,0,33.21,0,50.314,0c0,6.441,0,12.076,0,18.334
		c-1.889,0.106-3.857,0.31-5.828,0.314c-13.594,0.028-27.188,0.118-40.78-0.05c-3.79-0.046-5.482,1.048-5.25,5.056
		c0.255,4.403,0.058,8.83,0.058,13.899c8.547,0,16.318,0,24.088,0c8.007,0.002,16.014,0.089,24.02-0.037
		c3.105-0.051,4.375,1.067,4.251,4.23c-0.173,4.438-0.044,8.886-0.044,14.269c-17.093,0-33.721,0-50.876,0
		c1.583,15.509,8.057,27.134,19.728,35.789c11.564,8.576,24.811,10.408,38.743,9.12c14.135-1.31,26.35-6.964,36.477-17.313
		c0.43,0.304,0.859,0.604,1.292,0.908c0,8.627,0.103,17.256-0.132,25.876c-0.027,1.081-1.635,2.484-2.837,3.113
		c-30.615,15.987-75.423,15.625-101.561-15.971c-8.731-10.555-14.447-22.563-16.805-35.976c-0.806-4.58-2.633-5.871-6.914-5.583
		c-4.448,0.302-9.264,1.533-13.381-0.128c-3.771-1.521-3.396-2.084-4.04-3.778c-0.047-0.124-0.022-0.36-0.02-0.546
		c0.213-17.309-2.103-13.536,12.985-13.964c2.587-0.075,5.177-0.011,8.676-0.011c0-5.698,0.205-11.024-0.189-16.309
		c-0.071-0.951-2.567-2.383-4.003-2.458c-5.531-0.288-11.088-0.118-17.037-0.118c0-6.309,0-11.962,0-18.206
		c5.607,0,10.82-0.388,15.945,0.109c5.26,0.513,7.003-1.552,7.79-6.549c2.875-18.247,10.868-34.008,24.995-46.103
		C96.162,0.65,122.946-1.273,151.175,6.768c18.453,5.257,18.363,5.572,18.363,24.541C169.538,34.763,169.538,38.22,169.538,42.968z"
		/>
</g>
</svg>
