<?xml version="1.0" encoding="utf-8"?>
<!-- Generator: Adobe Illustrator 16.0.0, SVG Export Plug-In . SVG Version: 6.00 Build 0)  -->
<!DOCTYPE svg PUBLIC "-//W3C//DTD SVG 1.1//EN" "http://www.w3.org/Graphics/SVG/1.1/DTD/svg11.dtd">
<svg version="1.1" xmlns="http://www.w3.org/2000/svg" xmlns:xlink="http://www.w3.org/1999/xlink" x="0px" y="0px"
	 width="198.43px" height="198.43px" viewBox="0 0 198.43 198.43" enable-background="new 0 0 198.43 198.43" xml:space="preserve">
<g id="Слой_1">
</g>
<g id="Слой_2">
	<path id="path2995" stroke="#000000" stroke-width="7" d="M91.858,10.577l-11.57,11.618l-1.44,1.322l0.044,16.354l-1.555,0.489
		l-1.277,0.443l-1.351,0.415l-1.021,0.443l-1.183,0.465l-1.301,0.487l-1.162,0.559l-1.186,0.509l-1.067,0.513l-0.907,0.419
		l-1.116,0.602l-0.881,0.514l-0.908,0.509l-1.112,0.604l-0.887,0.488l-1.276,0.768l-1.396,0.907l-1.504,1.022L56.64,50.79l-1.325,1
		l-0.838,0.649l-1.066,0.837l-0.977,0.767l-1.046,0.838l-0.953,0.767l-0.743,0.743l-0.906,0.833l-1.651,1.56l-0.718,0.693
		l-0.583,0.607l-0.787,0.764l-0.953,1.026l-0.908,0.972l-0.578,0.767l-0.722,0.788l-0.65,0.862l-0.652,0.837l-0.627,0.833
		l-0.649,0.791l-0.583,0.79l-0.603,0.746l-0.464,0.694l-0.534,0.862l-0.557,0.907l-0.49,0.648l-0.463,0.697l-0.723,1.162
		l-0.324,0.673l-0.394,0.698l-0.558,0.907l-0.438,0.694l-0.261,0.698l-0.533,0.906l-0.508,0.928l-0.56,1.141L30.9,81.943
		l-0.465,1.136l-0.468,0.957l-0.369,0.833l-0.349,0.977l-0.534,1.207l-0.419,1.255l-0.602,1.791l-0.328,1.09l-0.369,1.231
		l-0.325,1.137l-0.279,1.141l-0.723,3.156l-0.184,0.976l-0.304,1.142l-0.209,1.39l-0.139,0.932l-0.21,1.462l-0.205,1.604
		l-0.209,2.553l-0.164,1.79l-0.069,1.37l-0.025,1.648l0.025,4.02l0.045,1.325l0.139,1.905l0.119,1.555l0.115,1.118l0.115,1.184
		l0.114,0.954l0.21,1.186l0.164,1.136l0.165,1.021l0.209,1.021l0.185,0.884l0.278,1.231l0.255,1.071l0.234,1.09l0.369,1.183
		l0.305,1.211l0.299,1.021l0.279,0.885l0.304,1.021l0.349,0.952l0.349,1.021l0.395,0.996l0.349,0.883l0.324,0.767l0.443,1.093
		l0.439,1.072l0.488,0.995l0.419,0.999l0.418,0.814l0.419,0.744l0.489,1.066l0.439,0.812l0.442,0.84l0.489,0.837l0.301,0.533
		l0.303,0.509l0.44,0.724l0.396,0.672l0.37,0.582l0.443,0.603l0.369,0.65l0.583,0.881l0.509,0.744l0.557,0.746l0.395,0.604
		l0.444,0.578l0.557,0.721l0.465,0.606l0.648,0.787l0.816,0.977l0.673,0.881l0.787,0.862l0.584,0.72l0.624,0.626l0.746,0.787
		l0.673,0.749l0.674,0.673l0.509,0.489l0.627,0.579l0.652,0.652l0.559,0.507l0.603,0.56l0.489,0.464l0.648,0.558l0.604,0.558
		l0.538,0.369l0.484,0.469l0.512,0.393l0.418,0.3l0.464,0.375l0.558,0.442l0.533,0.415l0.584,0.419l0.623,0.464l0.559,0.416
		l0.394,0.26l0.328,0.255l0.37,0.256l0.399,0.278l0.344,0.232l0.304,0.161H36.846l-12.869,12.871h129.347l12.826-12.871
		l-67.417-0.021l-1.461-0.025l-1.768-0.184l-2.554-0.21l-2.348-0.465l-1.81-0.327l-1.883-0.439l-1.625-0.347l-1.79-0.446
		l-1.186-0.347l-1.879-0.675l-1.605-0.579l-1.37-0.488l-1.277-0.533l-1.326-0.67l-1.206-0.585l-1.556-0.719l-1.534-0.835
		l-1.373-0.815l-1.32-0.79l-1.003-0.648l-1.3-0.769l-1.186-0.881l-1.022-0.652l-0.998-0.743l-1.137-0.953l-1.161-0.929l-1.187-1.045
		l-1.137-0.977l-1.21-1.184l-1.113-1.091l-0.768-0.748l-0.906-1.091l-0.718-0.764l-0.723-0.767l-0.908-1.118l-0.998-1.23
		c0,0-0.882-1.183-0.882-1.275c0-0.092-0.863-1.091-0.863-1.091l-0.971-1.466l-0.793-1.162l-0.788-1.229l-0.743-1.277l-0.628-1.072
		l-0.533-1.066l-0.792-1.464l-0.603-1.392l-0.583-1.353l-0.649-1.392l-0.443-1.044l-0.37-0.953l-0.394-1.207l-0.539-1.675
		l-0.554-1.764l-0.558-1.975l-0.349-1.696l-0.373-1.857l-0.349-1.581l-0.23-1.884l-0.189-1.764l-0.185-2l-0.09-1.16l-0.095-1.346
		v-1.231l0.025-1.162l0.069-1.208l0.045-1.929l0.091-1.44l0.069-1.51l0.121-1.045l0.185-1.441l0.208-1.321l0.164-1.351l0.23-1.138
		l0.304-1.416l0.229-1.161l0.209-0.882l0.304-1.162l0.325-1.001l0.373-1.391l0.369-1.001l0.49-1.392l0.463-1.302l0.467-1.14
		l0.51-1.441l0.653-1.391l0.463-0.837l0.534-1.137l0.604-1.211l0.488-0.906l0.672-1.181l0.768-1.187l0.514-0.927l0.603-0.883
		l0.882-1.281l0.743-1.066l0.673-0.998l0.698-0.931l0.603-0.837l0.558-0.628l0.673-0.743l0.534-0.673l0.513-0.558l0.629-0.624
		l0.533-0.652l0.787-0.718l0.698-0.722l1.396-1.347l0.49-0.513l0.648-0.579l0.652-0.582l0.578-0.534l0.698-0.603l0.813-0.628
		l0.768-0.578l0.768-0.608l0.788-0.484l0.953-0.723l0.907-0.648l0.977-0.628l0.693-0.513l0.931-0.533l0.837-0.514l0.625-0.414
		l0.792-0.349l0.603-0.373l0.813-0.419l0.907-0.463l0.908-0.418l0.533-0.325l0.858-0.324l0.743-0.329l0.862-0.394l0.698-0.299
		l0.693-0.28l0.677-0.234l0.37-0.164v60.564l12.94-12.892l0.025-51.017l0.16-0.069l0.558-0.091l0.652-0.07l0.883-0.14l0.858-0.069
		l0.545-0.02l0.012,0.008l0.223,0.024l1.079-0.119l1.162-0.071l1.403-0.045l4.334-0.024l1.581,0.083l1.346,0.094l1.013,0.091
		l0.965,0.105l1.042,0.127l0.78,0.116l0.696,0.093l0.022,63.908l12.978-12.894V53.58l0.196,0.057l0.438,0.185l0.615,0.246
		l0.825,0.301l0.57,0.278l0.838,0.361l0.927,0.419l0.861,0.418l0.847,0.428l0.932,0.455l1.029,0.545l0.735,0.382l0.648,0.349
		l0.546,0.374l0.64,0.37l0.522,0.279l0.672,0.452l0.583,0.386l0.712,0.431l0.614,0.415l0.616,0.442l0.624,0.452l0.616,0.43
		l0.721,0.547l0.661,0.513l0.513,0.406l0.545,0.439l0.593,0.463l0.64,0.526l0.77,0.718l0.659,0.57l0.626,0.603l0.688,0.603
		l0.673,0.698l0.509,0.418l0.476,0.514l0.768,0.813l0.663,0.706l0.452,0.526l0.478,0.533l0.708,0.8l0.743,0.908l0.63,0.755
		l0.355,0.558l0.455,0.661l0.567,0.723l0.455,0.616l0.44,0.616l0.431,0.623l0.514,0.755l0.438,0.71l0.406,0.603l0.36,0.534
		l0.37,0.583l0.363,0.579l0.334,0.652l0.305,0.592l0.383,0.71l0.335,0.545l0.26,0.522l0.299,0.64l0.267,0.463l0.259,0.534
		l0.406,0.862l0.406,0.94l0.231,0.489l0.22,0.521l0.223,0.513l0.196,0.521l0.233,0.652l0.198,0.521l0.278,0.578l0.185,0.477
		l0.152,0.476l0.211,0.64l0.139,0.457l0.195,0.623l0.187,0.677l0.209,0.682l0.242,0.71l0.232,0.931l0.209,0.764l0.279,1.255
		l0.154,0.648l0.16,0.723l0.182,0.978l0.051,0.184l0.128,0.769l0.173,0.907l0.119,0.984l0.128,0.978l0.149,1.241l0.128,1.139
		l0.091,1.346l0.083,1.199l0.091,1.567l0.06,1.765l11.931-11.932l0.021-0.217l-0.069-0.514l-0.104-0.636l-0.113-0.664l-0.096-0.522
		l-0.138-0.8l-0.178-0.697l-0.114-0.653l-0.278-1.111l-0.142-0.596l-0.185-0.718l-0.221-0.813l-0.186-0.677l-0.184-0.693
		l-0.177-0.559l-0.184-0.652l-0.236-0.731l-0.242-0.767l-0.323-0.965l-0.26-0.763l-0.241-0.748l-0.293-0.718l-0.241-0.616
		l-0.301-0.895l-0.302-0.685l-0.27-0.602l-0.314-0.744l-0.301-0.686l-0.369-0.874l-0.305-0.687l-0.337-0.623l-0.37-0.78
		l-0.303-0.591l-0.381-0.792l-0.329-0.591l-0.337-0.628l-0.383-0.672l-0.443-0.744l-0.406-0.754l-0.355-0.596l-0.374-0.648
		l-0.36-0.559l-0.369-0.661l-0.337-0.526l-0.419-0.59l-0.292-0.464l-0.304-0.395l-0.451-0.697l-0.463-0.652l-0.406-0.566
		l-0.374-0.525l-0.44-0.591l-0.454-0.591l-0.463-0.596l-0.27-0.393l-0.417-0.476l-0.267-0.325l-0.452-0.558l-0.419-0.501
		l-0.463-0.544l-0.71-0.838l-0.591-0.673l-0.548-0.546l-0.524-0.579l-0.579-0.583l-0.85-0.87l-0.729-0.686l-0.603-0.591
		l-0.736-0.723l-0.66-0.636l-0.581-0.489l-0.766-0.722l-0.639-0.521l-0.534-0.488l-0.71-0.545l-0.602-0.488l-0.698-0.572
		l-0.676-0.496l-0.742-0.534l-0.66-0.468l-0.754-0.59l-0.725-0.514l-0.579-0.426l-0.606-0.394l-0.634-0.411l-0.724-0.452
		l-0.764-0.487l-0.697-0.464l-0.604-0.361l-0.723-0.394l-0.639-0.374l-0.72-0.381l-0.755-0.439l-0.649-0.34l-0.753-0.395
		l-0.735-0.36l-0.649-0.325l-0.906-0.427l-0.814-0.385l-0.835-0.395l-1.035-0.451l-0.774-0.34l-0.896-0.344l-0.769-0.305
		l-0.709-0.254l-0.769-0.279l-1.029-0.394l-0.768-0.246l-0.87-0.3l-0.71-0.209l-0.445-0.083l-0.018-29.282l-13,12.928l0.01,13.601
		l-1.044-0.165l-1.382-0.16L107.63,36.7l-1.859-0.14l-1.729-0.057l-1.021-0.034l-2.487,0.025l-1.625,0.02l-1.896,0.071l-1.313,0.069
		l-0.344,0.083L95.35,36.74l-1.124,0.091l-1.162,0.089l-0.813,0.165l-0.374,0.159L91.858,10.577z"/>
</g>
</svg>
