<?xml version="1.0" encoding="utf-8"?>
<!-- Generator: Adobe Illustrator 16.0.0, SVG Export Plug-In . SVG Version: 6.00 Build 0)  -->
<!DOCTYPE svg PUBLIC "-//W3C//DTD SVG 1.1//EN" "http://www.w3.org/Graphics/SVG/1.1/DTD/svg11.dtd">
<svg version="1.1" xmlns="http://www.w3.org/2000/svg" xmlns:xlink="http://www.w3.org/1999/xlink" x="0px" y="0px"
	 width="198.43px" height="198.43px" viewBox="0 0 198.43 198.43" enable-background="new 0 0 198.43 198.43" xml:space="preserve">
<g id="Слой_1">
</g>
<g id="Слой_2">
	<path fill-rule="evenodd" clip-rule="evenodd" d="M54.958,111.465c-5.96,0-11.412,0.007-16.866-0.007
		c-1.318-0.002-3.144,0.484-3.873-0.188c-4.922-4.542-1.535-10.501-2.125-15.794c0.24-3.058,2.633-3.384,4.168-3.486
		c6.151-0.409,12.345-0.168,19.183-0.168c0-9.359-0.438-18.002,0.124-26.579c0.561-8.592,1.066-17.425,3.449-25.613
		c6.271-21.557,21.445-33.642,43.511-36.52c17.687-2.308,34.521,1.261,50.198,9.816c1.434,0.782,3.238,2.57,3.283,3.943
		c0.295,8.997,0.152,18.007,0.152,28.565c-2.672-2.166-4.379-3.383-5.893-4.803c-12.549-11.764-27.516-15.867-44.322-13.901
		c-14.745,1.724-23.181,10.846-25.358,27.324c-0.442,3.351-0.422,6.774-0.443,10.165c-0.057,8.842-0.02,17.684-0.02,27.135
		c2.357,0.17,4.335,0.429,6.315,0.436c11.125,0.042,22.252,0.117,33.375-0.027c3.609-0.046,4.881,1.174,4.977,4.887
		c0.379,14.817,0.498,14.809-14.252,14.817c-9.428,0.005-18.854,0.028-28.282,0.06c-0.363,0.002-0.725,0.155-1.611,0.354
		c0,20.661,0,41.446,0,63.095c1.953,0,3.943,0,5.935,0c22.438,0,44.879,0.117,67.314-0.09c4.811-0.045,6.656,1.22,6.623,6.321
		c-0.098,15.155,0.098,15.155-15.15,15.155c-36.582,0-73.163-0.106-109.742,0.119c-5.248,0.033-6.803-1.463-6.734-6.655
		c0.194-14.848-0.009-14.851,14.896-14.851c3.563,0,7.125,0,11.169,0C54.958,153.777,54.958,132.999,54.958,111.465z"/>
</g>
</svg>
